<?xml version="1.0" standalone="no"?>
<!DOCTYPE svg PUBLIC "-//W3C//DTD SVG 20010904//EN"
 "http://www.w3.org/TR/2001/REC-SVG-20010904/DTD/svg10.dtd">
<svg version="1.0" xmlns="http://www.w3.org/2000/svg"
 width="474.000000pt" height="474.000000pt" viewBox="0 0 474.000000 474.000000"
 preserveAspectRatio="xMidYMid meet">
<metadata>
Created by potrace 1.16, written by Peter Selinger 2001-2019
</metadata>
<g transform="translate(0.000000,474.000000) scale(0.100000,-0.100000)"
fill="#000000" stroke="none">
<path d="M2215 4140 c-381 -44 -696 -256 -855 -577 -77 -155 -84 -200 -85
-516 0 -152 -1 -277 -1 -277 -1 0 -33 12 -70 26 -57 21 -79 25 -127 20 -151
-15 -261 -119 -261 -246 0 -130 97 -223 309 -295 89 -31 135 -52 135 -63 0 -4
-19 -41 -41 -82 -138 -254 -359 -435 -584 -480 -124 -25 -185 -88 -185 -191 1
-144 123 -237 390 -299 52 -12 100 -23 106 -25 7 -2 17 -27 24 -57 17 -71 32
-99 74 -136 56 -49 103 -57 223 -37 124 20 271 21 336 1 27 -8 110 -55 186
-105 259 -170 356 -205 576 -205 227 0 323 33 566 191 85 56 176 108 203 117
57 19 215 22 311 6 78 -13 166 -13 202 1 34 12 80 55 98 89 7 14 18 49 25 78
7 30 17 55 24 57 6 1 59 14 119 29 228 55 339 126 372 239 35 120 -31 219
-160 243 -204 37 -403 179 -544 387 -43 65 -101 168 -101 181 0 9 53 33 133
60 178 60 272 131 303 231 15 46 16 62 5 109 -34 151 -234 247 -391 187 -30
-12 -57 -21 -60 -21 -3 0 -5 123 -5 273 -1 248 -3 279 -23 350 -100 358 -407
634 -797 718 -106 23 -315 32 -430 19z m430 -324 c220 -66 374 -193 473 -391
16 -33 35 -87 42 -120 15 -73 18 -299 7 -530 -9 -169 -9 -170 15 -205 14 -21
48 -47 84 -66 l60 -31 -42 -37 c-83 -71 -119 -205 -84 -312 21 -65 80 -175
141 -264 108 -159 232 -278 389 -374 80 -50 82 -46 -32 -65 -107 -19 -156 -62
-186 -162 -13 -45 -21 -58 -32 -53 -8 3 -71 8 -140 11 -228 10 -329 -21 -542
-163 -199 -133 -279 -164 -428 -164 -150 0 -225 29 -424 162 -128 87 -209 128
-296 149 -59 14 -284 19 -360 7 l-45 -7 -17 59 c-30 99 -75 138 -183 159 -120
23 -114 19 -69 45 153 87 328 250 426 396 71 107 135 239 148 308 18 100 -20
207 -99 273 l-38 33 57 27 c59 28 96 65 107 107 3 14 0 131 -6 261 -15 278 -6
417 33 512 94 234 289 391 556 450 129 29 362 21 485 -15z"/>
</g>
</svg>
