<?xml version="1.0" standalone="no"?>
<!DOCTYPE svg PUBLIC "-//W3C//DTD SVG 20010904//EN"
 "http://www.w3.org/TR/2001/REC-SVG-20010904/DTD/svg10.dtd">
<svg version="1.0" xmlns="http://www.w3.org/2000/svg"
 width="612.000000pt" height="296.000000pt" viewBox="0 0 612.000000 296.000000"
 preserveAspectRatio="xMidYMid meet">
<metadata>
Created by potrace 1.16, written by Peter Selinger 2001-2019
</metadata>
<g transform="translate(0.000000,296.000000) scale(0.100000,-0.100000)"
fill="#000000" stroke="none">
<path d="M2757 2530 c-20 -5 -61 -22 -90 -36 -45 -23 -49 -28 -32 -35 16 -6
17 -8 3 -8 -28 -1 -69 -24 -65 -35 2 -6 -13 -23 -33 -37 -57 -41 -110 -173
-110 -273 0 -46 10 -51 31 -16 23 37 62 39 159 11 79 -24 69 -26 -27 -6 -100
21 -133 6 -133 -61 0 -13 4 -24 9 -24 5 0 24 -12 41 -27 22 -18 36 -24 45 -17
57 42 71 47 148 55 45 4 91 10 102 14 20 7 20 6 1 -9 -11 -9 -34 -16 -50 -16
-32 -1 -29 -6 20 -35 14 -9 15 -15 5 -33 -6 -12 -21 -26 -32 -32 -18 -10 -19
-9 -13 15 8 32 -10 55 -43 55 -14 0 -21 4 -18 10 7 11 -31 12 -56 2 -8 -4 -28
-17 -44 -30 -27 -22 -28 -23 -9 -38 18 -15 18 -15 0 -10 -15 5 -17 3 -11 -16
4 -13 10 -49 12 -80 l5 -58 34 0 c28 0 34 -4 34 -21 0 -15 5 -19 15 -15 8 3
25 1 37 -4 22 -8 22 -9 -4 -9 -31 -1 -39 -21 -9 -21 13 0 24 -13 35 -40 l16
-40 56 46 c31 25 90 62 130 82 l73 36 -42 28 c-47 31 -44 35 10 13 48 -20 50
-20 68 15 28 54 41 35 18 -26 -3 -7 27 -10 94 -10 54 1 153 -3 220 -8 107 -8
125 -7 148 8 33 22 32 31 -12 73 -32 30 -119 77 -248 133 -53 24 -1 24 76 0
86 -26 165 -62 239 -108 80 -51 130 -72 173 -72 27 0 37 4 37 15 0 24 41 -10
79 -65 18 -25 50 -65 72 -90 l40 -45 -36 60 c-45 72 -105 152 -139 184 -22 21
-26 22 -32 7 -10 -26 -25 -19 -18 9 10 41 -32 93 -118 147 -54 33 -61 42 -22
28 14 -6 27 -10 28 -10 2 0 9 21 15 46 7 26 14 44 16 42 3 -2 0 -20 -5 -39
-14 -48 -13 -55 14 -73 23 -14 34 -14 138 5 62 11 131 26 153 33 22 7 60 16
85 19 l45 5 -37 -11 c-21 -6 -38 -14 -38 -18 0 -4 32 -25 70 -45 69 -36 120
-82 120 -109 0 -7 19 -23 43 -34 53 -26 59 -26 55 -3 -2 12 3 16 17 14 11 -2
28 -3 39 -3 10 0 16 -3 12 -6 -3 -3 3 -13 15 -21 11 -8 23 -12 26 -8 3 3 13
-2 21 -11 12 -11 17 -12 20 -3 10 30 -108 120 -159 120 -18 0 -35 21 -121 144
-31 44 -43 55 -50 45 -7 -10 -8 -8 -4 6 4 13 -3 31 -18 50 -24 30 -25 30 -163
38 -76 4 -177 9 -225 11 -47 2 -92 7 -100 11 -7 5 1 -7 17 -25 l30 -32 -34 17
c-43 22 -125 29 -181 16 -24 -5 -47 -8 -49 -5 -11 11 23 28 76 40 l58 12 -83
1 c-46 1 -93 -4 -105 -10 -44 -23 -87 -73 -93 -108 -4 -20 -17 -58 -30 -84
l-24 -48 21 -49 c20 -47 58 -85 143 -142 23 -16 36 -28 31 -28 -11 0 -105 61
-149 97 -15 12 -36 44 -46 70 -10 26 -22 48 -26 48 -5 -1 -36 -4 -69 -9 -54
-7 -227 13 -242 28 -2 2 18 11 44 20 27 9 90 48 141 86 51 38 91 64 89 57 -1
-6 -11 -16 -22 -21 -20 -9 -19 -10 2 -13 22 -4 38 -38 45 -93 3 -20 -3 -26
-37 -37 l-40 -13 39 5 c61 7 68 19 52 92 -7 34 -11 76 -9 95 3 18 5 42 7 53 1
11 5 30 9 42 19 54 -56 151 -141 183 -65 25 -214 35 -275 20z m258 -35 c60
-20 86 -42 116 -100 20 -38 22 -47 10 -68 -8 -16 -11 -36 -6 -57 5 -24 4 -31
-5 -25 -6 4 -21 -2 -33 -13 -30 -27 -174 -122 -229 -152 l-46 -24 -108 41
c-60 23 -122 46 -138 51 -17 4 -32 14 -34 22 -4 10 6 12 44 7 48 -5 48 -5 19
8 -16 8 -36 14 -42 15 -19 0 -16 17 17 93 49 115 128 194 218 217 50 13 156 5
217 -15z"/>
<path d="M3002 1759 c-57 -11 -128 -51 -209 -117 -60 -50 -65 -57 -48 -66 19
-11 135 -123 135 -131 0 -2 -15 -7 -34 -10 -27 -5 -49 1 -107 29 -88 42 -142
55 -229 57 l-65 1 45 14 c25 8 83 19 130 24 81 8 79 9 -45 5 -71 -2 -156 -9
-189 -16 l-58 -12 33 -18 c53 -28 22 -22 -110 20 -67 22 -146 44 -174 50 -126
25 -528 48 -902 53 -191 2 -223 0 -360 -24 -82 -15 -176 -30 -207 -33 -32 -4
-58 -11 -58 -16 0 -16 92 -9 220 17 71 14 173 27 235 29 l110 4 -103 -14
c-112 -15 -146 -30 -117 -51 13 -10 5 -14 -48 -23 -107 -19 -231 -14 -269 9
-18 11 -44 20 -58 20 -81 0 -412 -122 -407 -150 1 -10 16 -16 40 -18 32 -3 38
0 35 14 -2 12 4 20 17 22 17 2 17 1 5 -8 -13 -9 -12 -12 4 -25 26 -20 76 -20
76 0 0 13 104 52 190 70 62 13 27 -2 -57 -25 -45 -12 -90 -28 -99 -35 -17 -12
-16 -13 2 -23 16 -8 46 -5 130 15 86 20 131 25 214 24 144 -3 242 19 272 61
l22 31 -40 -6 c-33 -4 -35 -4 -16 5 26 13 135 -5 353 -58 217 -53 401 -91 584
-118 364 -56 460 -52 491 18 12 29 13 29 14 7 0 -14 -10 -35 -22 -48 l-23 -24
125 2 c69 2 166 -3 215 -11 134 -20 299 2 409 54 43 20 93 39 110 42 30 5 30
5 -5 -9 -19 -7 -46 -21 -58 -29 l-23 -16 21 -7 c12 -3 47 -41 79 -83 66 -89
109 -116 186 -115 89 0 248 13 348 28 120 18 160 19 138 4 -13 -9 -13 -11 0
-16 17 -7 50 -41 98 -102 41 -51 63 -63 199 -105 150 -47 296 -72 453 -77 111
-4 119 3 80 71 l-21 35 25 -30 c57 -68 51 -65 134 -65 129 0 282 34 407 90 58
26 121 46 216 70 100 24 132 37 125 49 -3 4 5 7 17 5 12 -2 68 -5 125 -8 109
-4 123 2 82 39 -11 10 -20 24 -20 31 0 18 -32 34 -66 34 -15 0 -37 8 -48 19
-35 32 -60 34 -97 6 -19 -13 -47 -33 -62 -44 -38 -25 -207 -59 -339 -67 l-107
-6 17 -26 17 -25 -28 18 c-38 25 -182 17 -252 -14 -26 -12 -50 -20 -52 -18 -6
7 43 45 72 56 l30 11 -35 -6 c-19 -3 -60 -15 -90 -25 -52 -18 -57 -18 -105 -3
-27 9 -71 27 -97 40 -26 13 -59 24 -73 24 -24 0 -25 1 -11 16 9 8 16 17 16 19
0 10 -57 -18 -80 -38 -14 -13 -36 -31 -50 -42 -21 -16 -20 -14 5 14 17 18 53
46 81 62 l51 29 -9 53 c-26 154 -163 309 -302 343 -21 5 -27 4 -22 -5 4 -6 15
-11 24 -11 31 0 140 -80 183 -133 48 -61 74 -116 87 -187 9 -48 8 -50 -13 -50
-13 0 -47 -16 -76 -36 -122 -82 -155 -84 -251 -20 -125 84 -114 81 -305 81
-138 0 -169 3 -161 13 14 16 2 28 -14 15 -20 -16 -127 -53 -182 -64 -78 -15
-164 21 -196 81 -9 16 -7 17 33 2 106 -40 310 -8 369 57 47 52 48 170 3 265
-27 56 -101 123 -160 145 -120 45 -350 65 -473 40z m204 -45 c-8 -32 6 -50 52
-70 27 -11 33 -17 24 -26 -9 -9 -29 -7 -84 6 -155 37 -179 39 -248 23 l-65
-15 30 24 c52 42 173 80 259 83 36 1 38 0 32 -25z m-1044 -173 c69 -22 107
-56 88 -75 -7 -7 -20 -4 -40 7 -69 41 -112 48 -390 62 -328 17 -318 16 -255
25 28 4 158 7 290 6 217 -2 246 -5 307 -25z"/>
<path d="M3703 1693 c-34 -24 -20 -92 37 -173 10 -14 37 -61 60 -105 50 -93
64 -111 105 -133 37 -19 129 -21 171 -4 66 28 83 121 39 222 -20 46 -21 56 -9
60 13 5 12 8 -3 22 -20 18 -94 41 -102 32 -3 -3 14 -24 39 -46 28 -25 35 -36
20 -28 -14 7 -52 38 -85 70 -45 43 -71 60 -105 68 -69 16 -154 24 -167 15z"/>
<path d="M4454 1294 c5 -10 13 -46 20 -78 10 -53 15 -62 51 -84 22 -14 64 -41
93 -60 50 -33 55 -34 81 -21 l28 14 -116 108 c-64 59 -127 115 -140 124 -24
16 -24 16 -17 -3z"/>
<path d="M5035 869 c-16 -5 -75 -12 -129 -16 -113 -7 -105 -17 29 -34 125 -17
196 -38 246 -75 52 -38 130 -74 161 -74 18 0 16 5 -15 38 -19 20 -49 53 -66
72 -22 25 -33 32 -39 23 -6 -10 -26 -1 -77 32 -37 25 -71 45 -74 44 -3 0 -19
-5 -36 -10z"/>
</g>
</svg>
