<?xml version="1.0" standalone="no"?>
<!DOCTYPE svg PUBLIC "-//W3C//DTD SVG 20010904//EN"
 "http://www.w3.org/TR/2001/REC-SVG-20010904/DTD/svg10.dtd">
<svg version="1.0" xmlns="http://www.w3.org/2000/svg"
 width="2048.000000pt" height="2048.000000pt" viewBox="0 0 2048.000000 2048.000000"
 preserveAspectRatio="xMidYMid meet">
<metadata>
Created by potrace 1.16, written by Peter Selinger 2001-2019
</metadata>
<g transform="translate(0.000000,2048.000000) scale(0.100000,-0.100000)"
fill="#000000" stroke="none">
<path d="M12495 15440 c-632 -57 -1200 -318 -1641 -755 -427 -423 -678 -927
-766 -1540 -8 -55 -13 -186 -13 -340 1 -249 11 -366 49 -526 l13 -56 -46 4
c-476 33 -811 80 -1207 168 -1571 352 -2992 1210 -4043 2443 -57 67 -108 122
-112 122 -13 0 -163 -311 -204 -424 -70 -190 -124 -436 -146 -665 -14 -144 -6
-467 16 -611 104 -693 469 -1304 1029 -1727 l99 -74 -64 6 c-401 38 -715 124
-1012 278 -45 23 -86 44 -91 46 -13 6 1 -307 19 -422 49 -310 142 -593 281
-853 346 -649 955 -1129 1667 -1313 l108 -28 -108 -23 c-322 -68 -674 -77
-970 -26 -43 8 -80 12 -82 10 -10 -9 69 -206 144 -359 134 -275 284 -485 500
-700 459 -459 1035 -721 1694 -771 l95 -7 -30 -24 c-70 -56 -269 -194 -389
-270 -724 -453 -1489 -710 -2360 -793 -280 -27 -763 -22 -1020 10 -38 5 -71 7
-73 5 -13 -13 393 -248 673 -390 1262 -638 2656 -900 4095 -770 1488 135 2798
652 3915 1544 1468 1173 2480 2969 2754 4888 51 355 63 517 68 951 l5 403 99
75 c357 270 718 630 993 989 116 151 219 296 213 301 -2 2 -35 -10 -73 -27
-203 -92 -521 -198 -808 -269 -181 -45 -524 -110 -578 -110 -14 0 4 16 53 48
138 91 264 195 400 331 194 195 320 361 448 587 84 150 213 456 198 470 -3 4
-45 -16 -94 -43 -321 -181 -635 -319 -983 -431 -149 -48 -411 -118 -533 -142
l-59 -12 -91 90 c-325 320 -751 555 -1207 666 -240 58 -594 86 -825 66z"/>
</g>
</svg>
