<?xml version="1.0" standalone="no"?>
<!DOCTYPE svg PUBLIC "-//W3C//DTD SVG 20010904//EN"
 "http://www.w3.org/TR/2001/REC-SVG-20010904/DTD/svg10.dtd">
<svg version="1.0" xmlns="http://www.w3.org/2000/svg"
 width="866.000000pt" height="650.000000pt" viewBox="0 0 866.000000 650.000000"
 preserveAspectRatio="xMidYMid meet">
<metadata>
Created by potrace 1.16, written by Peter Selinger 2001-2019
</metadata>
<g transform="translate(0.000000,650.000000) scale(0.100000,-0.100000)"
fill="#000000" stroke="none">
<path d="M2614 5565 c-299 -65 -536 -306 -598 -607 -14 -69 -16 -259 -16
-1703 0 -1441 2 -1635 16 -1703 33 -162 93 -270 220 -399 80 -80 103 -97 195
-141 183 -88 35 -82 1896 -82 1787 0 1708 -2 1843 55 220 92 377 269 452 505
l23 75 0 1695 0 1695 -27 80 c-46 134 -101 220 -202 320 -98 98 -185 151 -321
197 l-70 23 -1675 2 c-1370 1 -1686 -1 -1736 -12z m3456 -635 l0 -360 -352 0
c-226 0 -367 -4 -393 -11 -57 -16 -100 -64 -114 -127 -6 -31 -11 -149 -11
-282 l0 -230 434 0 435 0 -6 -32 c-2 -18 -28 -168 -57 -333 l-52 -300 -377 -3
-377 -2 0 -1015 0 -1015 -435 0 -435 0 0 1015 0 1015 -210 0 -210 0 0 335 0
335 209 0 209 0 5 338 c5 351 9 389 56 525 74 213 218 360 430 437 72 26 194
54 281 63 19 2 245 5 503 5 l467 2 0 -360z"/>
</g>
</svg>
