<?xml version="1.0" standalone="no"?>
<!DOCTYPE svg PUBLIC "-//W3C//DTD SVG 20010904//EN"
 "http://www.w3.org/TR/2001/REC-SVG-20010904/DTD/svg10.dtd">
<svg version="1.0" xmlns="http://www.w3.org/2000/svg"
 width="6250.000000pt" height="6250.000000pt" viewBox="0 0 6250.000000 6250.000000"
 preserveAspectRatio="xMidYMid meet">
<metadata>
Created by potrace 1.16, written by Peter Selinger 2001-2019
</metadata>
<g transform="translate(0.000000,6250.000000) scale(0.100000,-0.100000)"
fill="#000000" stroke="none">
<path d="M15600 56814 c-318 -29 -519 -93 -613 -193 -125 -134 -74 -313 156
-545 l98 -98 10 -122 c71 -916 258 -1575 519 -1836 97 -96 147 -116 385 -151
195 -28 275 -47 275 -66 0 -4 -9 -19 -20 -33 -43 -55 -14 -108 149 -270 220
-218 445 -326 607 -292 156 32 235 126 284 336 39 168 45 263 43 710 l-2 430
30 145 c16 80 55 292 85 470 30 179 56 326 58 328 10 10 18 -361 13 -630 -4
-209 -12 -357 -26 -482 -82 -717 -113 -1002 -123 -1151 -11 -157 -10 -176 6
-217 47 -123 239 -202 471 -195 97 3 117 6 169 32 48 24 62 36 77 72 45 101
125 715 219 1684 27 269 30 346 31 660 l1 355 19 -75 c90 -365 107 -506 116
-1010 6 -348 -4 -593 -38 -935 -37 -381 -68 -510 -154 -646 -76 -119 -95 -165
-95 -227 0 -122 102 -215 295 -268 94 -25 305 -30 401 -9 180 39 301 132 350
267 9 24 20 106 25 183 5 77 29 293 54 480 70 528 86 701 92 1006 7 310 -4
488 -42 694 -70 378 -219 651 -449 821 -32 24 -56 44 -53 44 15 0 151 -57 208
-86 126 -66 238 -205 344 -426 94 -197 151 -392 192 -655 27 -173 24 -717 -5
-963 -27 -223 -83 -570 -151 -933 -43 -231 -49 -275 -41 -314 23 -100 84 -173
185 -220 79 -36 230 -45 321 -18 133 38 252 132 308 243 l26 51 0 1094 0 1093
22 59 c30 83 37 263 13 355 -117 463 -736 850 -1775 1110 -567 142 -1317 259
-2090 326 -175 15 -871 28 -980 18z"/>
<path d="M31235 56403 c-304 -19 -984 -94 -1171 -128 -573 -106 -1026 -321
-1422 -677 -295 -264 -607 -705 -822 -1161 -116 -246 -182 -570 -211 -1037
-13 -208 -7 -822 11 -1065 13 -181 59 -651 67 -682 5 -21 1 -23 -29 -23 -19 0
-60 -7 -91 -15 -211 -55 -318 -214 -303 -450 16 -266 146 -655 289 -865 l44
-66 7 -119 c17 -308 86 -590 192 -785 52 -95 137 -202 198 -249 62 -48 52 -12
121 -434 54 -332 98 -541 166 -780 408 -1448 1305 -2317 2674 -2592 342 -69
632 -95 1059 -95 442 0 622 15 828 66 421 105 815 378 1154 800 489 609 933
1650 1038 2434 29 212 36 352 46 840 15 719 27 867 106 1233 100 465 138 766
131 1032 -4 193 -21 274 -71 357 -43 71 -100 102 -177 95 -31 -3 -70 -12 -88
-21 l-32 -17 6 33 c30 179 43 613 26 863 -60 847 -313 1535 -774 2110 -99 122
-336 360 -518 518 -636 553 -1155 805 -1793 872 -132 14 -503 18 -661 8z"/>
<path d="M14312 55773 c-827 -1160 -1417 -1939 -1644 -2173 -29 -30 -129 -125
-222 -210 -273 -252 -709 -720 -1042 -1120 -1181 -1419 -1911 -2828 -2099
-4047 -32 -210 -42 -326 -60 -713 -24 -513 -54 -1034 -80 -1428 -14 -200 -25
-405 -25 -456 0 -83 35 -474 43 -483 2 -1 75 2 163 8 326 21 702 -20 1139
-127 241 -59 391 -77 640 -78 163 0 249 4 333 17 259 41 449 124 498 219 9 17
20 77 25 133 21 240 127 465 267 565 92 66 144 80 338 90 286 15 519 60 701
135 48 20 95 39 105 42 28 9 48 -38 59 -138 14 -121 28 -149 76 -149 63 0 144
52 424 276 170 136 257 197 269 189 13 -8 37 28 59 88 21 57 79 282 100 388
11 52 16 59 84 115 463 380 881 916 1085 1394 147 343 211 667 199 1009 -6
178 -22 291 -67 466 -73 285 -243 623 -450 895 l-57 75 526 1330 c290 732 522
1331 516 1333 -5 1 -102 -38 -215 -87 -112 -50 -206 -89 -207 -87 -2 1 1 36 7
77 11 92 -1 187 -30 233 -69 112 -250 97 -517 -43 -53 -28 -97 -51 -99 -51 -1
0 41 57 94 128 166 220 269 390 287 470 5 23 2 40 -10 60 -10 15 -117 126
-239 247 -313 310 -477 519 -598 760 -62 123 -91 198 -126 329 -25 94 -27 114
-26 301 0 182 3 208 26 295 14 52 24 96 23 98 -2 2 -124 -167 -273 -375z m643
-5249 c36 -23 55 -84 55 -172 0 -99 -25 -207 -94 -413 -97 -290 -147 -547
-163 -834 -9 -174 -19 -136 -29 105 -8 192 15 686 41 873 3 20 1 37 -4 37 -11
0 -206 -217 -272 -302 -27 -35 -78 -124 -114 -197 -81 -164 -144 -259 -223
-334 -79 -74 -130 -96 -248 -108 -59 -5 -118 -18 -157 -33 l-62 -25 54 50 c72
67 157 124 255 169 142 66 175 113 381 534 78 160 168 333 199 384 77 124 161
213 238 252 68 34 107 38 143 14z m-5419 -2841 c61 -63 159 -205 220 -321 41
-77 93 -145 124 -162 10 -5 51 -14 92 -20 94 -13 191 -60 283 -138 148 -125
1149 -1197 1289 -1382 62 -80 64 -86 27 -64 -43 25 -162 130 -516 454 -627
573 -889 786 -1085 885 -149 75 -258 201 -365 419 -50 101 -145 351 -145 381
0 16 26 -2 76 -52z"/>
<path d="M45410 55989 c-791 -56 -1492 -141 -1920 -234 -98 -21 -197 -35 -270
-39 -220 -11 -459 -50 -664 -108 -373 -104 -612 -280 -676 -497 -42 -142 -45
-227 -42 -994 2 -413 -2 -830 -8 -963 -11 -251 -7 -314 31 -434 53 -171 167
-333 275 -392 91 -49 198 -56 275 -17 180 90 263 461 244 1090 -4 138 0 498
10 925 l17 699 28 60 c37 81 110 176 179 232 60 49 194 118 251 128 l35 6 -47
-28 c-172 -103 -296 -296 -332 -520 -8 -48 -17 -189 -21 -313 -3 -124 -15
-418 -26 -655 -27 -551 -29 -1133 -6 -1320 17 -137 44 -239 76 -291 37 -60
209 -102 309 -74 91 24 165 133 203 298 18 77 22 139 29 542 11 605 27 740
113 960 l41 105 7 415 c7 417 12 482 49 603 18 57 75 155 85 145 3 -2 -3 -60
-11 -129 -18 -140 -24 -464 -10 -609 11 -123 -2 -234 -64 -555 -52 -266 -69
-436 -90 -870 -19 -406 -9 -658 30 -734 25 -50 125 -140 199 -180 63 -33 157
-61 208 -61 111 0 226 63 297 163 71 101 77 118 66 179 -47 247 -75 733 -51
888 7 41 27 124 47 183 44 138 53 242 41 501 -8 169 -3 415 8 404 12 -12 47
-259 57 -400 15 -205 2 -393 -41 -620 -74 -384 -54 -669 56 -828 47 -67 122
-110 192 -110 119 0 402 65 696 160 183 59 282 107 326 158 29 32 31 40 27 91
-10 112 -80 233 -143 246 -14 3 -37 7 -51 10 -49 11 -106 95 -138 205 -16 56
-24 136 -14 146 7 6 9 6 183 -2 128 -6 145 -4 200 15 112 40 114 41 130 25 8
-9 15 -21 15 -28 0 -27 -34 -125 -66 -188 -19 -37 -34 -75 -34 -85 0 -31 47
-119 85 -162 75 -82 163 -111 277 -91 71 13 273 92 391 153 242 124 353 294
419 642 20 105 22 152 23 380 0 211 -4 279 -19 360 -67 364 -193 559 -396 611
-85 22 -229 15 -405 -20 -179 -34 -234 -40 -282 -27 -76 21 -125 78 -163 190
-33 100 -28 154 35 336 65 189 70 238 28 285 -28 30 -100 52 -162 49 -14 -1
-78 -6 -141 -10z"/>
<path d="M45955 55947 c-125 -42 -176 -106 -215 -269 -72 -302 21 -359 565
-344 194 5 255 4 319 -8 284 -55 487 -296 565 -668 10 -51 33 -142 50 -202 49
-174 64 -275 64 -431 -1 -342 -129 -591 -405 -788 -143 -101 -377 -200 -546
-229 -39 -6 -72 -15 -72 -20 0 -4 37 -65 83 -135 254 -390 525 -862 716 -1243
280 -561 395 -894 409 -1181 l7 -137 114 -81 c241 -173 457 -359 682 -587 351
-358 555 -681 629 -999 28 -116 39 -279 45 -630 7 -376 19 -521 51 -632 42
-146 94 -233 213 -357 131 -135 124 -130 1113 -781 218 -143 304 -212 314
-250 23 -93 -156 -192 -469 -260 -141 -31 -210 -62 -280 -125 -104 -93 -166
-222 -233 -486 -24 -94 -53 -192 -64 -216 -25 -58 -36 -113 -55 -277 -14 -128
-35 -199 -59 -203 -6 -1 -119 -2 -251 -2 -224 -1 -243 -2 -287 -23 -70 -32
-84 -72 -49 -142 57 -110 216 -252 366 -326 135 -66 233 -89 390 -89 127 0
134 1 300 49 l170 50 230 0 c127 0 339 -9 472 -19 306 -23 318 -21 553 83 456
203 874 351 1096 386 103 17 147 15 911 -31 l433 -26 73 35 74 34 22 104 c67
317 92 562 98 990 6 359 -1 498 -37 834 -147 1341 -625 2639 -1401 3805 -447
672 -1013 1317 -1502 1712 -620 501 -1824 1608 -2391 2197 -363 376 -508 554
-652 798 -228 386 -393 605 -513 682 -27 17 -86 44 -132 60 -46 16 -174 62
-284 104 -267 100 -438 154 -527 168 -40 6 -131 27 -203 47 -221 59 -237 62
-350 67 -77 4 -122 1 -150 -8z m997 -3524 c899 -1207 1460 -2042 1538 -2286
17 -53 2 -66 -38 -32 -146 123 -743 1018 -1554 2330 -187 302 -170 275 -164
275 2 0 101 -129 218 -287z m568 68 c160 -121 384 -378 735 -846 445 -595 717
-988 812 -1173 77 -150 68 -176 -36 -106 -223 150 -592 638 -1566 2068 l-108
159 49 -27 c27 -14 78 -48 114 -75z m1059 -707 c18 -12 79 -63 135 -113 l102
-90 11 -67 c21 -121 129 -234 280 -294 51 -21 89 -53 323 -285 l265 -261 91
-33 c314 -111 551 -289 668 -502 77 -141 104 -261 115 -514 6 -123 13 -194 24
-223 30 -79 97 -196 167 -292 115 -158 152 -214 141 -218 -6 -2 -47 16 -92 39
-233 121 -337 322 -414 799 -62 382 -83 461 -142 529 -57 67 -126 105 -353
196 -115 46 -241 102 -280 125 -92 54 -176 137 -228 227 -74 126 -110 156
-217 182 -158 39 -316 196 -515 513 -126 202 -180 328 -132 311 9 -4 32 -17
51 -29z"/>
<path d="M17925 52873 c-27 -6 -329 -104 -333 -108 -7 -7 69 -145 113 -204 77
-104 171 -188 364 -324 231 -164 278 -192 376 -224 71 -24 95 -27 220 -27 131
0 146 2 235 32 52 18 129 51 172 74 146 82 467 273 468 279 0 3 -93 9 -207 12
-310 9 -553 51 -761 133 -143 56 -217 106 -337 229 -86 88 -119 115 -150 124
-40 11 -121 13 -160 4z"/>
<path d="M47460 49813 c-135 -206 -286 -536 -363 -793 -90 -299 -127 -534
-134 -857 -10 -418 35 -727 162 -1122 l45 -137 487 -241 c540 -267 826 -403
849 -403 8 0 -47 31 -123 69 -491 247 -889 635 -1103 1076 -284 583 -275 1237
27 2005 25 63 87 202 139 308 51 105 89 192 85 192 -4 0 -36 -44 -71 -97z"/>
<path d="M47699 49663 c-64 -73 -192 -280 -264 -428 -250 -509 -296 -1034
-134 -1530 81 -248 274 -586 382 -670 142 -108 362 -266 523 -373 640 -427
1140 -651 1496 -669 132 -7 214 5 294 43 55 26 147 101 142 115 -2 5 -66 31
-143 57 -679 235 -1174 597 -1300 952 -46 129 -47 143 -55 545 -8 402 -18 524
-61 722 -90 416 -284 762 -595 1063 -100 97 -232 210 -245 210 -4 0 -22 -17
-40 -37z"/>
<path d="M17500 47270 c-233 -29 -447 -90 -643 -183 -148 -70 -255 -134 -502
-298 -334 -221 -467 -296 -665 -374 -533 -209 -751 -332 -796 -451 -16 -42
-16 -61 -5 -232 18 -293 50 -416 171 -659 177 -357 385 -628 655 -854 412
-345 1067 -736 1636 -977 237 -100 316 -123 459 -134 274 -19 562 -88 898
-214 230 -87 274 -95 519 -101 224 -6 348 3 553 38 180 31 879 197 935 223
262 119 311 513 146 1159 -62 239 -210 667 -231 667 -18 0 -160 173 -238 288
-44 65 -155 243 -247 397 -343 572 -526 826 -775 1075 -437 436 -902 623
-1575 635 -121 2 -254 0 -295 -5z"/>
<path d="M28337 46795 c6 -583 -4 -843 -36 -926 -60 -159 -269 -370 -571 -580
-197 -137 -494 -312 -712 -420 -60 -30 -108 -57 -108 -61 0 -15 95 -77 200
-132 212 -110 774 -307 800 -280 4 5 49 122 100 259 60 167 122 313 185 440
189 380 270 710 282 1150 10 348 -36 709 -122 970 l-23 70 5 -490z"/>
<path d="M45547 47079 c-246 -21 -513 -108 -685 -223 -43 -28 -122 -103 -217
-204 -83 -88 -345 -358 -584 -601 -238 -242 -430 -441 -427 -441 4 0 77 53
164 118 486 366 887 629 1153 757 173 82 512 179 776 221 135 21 462 30 604
15 151 -15 305 -44 497 -91 326 -80 561 -111 690 -91 78 12 124 29 119 44 -1
5 -75 30 -162 54 -216 59 -535 157 -855 260 -441 143 -521 163 -730 182 -127
12 -211 12 -343 0z"/>
<path d="M15074 46926 c-181 -29 -349 -102 -442 -189 -77 -73 -96 -115 -97
-207 0 -80 26 -170 49 -170 7 0 94 27 192 59 248 83 321 101 456 111 241 19
398 108 398 227 0 67 -71 128 -185 158 -83 22 -271 28 -371 11z"/>
<path d="M34786 46915 c-3 -9 -6 -50 -6 -91 0 -257 -154 -556 -393 -764 -42
-37 -120 -117 -172 -178 -419 -487 -973 -793 -1605 -886 -865 -127 -1940 144
-3075 777 -294 164 -585 347 -825 521 l-105 76 -13 -143 c-32 -365 -103 -835
-168 -1114 -83 -357 -171 -578 -285 -709 -33 -39 -40 -52 -37 -83 3 -30 9 -39
44 -58 61 -34 169 -59 427 -98 727 -110 891 -140 1188 -216 432 -110 810 -267
1096 -454 151 -99 230 -163 374 -301 102 -98 129 -117 220 -162 150 -74 205
-86 379 -86 129 0 155 3 235 28 124 38 212 84 415 218 671 443 1861 1017 2094
1009 28 -1 65 -3 82 -3 58 -3 116 65 169 197 24 59 30 88 33 180 5 156 -53
2343 -63 2353 -1 2 -5 -4 -9 -13z"/>
<path d="M46083 46519 c-230 -16 -448 -68 -700 -165 -305 -117 -531 -232
-1164 -593 -222 -126 -431 -244 -464 -263 -174 -96 -373 -379 -521 -738 -64
-157 -135 -364 -124 -368 16 -6 514 351 730 523 63 50 237 203 385 339 149
137 326 293 395 349 382 308 715 455 1190 526 244 36 398 44 762 38 344 -6
473 -15 878 -63 458 -54 655 -121 1300 -443 422 -210 500 -239 500 -184 0 43
-258 265 -630 543 -242 181 -425 262 -803 355 -503 123 -1208 182 -1734 144z"/>
<path d="M40680 46359 c-814 -39 -1652 -337 -2455 -873 -369 -246 -660 -483
-1005 -821 -317 -310 -439 -405 -655 -513 -417 -209 -828 -287 -1805 -342
-735 -41 -896 -74 -1153 -234 -110 -69 -376 -193 -632 -296 -126 -50 -271
-112 -322 -136 -87 -43 -95 -49 -170 -143 -43 -54 -145 -174 -228 -265 -270
-301 -285 -326 -293 -511 -5 -132 11 -221 64 -357 72 -186 97 -258 180 -528
194 -625 202 -679 160 -1065 -48 -434 -45 -728 9 -987 24 -113 100 -499 176
-888 105 -541 199 -831 306 -950 36 -41 54 -52 115 -70 225 -68 821 -441 1383
-865 617 -466 1108 -698 1600 -756 137 -16 392 -6 518 21 231 49 467 154 712
318 183 123 745 570 873 696 180 176 294 336 537 755 482 833 771 1216 1482
1970 497 526 801 988 952 1447 73 219 93 334 99 550 5 216 -10 333 -64 493
-42 127 -79 196 -183 344 -123 176 -185 274 -239 382 -59 118 -82 190 -82 258
0 63 23 102 78 129 41 19 54 20 186 14 208 -11 366 16 592 100 125 46 386 171
529 254 286 164 616 400 761 545 80 80 97 102 142 196 71 149 168 380 287 689
193 500 229 601 219 617 -13 21 -271 184 -439 278 -490 274 -1026 454 -1549
520 -106 13 -484 37 -521 33 -5 -1 -80 -4 -165 -9z"/>
<path d="M22119 46330 c-601 -28 -1100 -166 -1448 -401 -51 -35 -112 -76 -134
-91 -62 -42 -94 -77 -118 -127 -18 -39 -21 -59 -17 -136 3 -82 8 -100 44 -176
80 -165 234 -340 509 -576 341 -293 597 -592 1048 -1228 121 -170 267 -375
325 -455 290 -400 517 -639 708 -746 47 -26 64 -41 59 -52 -15 -39 -56 -272
-71 -402 -20 -181 -15 -568 11 -730 54 -347 180 -681 354 -940 71 -106 93
-133 272 -341 447 -521 867 -1111 1419 -1993 353 -563 385 -609 496 -716 257
-247 484 -446 744 -655 655 -525 1234 -854 1732 -985 l108 -28 342 64 c189 35
469 89 623 119 154 30 368 68 475 84 255 40 293 47 431 82 425 106 701 280
960 606 34 43 121 166 192 273 161 241 237 340 323 419 154 141 316 220 624
305 125 35 211 116 247 235 21 69 23 251 4 361 -21 126 -86 363 -171 630 -164
508 -205 663 -236 870 -25 173 -16 283 34 440 57 174 73 269 79 460 11 342
-49 686 -218 1257 l-60 203 6 97 c16 230 -76 418 -316 648 -449 431 -1403 911
-2344 1180 -153 44 -306 78 -646 144 -674 133 -1644 538 -2217 928 -178 120
-248 178 -422 349 -216 211 -384 317 -750 472 -887 376 -2074 594 -3001 552z"/>
<path d="M46545 45973 c-336 -15 -694 -72 -1008 -159 -161 -44 -453 -144 -566
-193 -245 -106 -616 -388 -1641 -1252 -837 -704 -1171 -977 -1484 -1213 -318
-239 -568 -391 -693 -419 -54 -13 -34 -14 272 -21 1189 -24 2112 -111 2630
-247 415 -108 530 -124 880 -116 320 7 553 39 960 133 83 19 197 46 255 59 58
13 148 29 199 35 174 20 428 117 822 316 488 246 893 521 1062 719 286 334
526 799 583 1125 25 145 16 349 -20 455 -83 244 -266 415 -575 536 -119 47
-425 127 -628 164 -350 65 -729 93 -1048 78z"/>
<path d="M14305 45855 c-360 -56 -704 -227 -1297 -643 -486 -342 -655 -445
-825 -503 -92 -31 -108 -33 -261 -37 -187 -5 -293 2 -937 63 -731 68 -756 70
-1120 70 -310 0 -349 -2 -437 -22 -224 -49 -293 -140 -218 -289 66 -131 288
-384 709 -805 381 -381 645 -626 1098 -1018 l142 -123 197 -49 c303 -76 631
-134 974 -173 654 -75 1545 -72 2155 8 l101 13 99 74 c366 272 815 430 1223
429 146 0 226 -14 308 -51 182 -82 565 -230 804 -309 509 -170 872 -243 1200
-244 223 0 347 31 428 107 92 88 45 240 -96 311 -109 54 -245 88 -612 151
-622 107 -918 183 -1208 313 -237 106 -393 215 -610 426 -227 219 -384 329
-687 478 -292 144 -554 236 -1136 402 -461 131 -552 164 -624 227 -29 26 -35
38 -35 73 0 134 186 374 636 824 l313 312 -102 -1 c-56 -1 -138 -7 -182 -14z"/>
<path d="M34884 45409 c34 -268 132 -645 248 -949 l25 -65 -278 -180 c-253
-164 -275 -181 -251 -188 34 -9 341 8 499 29 277 35 600 96 958 180 198 46
563 142 579 152 5 3 -15 11 -45 18 -180 45 -765 394 -1457 871 -140 96 -260
177 -269 180 -13 5 -14 -2 -9 -48z"/>
<path d="M52810 44213 c-112 -6 -312 -35 -408 -58 -139 -34 -219 -66 -346
-140 -381 -220 -841 -378 -1216 -416 -133 -13 -222 -6 -335 24 -72 20 -104 22
-310 21 -314 0 -614 -41 -951 -129 -172 -45 -193 -54 -499 -205 -143 -71 -366
-176 -495 -233 -607 -270 -1044 -492 -1302 -663 -92 -61 -157 -114 -230 -188
-119 -119 -212 -183 -413 -284 -197 -98 -441 -193 -795 -310 -168 -55 -352
-121 -410 -146 -175 -78 -490 -250 -490 -267 0 -4 17 -10 37 -14 99 -18 183
-88 183 -151 0 -70 -47 -130 -180 -230 -97 -73 -110 -90 -110 -141 0 -39 5
-49 49 -93 89 -89 256 -156 836 -334 436 -134 581 -185 724 -251 251 -116 504
-202 831 -285 470 -118 813 -156 1018 -114 264 54 697 239 1192 510 486 265
760 454 1425 979 493 389 555 435 750 567 304 204 476 294 665 345 71 19 242
24 321 10 l46 -9 153 179 c683 798 1142 1487 1256 1883 14 50 24 93 22 95 -6
7 -288 35 -453 45 -147 9 -432 11 -565 3z"/>
<path d="M21220 44026 c0 -8 16 -93 35 -188 180 -896 94 -1714 -255 -2423
-138 -280 -292 -503 -485 -703 -109 -113 -118 -125 -101 -137 27 -20 354 -148
521 -203 492 -164 1046 -289 1494 -338 199 -21 455 -16 519 11 67 28 79 68 37
126 -70 97 -104 204 -125 394 -6 55 -15 366 -20 690 -9 613 -16 713 -60 901
-52 220 -110 316 -269 441 -265 210 -713 702 -1145 1256 -80 103 -146 181
-146 173z"/>
<path d="M20809 42822 c-15 -9 -50 -36 -79 -60 -109 -89 -264 -157 -491 -216
-134 -35 -231 -55 -603 -121 -122 -22 -222 -45 -260 -61 -225 -96 -656 -203
-1166 -290 -113 -19 -250 -38 -305 -41 -221 -12 -418 54 -1020 347 -321 156
-441 207 -510 219 -266 44 -601 -2 -1045 -145 -349 -111 -750 -294 -750 -341
0 -12 15 -13 83 -7 102 8 152 -5 288 -74 237 -121 506 -322 1364 -1022 674
-550 1052 -809 1305 -894 196 -65 682 -96 978 -62 390 45 709 183 894 385 27
30 83 105 123 166 179 272 337 338 489 205 l37 -33 61 59 c399 391 708 1049
760 1620 26 284 -40 442 -153 366z"/>
<path d="M41635 42549 c-87 -9 -315 -48 -315 -55 0 -1 20 -81 44 -176 234
-911 234 -1583 0 -1823 -25 -26 -44 -49 -42 -50 10 -11 548 101 868 180 1121
278 2048 671 2578 1094 142 113 209 178 197 189 -12 12 -341 120 -616 202
-1134 339 -2107 496 -2714 439z"/>
<path d="M11495 42098 c73 -54 191 -205 402 -514 301 -441 940 -1128 1487
-1598 899 -771 1843 -1300 2811 -1575 94 -27 206 -56 250 -65 182 -36 489 -67
853 -87 286 -15 1076 -6 1312 15 254 23 553 62 636 82 21 5 21 11 27 272 3
147 13 323 22 390 49 395 142 632 274 702 51 27 25 24 -90 -10 -127 -37 -355
-84 -529 -107 -190 -25 -716 -25 -905 0 -435 59 -793 171 -1092 343 -183 106
-259 167 -458 373 -324 334 -725 732 -830 822 -653 564 -1203 847 -1845 951
-132 22 -158 22 -1245 25 l-1110 3 30 -22z"/>
<path d="M51944 41846 c-384 -190 -781 -511 -1330 -1075 -209 -214 -334 -328
-499 -452 -389 -294 -796 -504 -1355 -699 -129 -45 -255 -94 -280 -110 -25
-16 -151 -65 -280 -108 -368 -124 -454 -165 -551 -263 -60 -61 -93 -81 -204
-122 -436 -163 -1369 -300 -1930 -284 -272 8 -420 34 -545 97 -97 48 -159 64
-250 65 -77 0 -92 -3 -154 -34 -147 -72 -269 -250 -335 -488 l-20 -73 22 -5
c85 -19 899 -114 1227 -142 299 -26 1037 -26 1270 0 546 61 992 183 1412 386
384 186 1032 573 1467 877 554 388 982 745 1442 1204 342 342 549 577 781 890
87 118 268 384 268 394 0 15 -35 2 -156 -58z"/>
<path d="M44295 40966 c-109 -29 -201 -64 -453 -172 -312 -135 -664 -249
-1092 -353 -388 -94 -769 -163 -1001 -181 -186 -14 -344 -82 -456 -197 -131
-133 -70 -241 148 -263 265 -26 680 72 1409 336 93 33 118 38 220 42 200 7
380 -42 818 -222 296 -122 359 -143 484 -161 129 -18 205 -44 548 -188 580
-242 907 -342 1290 -393 260 -35 600 -16 873 47 100 24 150 56 128 82 -19 24
-116 53 -359 107 -259 57 -353 88 -396 128 -43 41 -98 73 -187 110 -156 64
-567 157 -844 191 -223 27 -301 49 -453 126 -70 35 -212 94 -317 131 -220 77
-409 156 -492 205 -83 49 -160 128 -168 172 -9 49 10 102 48 131 62 47 380
246 443 277 63 31 79 51 48 63 -34 13 -153 4 -239 -18z"/>
<path d="M20450 40313 c-254 -33 -436 -159 -601 -411 -230 -353 -392 -795
-465 -1272 -22 -141 -31 -794 -14 -1040 84 -1255 507 -2642 1190 -3905 477
-883 1033 -1664 1770 -2485 1192 -1329 1917 -2179 2133 -2502 39 -59 72 -106
73 -105 1 1 -6 121 -16 267 -56 826 -61 1452 -15 1727 19 110 78 234 251 531
161 274 166 284 175 409 14 172 82 401 149 498 41 59 53 61 99 15 22 -22 45
-40 51 -40 31 0 73 41 135 132 39 58 81 108 100 119 39 23 50 57 66 194 13
117 6 322 -16 447 -35 203 -87 297 -198 360 -91 51 -163 113 -250 217 -268
320 -470 748 -557 1178 -43 219 -53 343 -47 591 6 236 17 315 96 672 122 559
168 942 158 1310 -12 407 -82 700 -251 1045 -171 347 -429 684 -808 1050 -263
256 -461 409 -643 500 -167 83 -242 96 -425 73 -85 -10 -101 -9 -145 6 -75 27
-287 32 -536 12 -149 -12 -219 -14 -251 -7 -25 6 -117 52 -204 102 -279 161
-499 256 -687 293 -81 17 -257 27 -317 19z"/>
<path d="M43150 39999 c-147 -10 -308 -49 -448 -108 -65 -28 -175 -64 -243
-81 -241 -59 -594 -96 -809 -85 -104 6 -118 5 -147 -14 -93 -59 -156 -294
-170 -636 l-6 -160 -14 80 c-49 293 -148 477 -295 549 -152 74 -365 23 -603
-146 -183 -129 -312 -285 -507 -613 -347 -583 -548 -1114 -548 -1441 1 -139 9
-173 76 -318 171 -363 340 -1084 406 -1726 17 -171 17 -715 0 -840 -43 -297
-108 -492 -217 -645 -54 -75 -87 -106 -205 -190 -193 -138 -293 -243 -363
-384 -38 -77 -42 -90 -45 -181 -5 -118 10 -179 74 -297 24 -46 44 -89 44 -98
0 -8 46 -55 103 -105 185 -164 242 -262 235 -400 -5 -84 -31 -152 -98 -255
-49 -75 -70 -134 -70 -195 0 -123 114 -181 357 -184 l123 -1 0 -27 c0 -60
-130 -383 -272 -677 -83 -170 -104 -248 -120 -433 -19 -227 14 -619 82 -948
21 -101 26 -118 34 -109 34 40 758 922 1042 1269 1221 1494 1980 2455 2172
2749 480 733 972 2380 1119 3741 12 120 17 249 18 475 0 282 -2 323 -24 455
-30 178 -33 338 -9 392 18 41 45 57 139 82 140 39 193 175 205 531 7 204 -7
330 -51 462 -122 366 -463 547 -965 512z"/>
<path d="M38885 37269 c-420 -456 -646 -739 -745 -932 -70 -137 -69 -157 14
-267 119 -159 192 -209 307 -210 109 0 219 42 365 141 140 94 231 226 275 401
30 118 37 387 15 553 -22 159 -90 446 -105 444 -3 0 -60 -59 -126 -130z"/>
<path d="M32223 37075 c-145 -33 -332 -129 -477 -244 -125 -100 -297 -293
-586 -661 -241 -307 -272 -342 -495 -570 -220 -225 -270 -292 -302 -399 -34
-117 3 -235 104 -334 74 -72 83 -78 238 -175 234 -145 379 -282 448 -421 32
-65 32 -67 31 -211 -2 -329 -101 -614 -275 -791 -141 -144 -271 -194 -583
-229 -223 -24 -419 -84 -642 -194 -272 -135 -470 -282 -739 -549 -189 -188
-199 -196 -388 -303 -219 -126 -325 -200 -427 -303 -107 -108 -157 -187 -197
-306 -23 -71 -26 -95 -26 -215 0 -106 5 -152 21 -213 59 -217 198 -353 422
-414 101 -28 387 -25 540 5 229 46 449 115 730 232 195 80 312 120 470 160
337 86 737 111 1038 65 139 -21 187 -37 237 -84 52 -47 123 -85 202 -107 88
-23 283 -21 412 6 116 24 276 72 336 102 389 195 541 951 439 2178 -36 434 7
938 121 1425 42 178 53 289 36 376 -16 80 -45 137 -138 272 -129 186 -203 378
-207 534 -2 113 52 131 164 55 64 -44 101 -106 200 -339 132 -308 208 -593
217 -815 7 -163 -5 -240 -73 -448 -76 -235 -94 -317 -101 -460 -7 -156 4 -247
67 -560 76 -378 80 -419 80 -903 0 -444 10 -651 36 -780 70 -349 273 -620 566
-756 109 -52 183 -71 298 -78 122 -7 194 11 309 77 115 66 228 114 347 147 85
23 119 27 234 28 114 0 147 -4 210 -23 155 -48 185 -72 445 -344 156 -164 385
-262 672 -290 384 -37 723 99 868 347 211 359 -100 1339 -720 2270 -73 110
-176 254 -229 320 -255 319 -326 429 -326 502 0 51 41 83 162 128 202 75 297
134 405 249 127 136 190 295 180 451 -13 182 -104 343 -300 531 -232 223 -559
423 -1037 634 -340 150 -648 324 -1020 579 -489 334 -571 389 -704 469 -169
101 -443 237 -581 287 -55 21 -152 51 -215 67 -99 26 -137 31 -275 34 -113 2
-178 -1 -222 -11z"/>
<path d="M25410 36867 c-268 -111 -503 -442 -645 -911 -60 -201 -165 -612
-181 -713 -22 -143 -16 -296 16 -373 12 -30 42 -161 66 -290 53 -275 80 -388
129 -530 114 -327 291 -525 521 -584 80 -21 242 -21 342 0 156 32 418 127 552
201 275 152 424 336 436 538 2 39 7 100 10 136 8 84 -12 157 -64 224 -147 193
-542 325 -1028 343 -204 8 -219 13 -255 83 -80 158 30 623 275 1164 102 223
128 312 129 435 2 238 -122 352 -303 277z"/>
<path d="M26004 36039 c-64 -15 -144 -68 -181 -123 -18 -26 -43 -80 -56 -120
-20 -63 -22 -91 -21 -256 1 -281 40 -485 106 -550 25 -26 37 -30 84 -30 32 0
91 12 146 30 151 48 216 60 329 60 185 0 328 -47 559 -185 245 -146 489 -249
685 -290 47 -10 159 -20 271 -25 173 -6 195 -9 245 -32 68 -31 171 -132 601
-588 341 -363 464 -485 518 -517 48 -29 146 -60 254 -80 110 -20 430 -23 551
-5 344 52 564 166 656 342 21 39 24 59 24 155 0 105 -2 114 -34 179 -60 122
-159 206 -426 363 -154 91 -222 142 -257 194 -35 52 -35 82 -2 162 96 232 98
321 8 395 -153 126 -593 150 -1389 75 -325 -30 -732 -37 -920 -15 -533 63
-888 244 -1039 532 -19 36 -40 87 -47 114 l-12 49 -111 53 c-224 107 -403 144
-542 113z"/>
<path d="M37475 35870 c-132 -52 -271 -200 -373 -399 -69 -134 -107 -240 -161
-459 -41 -164 -114 -522 -108 -528 2 -2 24 -7 49 -10 107 -15 221 53 278 167
16 31 50 75 76 98 112 99 458 230 889 337 127 31 248 57 270 56 55 -1 256 -47
383 -88 114 -37 258 -102 336 -152 60 -38 123 -43 173 -12 72 43 137 187 169
371 21 123 15 368 -11 449 -25 81 -82 134 -160 150 -80 17 -154 9 -420 -45
-353 -71 -416 -70 -829 21 -319 69 -465 81 -561 44z"/>
<path d="M38317 34876 c-27 -8 -61 -25 -75 -40 l-27 -26 1 -318 c0 -293 2
-323 22 -396 42 -151 87 -201 178 -200 69 0 83 11 208 155 210 242 360 468
385 582 13 54 0 97 -40 134 -40 37 -153 83 -251 104 -110 22 -326 25 -401 5z"/>
<path d="M37645 34476 c-135 -43 -233 -140 -276 -275 -18 -55 -21 -86 -19
-186 9 -337 5 -425 -24 -520 -68 -227 -233 -471 -392 -581 -87 -60 -125 -164
-91 -246 23 -56 54 -71 136 -66 63 3 85 12 297 115 126 62 250 117 276 124 66
16 110 5 164 -41 75 -65 144 -51 244 50 98 97 150 227 150 370 0 130 -34 223
-144 392 -87 135 -132 235 -120 271 5 16 12 18 40 14 32 -5 34 -4 53 48 11 30
29 89 40 132 56 225 25 353 -95 395 -58 20 -181 22 -239 4z"/>
<path d="M27337 34420 c-69 -18 -134 -58 -216 -136 -115 -108 -140 -147 -175
-274 -31 -113 -106 -165 -416 -290 -257 -103 -321 -140 -431 -244 -53 -50
-138 -129 -189 -176 -111 -101 -170 -176 -220 -285 -58 -122 -74 -210 -67
-374 3 -80 13 -175 25 -231 46 -213 39 -360 -23 -487 -45 -91 -105 -146 -234
-212 -90 -46 -104 -57 -149 -118 -171 -233 -317 -545 -381 -820 -52 -222 -66
-513 -36 -738 67 -496 22 -1160 -130 -1922 -63 -312 -76 -483 -82 -1073 -10
-946 47 -1649 173 -2129 87 -333 209 -554 429 -777 169 -171 272 -248 1020
-764 988 -682 1374 -978 1755 -1345 398 -385 1081 -935 1534 -1237 187 -124
413 -245 479 -255 l39 -6 -112 149 c-508 675 -1016 1606 -1345 2462 -170 444
-275 793 -455 1516 -139 556 -227 967 -295 1376 -19 118 -44 246 -56 285 -60
199 -231 453 -518 768 -14 16 28 -9 93 -56 136 -97 248 -157 295 -157 41 0 51
26 51 130 0 252 -146 616 -367 911 -45 60 -80 109 -78 109 2 0 49 -35 104 -77
113 -89 193 -139 250 -159 58 -20 71 -11 71 47 0 41 -10 69 -58 162 -162 310
-373 623 -596 885 -192 224 -387 414 -680 662 -220 185 -356 350 -495 597 -43
77 -151 312 -151 329 0 3 40 -43 88 -103 304 -372 628 -686 880 -855 238 -158
388 -311 687 -697 181 -235 214 -263 200 -175 -7 50 -82 326 -114 420 -11 33
-61 148 -112 255 -116 246 -162 380 -161 469 1 111 60 300 99 314 38 15 78
-62 202 -392 124 -330 164 -429 210 -521 150 -298 195 -106 105 448 -118 733
-377 1383 -669 1677 -44 45 -109 100 -145 123 -86 54 -90 58 -90 86 0 99 243
-124 482 -442 256 -341 456 -735 539 -1062 16 -64 29 -124 29 -133 0 -22 57
-88 76 -88 33 0 43 96 24 220 -28 174 -150 469 -389 935 -227 444 -436 792
-551 920 -63 68 -69 88 -32 93 55 8 174 -97 247 -220 51 -84 84 -128 97 -128
34 0 -45 291 -127 463 l-34 72 41 -45 c22 -25 90 -107 151 -182 60 -76 114
-138 119 -138 18 0 -7 98 -118 474 -4 12 29 -13 77 -60 114 -110 134 -124 180
-124 32 0 41 5 54 30 30 59 16 240 -35 438 -23 90 -20 122 11 122 47 0 152
-63 286 -172 39 -32 76 -58 82 -58 16 0 -2 41 -79 175 -38 66 -89 163 -114
215 -48 100 -86 223 -72 237 8 9 65 -50 203 -208 99 -116 187 -183 252 -194
82 -14 81 11 -8 190 -50 100 -75 162 -86 218 -25 125 1 163 63 93 33 -38 56
-99 72 -196 17 -98 29 -132 48 -128 28 5 51 69 63 175 18 165 -3 282 -67 370
-15 21 -14 24 10 48 51 51 176 22 269 -64 75 -70 107 -52 115 62 12 193 -86
473 -199 572 -45 40 -502 271 -651 329 -175 69 -293 97 -423 102 -60 2 -127
-1 -148 -6z"/>
<path d="M38757 32978 c-8 -18 -27 -62 -42 -98 -57 -137 -182 -369 -259 -485
-51 -76 -114 -154 -172 -212 -82 -82 -104 -98 -201 -144 -87 -42 -121 -65
-174 -118 -171 -171 -408 -634 -562 -1102 -52 -155 -83 -289 -73 -314 5 -15
13 -11 51 24 81 74 200 111 367 111 96 0 148 -10 148 -30 0 -17 -71 -47 -190
-79 -63 -18 -139 -46 -169 -64 -100 -60 -173 -169 -208 -312 -21 -86 -24 -332
-5 -415 22 -97 33 -130 41 -130 5 0 11 33 13 74 4 53 13 90 31 129 31 62 129
160 202 202 28 15 81 48 120 72 96 60 136 71 181 50 43 -21 73 -82 74 -148 0
-73 -38 -135 -150 -241 -121 -115 -125 -126 -145 -399 -10 -142 -20 -210 -35
-254 -55 -157 -100 -386 -81 -414 24 -36 72 25 198 252 92 165 169 277 215
310 55 41 96 -1 112 -115 6 -42 3 -55 -34 -129 -60 -118 -112 -239 -155 -358
-20 -57 -92 -215 -160 -352 -133 -268 -168 -357 -163 -416 l3 -38 52 2 c29 1
66 9 83 18 29 15 30 15 30 -9 0 -27 -32 -70 -209 -280 -197 -233 -323 -415
-474 -686 -160 -286 -254 -570 -302 -921 -19 -133 -30 -517 -18 -604 l8 -59
38 104 c115 312 427 850 493 850 17 0 28 -42 20 -72 -6 -26 -40 -82 -134 -220
-194 -285 -474 -1031 -666 -1773 -30 -116 -71 -256 -91 -310 -141 -377 -585
-1430 -1247 -2958 -159 -368 -288 -672 -286 -677 4 -12 231 94 373 174 508
288 1028 732 1570 1341 257 288 444 517 882 1085 106 138 197 243 276 320 533
518 964 1149 1133 1655 60 181 84 305 91 470 5 126 2 158 -26 325 -60 359 -81
614 -81 995 0 366 12 531 80 1090 83 679 133 1154 161 1529 15 195 7 870 -16
1321 -38 787 -56 1180 -63 1425 -6 175 -12 273 -21 288 -18 33 -54 28 -90 -14
-35 -39 -107 -177 -155 -296 l-32 -77 0 212 c-1 228 -20 440 -60 676 -39 234
-66 294 -97 219z"/>
<path d="M30556 30779 c-173 -18 -364 -77 -461 -142 -27 -19 -88 -60 -134 -91
-226 -153 -379 -196 -694 -195 -141 1 -219 -3 -292 -16 -489 -84 -789 -327
-891 -721 -86 -331 -5 -892 191 -1334 170 -382 455 -749 717 -923 213 -142
314 -148 733 -42 324 82 434 99 650 99 273 0 425 -33 743 -161 242 -97 343
-123 502 -130 155 -6 241 10 357 67 95 47 204 147 268 245 89 136 153 335 175
545 35 323 126 687 210 835 31 55 44 123 100 535 38 278 55 375 83 465 19 60
22 92 21 230 0 219 -35 340 -118 413 -48 41 -86 48 -251 42 -394 -14 -527 -2
-700 62 -348 129 -480 166 -699 199 -157 23 -388 31 -510 18z"/>
<path d="M34408 30501 c-177 -39 -335 -105 -483 -202 -94 -63 -363 -322 -470
-454 -181 -224 -277 -413 -306 -605 -15 -96 -6 -181 47 -451 78 -400 57 -589
-105 -929 -120 -254 -146 -367 -138 -590 6 -156 21 -226 91 -425 20 -55 36
-107 36 -116 0 -21 57 -73 110 -99 124 -62 282 -96 413 -88 113 8 150 25 240
117 124 125 266 195 603 299 112 35 220 78 350 140 400 190 617 246 855 221
92 -10 131 -10 193 0 396 64 832 446 886 777 30 180 65 340 130 584 165 619
200 790 200 979 -1 182 -23 213 -206 288 -203 83 -704 183 -918 183 -146 0
-240 30 -655 207 -173 74 -348 144 -390 155 -112 30 -364 35 -483 9z"/>
<path d="M35920 27003 c-36 -8 -177 -42 -315 -75 -546 -130 -924 -207 -1248
-254 -206 -29 -257 -43 -362 -97 -97 -50 -239 -185 -308 -292 -132 -206 -221
-454 -271 -754 -13 -79 -29 -147 -36 -151 -22 -14 -322 -50 -506 -62 -286 -18
-519 7 -689 76 l-80 32 3 79 c5 102 -15 185 -71 312 -25 54 -72 165 -106 246
-119 287 -192 411 -310 527 -151 149 -346 216 -704 241 -168 12 -408 2 -754
-31 -116 -11 -309 -27 -430 -35 -372 -27 -589 -66 -759 -138 -113 -47 -178
-93 -298 -210 -90 -88 -109 -113 -145 -188 -122 -256 -128 -609 -16 -1066 36
-143 135 -448 180 -549 13 -30 47 -141 74 -247 72 -277 167 -593 270 -897 463
-1372 1018 -2284 1596 -2623 132 -77 459 -219 696 -302 234 -82 522 -151 779
-187 129 -18 604 -18 725 0 415 63 746 188 1082 411 651 431 1195 1194 1618
2271 181 460 290 811 471 1515 137 531 414 1591 432 1650 9 32 15 94 16 170 1
130 -18 214 -71 320 -88 174 -257 327 -360 324 -21 0 -67 -8 -103 -16z"/>
<path d="M32905 26489 c-163 -20 -323 -98 -446 -219 -94 -92 -130 -159 -137
-251 -6 -86 17 -159 78 -253 84 -127 196 -213 292 -223 94 -9 339 35 454 83
81 33 117 74 203 230 98 180 115 229 116 334 0 95 -12 126 -71 185 -92 92
-287 137 -489 114z"/>
<path d="M25143 23681 c-84 -38 -131 -144 -120 -270 19 -214 199 -491 547
-839 258 -258 175 -188 2630 -2207 1881 -1547 1850 -1521 1893 -1568 183 -200
279 -495 316 -972 6 -71 15 -265 21 -430 13 -384 24 -505 61 -690 81 -406 396
-1571 806 -2975 86 -294 158 -545 161 -557 2 -13 7 -23 11 -23 33 0 457 263
615 382 345 261 687 606 951 963 603 813 1021 1867 1230 3100 66 391 110 810
122 1163 l6 203 156 79 c440 223 991 602 1641 1129 847 688 1754 1561 1879
1809 119 236 118 580 -5 980 -26 86 -26 86 -44 65 -9 -12 -164 -228 -343 -480
l-325 -458 -284 -280 c-156 -154 -346 -339 -423 -410 -995 -918 -1811 -1431
-2579 -1620 -372 -92 -727 -113 -1166 -69 -191 19 -223 23 -720 104 -234 38
-515 81 -625 94 -404 51 -453 59 -607 97 -770 193 -1706 722 -2803 1583 -417
327 -909 754 -1311 1138 -351 335 -861 702 -1206 868 -217 104 -385 136 -485
91z"/>
<path d="M24759 22968 c-292 -339 -496 -766 -593 -1240 -49 -240 -60 -354 -60
-648 l-1 -276 -64 -49 c-457 -357 -1328 -1918 -2320 -4160 -85 -192 -97 -213
-140 -249 -119 -99 -362 -332 -493 -474 -614 -662 -1105 -1395 -1602 -2392
-359 -721 -653 -1447 -911 -2250 -56 -174 -197 -656 -210 -717 l-7 -33 185 0
185 0 20 33 c30 50 83 190 191 509 135 399 600 1618 729 1913 374 851 935
1647 2057 2915 332 375 414 481 436 563 14 52 -1 87 -50 121 -21 15 -50 39
-65 55 l-28 29 36 11 c172 47 349 304 510 741 25 69 75 206 112 305 177 479
494 1118 854 1716 258 430 612 939 864 1244 95 114 287 311 518 530 58 55 117
121 132 147 34 59 33 106 -4 126 -35 19 -212 9 -319 -18 -46 -11 -86 -18 -88
-16 -10 10 51 105 127 200 44 54 155 180 247 279 234 251 343 377 380 439 59
99 80 66 -261 411 l-305 307 -62 -72z"/>
<path d="M38115 21863 c-246 -444 -896 -1084 -1965 -1938 -399 -318 -984 -760
-1389 -1048 l-126 -89 -2 -251 c-8 -1312 -391 -2534 -1149 -3664 -479 -715
-1151 -1421 -1801 -1892 -97 -71 -101 -75 -91 -100 17 -42 22 -322 9 -522 -24
-384 -83 -948 -162 -1544 -21 -165 -39 -308 -39 -317 0 -17 310 -18 6380 -18
l6380 0 0 30 c0 57 -31 256 -65 415 -185 861 -741 2117 -1580 3565 -238 410
-513 857 -661 1072 -97 140 -123 186 -173 298 -23 52 -63 128 -90 170 -87 136
-322 593 -1209 2345 -596 1179 -597 1180 -776 1450 -249 373 -1410 2061 -1441
2093 -10 11 -19 1 -50 -55z m-37 -1861 c164 -79 381 -345 551 -672 55 -106 93
-203 176 -450 298 -878 531 -1413 812 -1864 155 -247 259 -379 473 -601 244
-253 399 -459 561 -750 295 -530 538 -1265 624 -1890 20 -146 35 -367 25 -378
-4 -4 -26 25 -50 65 -336 568 -746 883 -1430 1098 -515 161 -822 405 -938 745
-42 124 -53 204 -63 480 -10 300 -17 348 -90 640 -129 517 -508 1820 -689
2370 -98 297 -147 477 -187 684 -22 114 -26 165 -27 319 l-1 183 25 19 c59 45
138 46 228 2z m3452 -4529 c166 -154 274 -283 439 -528 479 -708 1052 -1895
1686 -3495 135 -341 320 -825 340 -887 6 -23 5 -23 -83 -23 l-89 0 -31 88
c-129 368 -693 1605 -1490 3267 -360 751 -424 881 -428 869 -5 -13 105 -511
291 -1319 232 -1007 436 -2105 530 -2852 l7 -53 -86 0 c-47 0 -86 1 -86 3 0 1
-23 113 -51 247 -27 135 -115 565 -194 955 -306 1511 -410 2010 -556 2672 -80
363 -115 498 -174 681 -59 182 -115 395 -115 436 0 16 24 0 90 -61z m-6002
-216 c62 -96 170 -332 276 -602 48 -121 110 -274 137 -340 180 -426 376 -1185
543 -2100 107 -587 183 -1131 212 -1506 7 -96 -2 -183 -17 -157 -33 59 -107
474 -224 1263 -125 840 -120 811 -191 1065 -121 430 -432 1295 -764 2124 -81
203 -90 234 -84 270 16 97 40 93 112 -17z m4074 -1331 c159 -31 337 -115 498
-235 180 -133 441 -419 598 -653 303 -452 464 -882 622 -1663 60 -299 83 -389
122 -475 37 -83 69 -115 132 -136 81 -27 175 -74 212 -106 65 -58 64 -58 -258
-58 l-291 0 -36 38 c-102 108 -262 521 -436 1122 -116 403 -189 703 -219 909
-13 86 -25 123 -67 210 -183 385 -518 749 -784 852 -158 62 -283 57 -430 -15
-286 -141 -428 -351 -455 -676 -25 -289 -29 -485 -13 -561 58 -286 413 -969
935 -1801 l48 -78 -159 0 -159 0 -133 228 c-378 648 -669 1116 -808 1297 -65
85 -75 104 -106 212 -84 290 -37 789 99 1048 39 74 205 244 331 337 92 69 230
144 320 173 137 46 300 57 437 31z m-2932 -1301 c70 -25 152 -79 430 -285 146
-108 479 -346 740 -529 261 -184 525 -371 587 -417 287 -216 423 -420 423
-638 0 -92 -21 -149 -56 -154 -28 -4 -42 15 -60 84 -8 33 -49 137 -91 233 -76
171 -78 175 -157 254 -104 104 -535 463 -645 537 -48 31 -187 120 -311 197
-479 296 -675 428 -797 538 -96 86 -163 195 -119 195 7 0 33 -7 56 -15z"/>
<path d="M38000 19934 c0 -4 40 -160 89 -348 415 -1582 759 -3018 865 -3611
37 -207 46 -280 51 -390 6 -130 30 -179 144 -299 189 -196 527 -414 1151 -743
151 -80 352 -186 445 -235 94 -49 203 -112 244 -139 40 -28 76 -47 79 -44 33
33 -260 733 -529 1265 -121 240 -181 343 -249 425 -221 270 -737 1078 -1090
1710 -159 284 -416 793 -510 1010 -153 355 -253 651 -294 873 l-22 121 -179
205 c-165 187 -195 218 -195 200z"/>
<path d="M26385 21582 c-118 -72 -412 -492 -905 -1292 -175 -285 -673 -1035
-896 -1351 -451 -638 -774 -1015 -1259 -1469 -642 -601 -1106 -1237 -1383
-1893 -81 -191 -116 -294 -227 -673 -158 -536 -282 -934 -648 -2079 -64 -198
-159 -499 -212 -669 -298 -958 -567 -1565 -730 -1650 l-40 -21 774 -3 c426 -1
776 0 779 2 2 3 77 260 167 573 309 1076 366 1256 501 1561 183 415 240 575
251 703 8 94 -1 127 -52 189 -85 104 -135 295 -135 520 0 355 137 676 387 910
43 40 144 119 224 176 147 104 249 188 249 205 0 17 -58 9 -201 -26 -168 -41
-253 -46 -292 -15 -54 42 -80 188 -80 435 1 646 271 1226 700 1503 39 26 145
92 235 147 230 141 696 454 1163 781 468 327 530 370 608 414 55 31 61 32 99
21 83 -25 157 -124 189 -251 22 -89 17 -340 -9 -485 -29 -156 -77 -338 -147
-555 -233 -724 -345 -1306 -345 -1789 0 -89 -2 -101 -28 -142 -36 -55 -74 -89
-220 -192 -150 -105 -260 -210 -300 -284 -111 -210 -355 -1006 -567 -1857
-101 -403 -150 -539 -358 -1001 -105 -233 -467 -958 -641 -1283 -75 -140 -136
-256 -136 -258 0 -2 270 -4 599 -4 l599 0 99 133 c128 172 393 570 515 772
134 222 203 310 418 530 243 250 310 350 383 570 53 160 68 256 74 470 9 353
-44 636 -219 1160 l-63 190 2 140 c2 156 27 393 79 745 19 129 43 325 55 435
147 1440 540 2758 1147 3850 48 88 126 228 171 310 166 301 286 451 406 511
112 55 262 44 419 -31 214 -102 469 -334 623 -565 125 -187 257 -477 326 -715
102 -351 123 -597 97 -1125 -13 -266 -13 -1023 0 -1260 20 -370 58 -697 112
-955 30 -145 31 -158 31 -395 -1 -505 -93 -1418 -288 -2875 -65 -483 -178
-1280 -235 -1649 -16 -110 -30 -210 -30 -223 l0 -23 1480 0 1480 0 4 23 c8 37
145 885 161 992 87 594 81 1051 -19 1418 -34 124 -75 225 -180 437 -48 96 -99
211 -113 255 -26 79 -27 85 -28 365 -1 262 -2 291 -23 365 -33 120 -76 199
-143 264 -65 64 -114 157 -144 271 -14 51 -15 80 -9 135 5 39 8 156 8 260 -1
171 -4 200 -27 290 -54 205 -159 369 -303 471 -185 132 -208 231 -146 619 42
263 52 361 52 534 0 184 -20 339 -65 516 -185 723 -883 1685 -1542 2126 -239
160 -558 414 -1363 1084 -766 638 -838 695 -869 695 -9 0 -29 -8 -46 -18z"/>
<path d="M27385 19516 c-81 -19 -156 -49 -218 -89 -50 -32 -54 -38 -104 -158
-28 -68 -190 -448 -358 -844 -337 -791 -409 -966 -483 -1190 -156 -468 -262
-931 -391 -1705 -39 -234 -81 -459 -92 -500 -27 -94 -37 -372 -20 -506 37
-283 125 -556 240 -749 63 -105 71 -132 71 -233 0 -299 -227 -917 -630 -1717
-141 -279 -159 -309 -488 -808 -188 -285 -342 -523 -342 -528 0 -5 668 -9
1671 -9 l1671 0 -6 48 c-3 26 -9 194 -12 374 -11 556 29 921 161 1468 61 254
94 422 130 673 94 655 143 1470 132 2202 -7 489 -13 554 -81 990 -38 237 -77
556 -156 1275 -159 1446 -183 1605 -265 1776 -89 186 -249 271 -430 230z"/>
<path d="M25103 18078 c-136 -109 -323 -239 -525 -367 -345 -218 -621 -435
-863 -676 -310 -309 -502 -592 -555 -818 -85 -366 -23 -625 166 -691 127 -45
144 -63 125 -133 -22 -81 -101 -184 -344 -447 -155 -168 -227 -256 -257 -316
-19 -38 -22 -55 -17 -120 3 -41 20 -133 37 -204 62 -255 75 -447 45 -635 -11
-66 -78 -284 -220 -715 -485 -1476 -805 -2457 -805 -2466 0 -6 99 -10 280 -10
l279 0 37 63 c99 168 282 512 413 777 253 509 433 934 572 1350 94 284 145
475 199 760 50 261 78 373 136 553 160 491 436 971 740 1288 62 64 93 107 127
175 177 353 299 902 352 1584 31 396 65 615 140 907 25 95 45 179 45 188 0 28
-28 16 -107 -47z"/>
<path d="M18505 7744 c-362 -65 -692 -295 -907 -630 -127 -199 -222 -483 -259
-779 -17 -134 -14 -478 5 -620 42 -310 142 -581 294 -795 66 -93 229 -257 321
-323 196 -142 441 -234 689 -261 l52 -5 0 138 0 137 -55 23 c-67 28 -117 81
-141 152 -18 52 -19 107 -19 1279 l0 1225 27 57 c28 60 80 106 151 135 l37 15
0 134 0 134 -57 -1 c-32 0 -94 -7 -138 -15z"/>
<path d="M18890 7626 l0 -133 43 -17 c101 -38 160 -122 178 -254 7 -50 9 -469
7 -1212 -4 -989 -6 -1141 -19 -1185 -36 -115 -92 -183 -169 -206 l-40 -12 0
-138 0 -138 53 5 c338 36 625 171 857 405 274 276 422 628 461 1099 41 499
-62 964 -290 1310 -71 108 -279 319 -384 389 -195 130 -461 221 -648 221 l-49
0 0 -134z"/>
<path d="M47465 7743 c-228 -48 -470 -187 -660 -378 -258 -258 -415 -602 -470
-1028 -20 -156 -20 -488 0 -644 37 -286 126 -531 272 -751 71 -107 269 -308
374 -379 97 -66 229 -132 343 -172 87 -31 230 -61 287 -61 l29 0 0 144 0 144
-25 6 c-14 4 -47 28 -74 54 -40 38 -51 57 -60 100 -8 37 -11 411 -11 1256 0
1170 1 1206 20 1267 25 81 66 130 135 165 l55 26 0 134 0 134 -72 -1 c-40 0
-104 -7 -143 -16z"/>
<path d="M47870 7626 l0 -134 67 -7 c163 -17 287 -71 392 -171 135 -127 293
-402 371 -645 47 -144 73 -183 133 -194 83 -16 157 26 171 96 3 17 6 272 6
566 0 569 -1 587 -48 612 -12 6 -47 11 -78 11 -64 0 -49 12 -180 -138 -42 -48
-70 -47 -214 7 -147 55 -267 86 -438 111 -204 30 -182 44 -182 -114z"/>
<path d="M14205 7685 c-61 -22 -85 -55 -85 -120 0 -74 30 -106 129 -143 123
-45 111 107 111 -1370 0 -1096 -2 -1278 -15 -1308 -14 -35 -35 -48 -140 -85
-116 -42 -114 -216 3 -249 23 -6 258 -10 635 -10 l597 0 0 1650 0 1650 -597 0
c-489 -1 -605 -3 -638 -15z"/>
<path d="M15630 7560 l0 -140 24 0 c45 0 145 -38 186 -70 22 -18 52 -54 66
-81 49 -98 54 -140 54 -471 0 -289 -1 -311 -21 -365 -15 -41 -37 -73 -73 -108
-52 -52 -91 -69 -180 -81 l-47 -7 3 -130 3 -130 63 -13 c76 -16 118 -41 171
-100 74 -85 76 -96 76 -554 0 -396 -1 -406 -22 -460 -45 -110 -108 -159 -235
-180 l-68 -12 0 -129 0 -129 233 0 c378 0 554 27 732 113 266 129 422 330 466
601 17 106 7 300 -21 396 -84 291 -291 467 -664 560 l-150 38 44 12 c310 79
435 142 570 287 180 193 237 483 145 746 -35 101 -81 172 -165 258 -204 206
-492 289 -1002 289 l-188 0 0 -140z"/>
<path d="M20645 7685 c-60 -21 -85 -56 -85 -116 0 -28 7 -63 15 -79 15 -28 24
-34 124 -73 30 -13 63 -34 75 -50 l21 -28 3 -1276 c3 -1491 15 -1342 -112
-1388 -101 -37 -126 -65 -126 -144 0 -45 5 -62 21 -80 48 -51 45 -51 694 -51
l605 0 0 1650 0 1650 -597 0 c-489 -1 -605 -3 -638 -15z"/>
<path d="M22090 7562 l0 -141 53 -15 c78 -23 119 -56 156 -126 60 -113 60
-109 60 -1245 1 -622 -3 -1057 -9 -1098 -21 -141 -82 -215 -211 -253 l-49 -15
0 -134 0 -135 83 0 c177 0 350 42 496 121 363 196 623 545 736 988 76 299 85
680 24 997 -34 180 -106 386 -180 521 -150 271 -437 516 -718 612 -98 34 -188
50 -320 57 l-121 7 0 -141z"/>
<path d="M23668 7688 c-56 -15 -88 -58 -88 -118 0 -66 5 -76 59 -112 61 -41
109 -87 127 -120 8 -15 170 -398 360 -850 l345 -823 -3 -441 -3 -440 -27 -41
c-25 -38 -33 -42 -103 -59 -94 -22 -132 -44 -151 -89 -31 -74 -4 -142 69 -175
40 -19 73 -20 752 -20 435 0 723 4 744 10 76 22 115 94 92 170 -15 50 -48 73
-146 100 -44 12 -88 29 -99 39 -45 39 -46 49 -46 637 l0 557 -290 670 c-160
369 -293 687 -296 708 -11 65 1 85 79 138 40 27 78 61 85 75 29 64 6 143 -51
173 -30 17 -82 18 -702 20 -424 1 -684 -2 -707 -9z"/>
<path d="M25587 7686 c-51 -19 -75 -42 -88 -87 -15 -50 -4 -104 27 -128 14
-11 63 -38 110 -61 108 -52 137 -91 142 -190 2 -37 -1 -91 -7 -119 -6 -28 -69
-182 -141 -342 -71 -160 -130 -296 -130 -303 0 -18 127 -310 137 -313 4 -1 95
190 202 425 276 607 301 657 364 727 42 47 77 72 155 113 118 62 142 87 142
149 0 56 -22 98 -63 120 -29 16 -71 18 -422 20 -311 2 -398 0 -428 -11z"/>
<path d="M26795 7685 c-60 -21 -85 -56 -85 -116 0 -28 7 -63 15 -79 15 -28 24
-34 124 -73 30 -13 63 -34 75 -50 l21 -28 3 -1276 c3 -1491 15 -1342 -112
-1388 -101 -37 -126 -65 -126 -144 0 -49 4 -61 28 -83 15 -15 40 -32 55 -37
19 -7 230 -11 633 -11 l604 0 0 1650 0 1650 -597 0 c-489 -1 -605 -3 -638 -15z"/>
<path d="M28220 7563 l0 -140 48 -7 c119 -16 213 -94 253 -212 23 -67 24 -77
24 -404 l0 -335 -28 -55 c-16 -30 -40 -68 -55 -84 -37 -39 -115 -74 -184 -82
l-58 -7 0 -128 0 -129 28 -6 c126 -28 167 -48 216 -105 20 -23 46 -68 58 -98
21 -53 22 -75 26 -398 2 -212 0 -373 -7 -423 -23 -171 -97 -253 -255 -280
l-66 -12 0 -130 0 -130 293 5 c391 6 524 30 705 128 216 116 362 295 418 514
27 106 25 342 -4 449 -57 208 -173 357 -361 463 -85 48 -168 78 -326 118
l-130 33 45 11 c115 30 280 86 335 113 202 102 342 269 396 475 28 107 28 278
0 385 -81 308 -335 507 -741 579 -88 16 -176 22 -372 26 l-258 6 0 -140z"/>
<path d="M30075 7691 c-78 -20 -110 -64 -102 -144 6 -64 32 -90 127 -125 127
-47 114 80 120 -1217 6 -1096 6 -1111 27 -1191 12 -45 33 -106 46 -135 96
-216 377 -411 708 -493 127 -31 219 -43 417 -52 l152 -7 0 165 0 165 -57 21
c-88 33 -119 56 -152 114 -63 109 -61 70 -61 1360 0 1363 -12 1225 111 1270
95 35 129 70 129 134 0 57 -21 99 -63 121 -30 17 -82 18 -702 20 -368 1 -683
-2 -700 -6z"/>
<path d="M32084 7689 c-77 -18 -113 -94 -81 -171 12 -30 32 -46 98 -85 136
-79 206 -164 246 -299 16 -54 18 -135 21 -884 3 -837 -1 -991 -34 -1115 -59
-229 -245 -407 -481 -462 l-73 -17 0 -162 0 -163 38 6 c76 12 209 55 286 94
222 111 380 288 457 512 65 192 62 139 69 1187 5 890 7 959 24 1010 47 141
106 214 233 291 88 53 113 84 113 139 0 49 -27 90 -73 111 -39 17 -69 19 -422
18 -209 -1 -398 -5 -421 -10z"/>
<path d="M33447 7687 c-77 -24 -111 -89 -88 -166 15 -50 36 -68 122 -99 127
-47 114 102 117 -1332 2 -679 0 -1259 -3 -1288 -8 -65 -39 -104 -97 -121 -74
-23 -114 -48 -132 -85 -35 -73 -11 -145 57 -177 40 -18 75 -19 715 -19 730 0
716 -1 760 55 16 21 22 41 22 81 0 72 -29 105 -117 135 -74 24 -107 53 -117
100 -3 18 -6 596 -6 1286 0 1068 2 1259 14 1288 17 39 57 67 122 85 28 8 55
25 74 47 26 29 30 42 30 89 0 48 -4 60 -28 84 -16 15 -46 33 -68 39 -57 16
-1325 14 -1377 -2z"/>
<path d="M35415 7691 c-48 -12 -74 -29 -90 -61 -28 -53 -14 -134 29 -169 9 -7
48 -25 87 -40 63 -23 75 -31 93 -66 21 -40 21 -44 24 -1245 2 -663 0 -1238 -3
-1277 -9 -98 -31 -130 -110 -157 -33 -12 -70 -27 -82 -34 -47 -27 -68 -116
-40 -172 6 -14 32 -35 57 -47 l44 -23 608 0 608 0 0 1449 c0 1003 3 1458 11
1478 19 50 47 70 122 89 129 30 157 56 157 140 0 58 -21 93 -73 122 -29 16
-89 17 -722 19 -379 1 -703 -2 -720 -6z"/>
<path d="M38045 7691 c-90 -22 -132 -110 -91 -190 21 -39 36 -50 118 -80 125
-46 113 101 116 -1316 2 -671 0 -1248 -3 -1282 -9 -87 -34 -121 -110 -147 -33
-12 -70 -27 -82 -34 -47 -27 -68 -116 -40 -172 6 -14 32 -35 57 -47 l44 -23
608 0 608 0 0 1650 0 1650 -597 -1 c-329 -1 -612 -4 -628 -8z"/>
<path d="M39470 7562 l0 -139 59 -18 c74 -22 124 -63 156 -126 57 -111 56 -83
53 -1282 l-3 -1102 -33 -67 c-41 -83 -73 -111 -162 -139 l-70 -23 0 -135 0
-134 133 6 c176 8 293 38 436 112 446 232 728 678 801 1265 13 108 13 450 0
560 -57 465 -235 833 -517 1062 -252 205 -499 298 -793 298 l-60 0 0 -138z"/>
<path d="M41237 7687 c-77 -24 -111 -89 -88 -166 15 -50 36 -68 122 -99 127
-47 113 104 117 -1342 2 -880 0 -1260 -8 -1296 -12 -59 -37 -86 -95 -104 -74
-23 -112 -48 -129 -84 -35 -73 -11 -145 57 -177 40 -18 75 -19 707 -19 423 0
678 4 702 10 57 16 88 60 88 125 0 69 -29 107 -103 131 -81 26 -103 40 -121
78 -15 31 -16 149 -16 1300 0 1080 2 1272 14 1301 17 39 57 67 122 85 28 8 55
25 74 47 26 29 30 42 30 89 0 48 -4 60 -28 84 -16 15 -46 33 -68 39 -57 16
-1325 14 -1377 -2z"/>
<path d="M43225 7689 c-39 -6 -57 -16 -82 -43 -29 -31 -33 -43 -33 -90 0 -65
30 -108 88 -126 20 -7 65 -25 99 -41 54 -26 68 -38 110 -102 26 -40 415 -706
863 -1480 l815 -1406 338 -1 337 0 0 533 0 532 -643 1117 -642 1117 -600 -1
c-330 0 -622 -4 -650 -9z"/>
<path d="M45215 7685 c-50 -18 -71 -43 -80 -95 -11 -67 16 -106 115 -166 145
-89 205 -173 230 -326 5 -35 10 -232 10 -441 l0 -378 127 -214 c70 -118 131
-215 135 -215 5 0 8 273 8 608 0 648 2 678 51 774 28 56 104 134 159 165 116
66 139 84 150 119 27 80 -18 155 -101 173 -80 17 -754 14 -804 -4z"/>
<path d="M43448 5913 l-3 -938 -24 -63 c-43 -116 -105 -184 -245 -271 -63 -39
-81 -72 -73 -132 13 -101 48 -109 501 -109 208 0 376 4 397 10 50 14 80 50 86
103 7 59 -16 100 -75 133 -151 87 -219 158 -264 279 -23 60 -23 63 -28 785
l-5 725 -125 208 c-69 114 -128 207 -132 207 -4 0 -9 -422 -10 -937z"/>
<path d="M47873 6070 c-90 -19 -133 -62 -133 -135 0 -77 46 -119 160 -145 69
-15 95 -32 117 -73 16 -29 18 -69 18 -462 0 -394 -2 -434 -19 -484 -24 -69
-81 -127 -141 -143 l-45 -12 0 -144 0 -144 83 7 c111 9 307 49 420 85 170 55
448 214 584 335 l52 46 3 465 3 465 73 67 72 68 0 65 c0 73 -13 99 -63 127
-29 15 -80 17 -587 19 -305 1 -574 -2 -597 -7z"/>
<path d="M37571 5537 c-40 -20 -60 -57 -107 -196 -53 -158 -95 -250 -165 -356
-105 -161 -229 -251 -401 -291 l-78 -18 0 -138 0 -138 465 0 465 0 -2 546 -3
546 -33 29 c-36 32 -96 39 -141 16z"/>
</g>
</svg>
