<?xml version="1.0" standalone="no"?>
<!DOCTYPE svg PUBLIC "-//W3C//DTD SVG 20010904//EN"
 "http://www.w3.org/TR/2001/REC-SVG-20010904/DTD/svg10.dtd">
<svg version="1.0" xmlns="http://www.w3.org/2000/svg"
 width="1024.000000pt" height="1024.000000pt" viewBox="0 0 1024.000000 1024.000000"
 preserveAspectRatio="xMidYMid meet">
<metadata>
Created by potrace 1.16, written by Peter Selinger 2001-2019
</metadata>
<g transform="translate(0.000000,1024.000000) scale(0.100000,-0.100000)"
fill="#000000" stroke="none">
<path d="M5765 8319 c-659 -32 -1145 -357 -1334 -892 -17 -48 -41 -132 -53
-185 -20 -92 -22 -125 -25 -664 l-4 -568 -400 0 -399 0 0 -550 0 -550 400 0
400 0 0 -1500 0 -1500 585 0 585 0 0 1500 0 1500 560 0 560 0 0 48 c0 59 37
871 45 975 l5 77 -585 0 -585 0 0 453 c0 285 4 475 11 512 19 105 74 186 153
227 82 42 148 48 574 48 l402 0 0 88 c0 48 5 277 11 510 6 233 9 425 6 428
-26 27 -647 55 -912 43z"/>
</g>
</svg>
