<?xml version="1.0" standalone="no"?>
<!DOCTYPE svg PUBLIC "-//W3C//DTD SVG 20010904//EN"
 "http://www.w3.org/TR/2001/REC-SVG-20010904/DTD/svg10.dtd">
<svg version="1.0" xmlns="http://www.w3.org/2000/svg"
 width="1184.000000pt" height="1300.000000pt" viewBox="0 0 1184.000000 1300.000000"
 preserveAspectRatio="xMidYMid meet">
<metadata>
Created by potrace 1.16, written by Peter Selinger 2001-2019
</metadata>
<g transform="translate(0.000000,1300.000000) scale(0.100000,-0.100000)"
fill="#000000" stroke="none">
<path d="M4600 12978 c-19 -11 -78 -45 -130 -76 -114 -66 -103 -59 -226 -152
-161 -122 -155 -118 -185 -101 -22 12 -29 12 -55 0 -16 -8 -36 -30 -45 -48
-18 -39 -67 -67 -197 -112 -46 -16 -114 -44 -151 -63 -37 -18 -78 -37 -91 -41
-40 -11 -302 -146 -336 -171 -17 -13 -35 -24 -39 -24 -26 0 -192 -126 -269
-204 -68 -68 -108 -99 -165 -128 -42 -21 -92 -49 -112 -61 -40 -25 -231 -217
-297 -299 -85 -105 -150 -194 -170 -235 -12 -23 -26 -44 -31 -48 -15 -9 -164
-281 -319 -582 -33 -63 -112 -233 -112 -240 0 -5 -18 -45 -39 -89 -22 -44 -48
-104 -60 -134 -11 -30 -38 -100 -60 -155 -182 -453 -260 -737 -291 -1070 -21
-225 -11 -505 31 -855 10 -91 26 -225 34 -298 8 -73 31 -217 51 -320 20 -103
42 -230 49 -282 7 -52 29 -171 48 -265 19 -93 40 -204 47 -245 7 -41 30 -156
50 -255 21 -99 43 -211 49 -250 5 -38 26 -140 46 -224 19 -85 40 -184 46 -220
12 -79 22 -128 59 -286 15 -66 31 -142 35 -170 4 -27 26 -133 50 -235 24 -102
47 -205 50 -230 4 -25 23 -110 41 -190 19 -80 41 -181 48 -225 8 -44 30 -145
50 -225 19 -80 46 -192 60 -250 13 -58 31 -127 39 -155 9 -27 27 -91 41 -141
13 -50 41 -125 60 -167 20 -42 36 -83 36 -91 0 -34 119 -247 210 -374 42 -60
206 -219 249 -243 20 -11 61 -35 91 -54 47 -30 166 -74 242 -91 150 -33 340
-29 508 9 58 14 125 28 150 32 48 8 336 105 403 135 189 87 305 181 394 320
82 130 104 339 58 575 -21 109 -88 339 -156 530 -27 77 -49 146 -49 152 0 7
-19 59 -42 115 -23 57 -47 126 -54 153 -14 57 -82 257 -131 387 -18 48 -41
118 -52 155 -11 37 -38 122 -59 188 -66 198 -130 417 -137 465 -4 25 -22 104
-40 177 -18 72 -38 166 -45 210 -6 43 -31 182 -55 308 -24 127 -47 257 -50
290 -4 33 -18 128 -32 210 -13 83 -27 166 -29 185 -2 19 -8 67 -14 105 -5 39
-12 106 -15 150 -4 44 -16 166 -27 270 -28 262 -36 744 -14 810 9 25 16 61 16
80 0 34 12 46 25 25 3 -5 25 -19 48 -30 113 -55 371 -223 502 -326 28 -23 63
-47 76 -54 13 -7 40 -26 59 -41 19 -15 60 -40 90 -57 30 -16 75 -41 100 -54
86 -48 295 -127 411 -154 91 -21 120 -32 130 -49 37 -59 248 -188 344 -211 17
-4 50 -28 75 -53 25 -25 54 -53 65 -61 31 -24 235 -186 279 -223 22 -17 54
-41 72 -52 17 -11 55 -38 83 -60 28 -22 82 -64 119 -92 37 -29 72 -53 78 -53
6 0 19 -10 30 -21 10 -12 48 -41 84 -66 36 -24 99 -68 140 -98 41 -29 107 -72
145 -96 39 -23 84 -52 100 -64 17 -12 40 -25 53 -29 12 -4 50 -24 85 -45 95
-58 461 -224 552 -252 22 -6 81 -31 130 -54 50 -23 107 -50 128 -59 20 -9 37
-23 37 -31 0 -8 16 -25 36 -39 32 -22 51 -44 83 -96 13 -22 69 -198 77 -244 4
-24 13 -40 24 -43 17 -5 18 -12 55 -463 8 -96 31 -269 50 -385 20 -115 40
-241 46 -280 13 -97 93 -445 136 -590 55 -188 62 -212 93 -345 48 -201 60
-240 101 -328 l39 -84 -20 -71 c-59 -212 -78 -507 -44 -688 18 -99 71 -313
120 -489 19 -69 48 -204 65 -300 16 -96 41 -233 55 -304 20 -99 23 -130 13
-136 -7 -5 -14 -40 -17 -86 -3 -49 -11 -93 -23 -114 -10 -19 -36 -80 -59 -135
-23 -55 -50 -118 -61 -141 -28 -59 -21 -154 12 -175 6 -3 1 -23 -10 -50 -12
-24 -21 -64 -21 -88 0 -40 4 -47 54 -93 112 -103 212 -148 326 -148 71 0 87 4
135 31 30 17 58 36 63 43 4 6 20 19 35 29 50 32 68 74 65 147 -3 53 -9 74 -34
111 -28 42 -30 47 -18 79 23 65 17 93 -51 227 l-65 128 10 83 c5 45 7 88 5 95
-2 6 -6 24 -9 40 -4 15 -13 27 -21 27 -7 0 -16 4 -20 9 -3 5 -1 94 5 198 10
183 36 378 66 497 15 56 36 176 70 386 12 71 15 140 11 270 -6 206 -41 402
-101 565 -50 135 -69 283 -61 470 7 164 14 212 60 400 18 77 38 178 44 225 6
47 16 123 22 170 18 135 24 808 8 959 -7 71 -11 187 -8 266 6 200 3 514 -5
555 -3 19 -6 58 -6 86 1 27 -4 62 -9 77 -8 21 -5 48 14 120 13 50 26 121 30
157 10 108 27 194 45 220 9 14 26 39 37 56 12 17 39 67 61 110 22 43 55 105
73 136 19 31 46 78 62 105 15 26 38 63 52 81 13 18 25 38 27 44 2 6 44 -30 92
-80 99 -102 196 -171 254 -179 36 -5 41 -2 76 38 21 24 41 51 44 59 4 8 23 44
44 80 35 62 90 231 122 370 23 104 39 324 33 445 -7 126 -24 191 -66 254 -29
43 -29 45 -13 75 36 67 16 232 -42 345 -22 41 -106 112 -165 139 -56 26 -92
29 -309 24 -126 -3 -164 17 -223 117 -26 42 -50 91 -53 107 -4 16 -22 71 -40
123 l-34 93 32 87 c19 47 37 101 41 120 4 18 17 50 28 69 12 20 25 61 29 92 4
30 10 66 13 80 3 14 6 46 7 71 1 39 6 48 30 62 28 16 32 16 96 -7 84 -29 131
-61 204 -137 46 -48 61 -72 78 -127 12 -37 24 -89 27 -117 9 -70 21 -28 17 55
-4 65 -4 65 11 33 20 -43 25 -42 14 4 -4 21 -6 39 -4 41 2 2 16 -11 32 -29 38
-44 81 -89 64 -67 -8 10 -11 18 -8 18 4 0 33 -33 65 -73 44 -57 64 -94 87
-162 21 -63 31 -82 36 -69 3 11 4 36 1 57 -5 42 11 50 29 15 6 -13 28 -41 49
-63 21 -22 44 -52 51 -66 8 -15 36 -50 62 -79 38 -42 45 -47 37 -25 -15 38
-29 145 -19 145 4 0 10 -9 14 -20 3 -10 25 -34 48 -52 23 -17 50 -40 60 -50
27 -28 91 -57 139 -64 l43 -6 -38 27 c-21 15 -37 29 -34 31 2 3 29 -5 58 -17
44 -17 190 -59 206 -59 2 0 2 4 -1 9 -3 5 17 0 45 -10 74 -29 109 -21 44 9
-69 32 -82 39 -180 100 -91 57 -128 91 -48 44 62 -36 143 -65 140 -49 -1 6 9
13 23 15 20 2 22 1 10 -8 -12 -10 -10 -11 10 -6 14 3 71 -2 127 -11 86 -14
116 -14 185 -5 101 15 126 32 44 32 -38 0 -55 -4 -51 -11 5 -7 2 -7 -11 0 -11
5 -65 20 -122 33 -57 12 -99 24 -95 25 4 1 38 4 76 8 37 4 65 10 63 14 -3 4
12 6 32 4 32 -2 34 -1 12 6 -24 9 -23 9 8 10 18 1 42 6 52 11 11 6 43 15 72
20 29 6 62 14 73 20 11 5 47 19 80 29 39 12 51 19 35 20 -21 1 -22 3 -10 12
11 8 6 9 -22 5 -21 -2 -38 -3 -38 -1 0 3 22 16 49 30 27 13 52 29 55 34 4 5
-28 12 -71 16 -43 3 -130 15 -193 26 -63 11 -122 21 -130 23 -8 1 11 10 42 20
32 10 66 24 75 31 15 11 9 12 -32 5 -103 -17 -125 -19 -120 -9 4 5 17 9 30 9
13 0 26 4 30 9 3 5 18 12 34 16 16 3 37 16 47 27 11 12 14 18 7 15 -6 -4 -90
-4 -185 0 -166 7 -171 7 -118 19 41 9 47 12 25 13 -57 3 -167 30 -218 56 -29
14 -43 22 -32 19 50 -16 56 -12 15 8 -36 17 -41 23 -25 26 16 4 12 8 -20 22
l-40 17 60 15 60 16 -85 3 c-47 2 -102 4 -122 4 -49 2 -62 15 -15 15 45 0 135
19 142 30 3 4 -14 4 -36 -1 -23 -6 -47 -8 -53 -6 -6 3 3 8 19 11 72 17 115 29
112 32 -2 2 16 25 41 51 43 47 44 65 1 43 -12 -7 -72 -18 -133 -26 -105 -13
-113 -13 -152 6 -22 11 -70 45 -105 76 -35 31 -75 62 -89 69 -85 43 -240 77
-310 68 -33 -5 -31 -3 28 33 34 21 62 42 62 47 0 6 -8 3 -18 -6 -26 -23 -39
-21 -18 2 10 11 15 24 11 30 -3 7 0 8 10 5 11 -4 19 4 30 30 27 64 17 71 -29
19 -59 -66 -168 -116 -296 -138 -108 -18 -189 -52 -280 -118 -35 -26 -68 -44
-73 -40 -5 3 -22 6 -37 5 -20 0 -31 6 -39 24 -6 13 -15 24 -21 24 -6 0 -26 16
-44 34 -32 35 -117 79 -209 110 -87 29 -211 22 -397 -24 -91 -23 -171 -47
-180 -55 -9 -8 -33 -22 -55 -31 -67 -28 -124 -73 -147 -117 -17 -33 -22 -60
-23 -127 -1 -47 -7 -114 -14 -150 -17 -87 -8 -150 31 -205 l31 -44 -12 -114
c-6 -63 -9 -121 -6 -129 3 -8 25 -19 48 -24 30 -6 43 -14 45 -29 7 -50 13 -65
27 -65 10 0 15 -10 15 -30 0 -24 -4 -30 -21 -30 -36 0 -126 -30 -160 -53 -27
-18 -41 -43 -76 -132 -23 -61 -46 -117 -51 -125 -5 -9 -13 -31 -17 -50 -7 -32
-41 -109 -82 -185 -9 -16 -37 -53 -62 -81 -25 -29 -51 -58 -57 -65 -22 -26
-206 -194 -222 -203 -10 -5 -36 -25 -59 -45 -161 -138 -180 -158 -208 -216
-49 -100 -57 -134 -62 -281 -5 -129 -4 -143 16 -181 11 -23 31 -45 43 -49 103
-33 346 55 438 158 25 28 50 59 55 69 6 9 75 86 155 169 108 113 146 147 148
133 2 -10 17 -34 32 -54 l29 -37 -24 -78 c-14 -44 -29 -117 -35 -163 -5 -46
-16 -91 -24 -100 -7 -9 -23 -34 -34 -56 -12 -22 -68 -87 -126 -144 -58 -57
-108 -113 -112 -123 -5 -18 -7 -18 -24 -3 -24 21 -73 22 -104 2 -18 -12 -37
-15 -70 -11 -31 5 -51 2 -63 -7 -10 -7 -15 -9 -11 -5 13 16 -24 64 -54 70 -16
3 -41 15 -55 26 -14 11 -32 20 -40 20 -8 0 -28 11 -45 25 -16 14 -37 25 -47
25 -10 0 -26 10 -37 21 -10 12 -55 46 -99 76 -44 30 -94 64 -111 76 -36 25
-58 39 -193 119 -53 32 -112 65 -131 74 -19 8 -75 35 -125 60 -263 128 -630
224 -861 224 -64 0 -86 4 -105 19 -44 34 -132 73 -217 96 -96 27 -107 33 -185
108 -51 49 -215 167 -231 167 -4 0 -49 20 -101 45 -52 24 -127 53 -167 64 -40
11 -127 35 -194 54 -66 19 -147 38 -180 42 -32 4 -135 24 -229 45 -93 21 -192
41 -220 44 -27 4 -85 19 -128 33 -71 23 -78 27 -72 47 4 11 8 59 11 106 3 73
9 96 39 158 19 41 33 77 30 82 -3 4 -2 10 2 12 12 5 174 339 204 418 7 19 32
77 56 128 24 50 43 97 43 102 0 5 17 47 39 92 21 46 42 94 46 108 4 14 27 67
51 119 24 51 44 98 44 103 0 5 20 51 44 101 24 51 47 103 51 117 4 14 21 52
38 85 16 33 41 89 54 125 13 36 30 79 38 95 48 107 75 213 75 297 0 118 -66
246 -185 357 l-69 64 3 146 c4 251 -35 503 -100 638 l-30 63 20 27 c12 14 21
35 21 47 0 25 46 71 103 105 20 13 37 26 37 30 0 4 20 20 45 35 25 16 51 36
57 44 12 14 118 88 232 160 28 18 53 37 54 42 5 13 4 12 -38 -12z m-601 -477
c21 -14 9 -417 -18 -586 -12 -71 -21 -131 -21 -132 0 -4 -74 26 -168 67 -68
29 -309 80 -378 80 -34 0 -30 15 21 73 25 29 45 55 45 60 0 4 27 42 61 85 96
122 213 224 366 318 19 12 39 26 45 32 14 14 28 15 47 3z m4111 -2431 c-15
-37 -20 -75 -20 -138 0 -58 -3 -82 -10 -72 -5 8 -12 12 -15 8 -4 -3 3 -16 15
-28 12 -12 19 -24 17 -27 -3 -3 3 -21 13 -41 10 -21 21 -55 24 -77 4 -29 3
-35 -4 -20 -9 19 -5 -79 5 -131 3 -15 -4 -25 -28 -38 l-32 -17 28 21 c15 12
24 26 21 31 -3 6 -12 2 -20 -8 -13 -17 -13 -17 -13 2 -1 11 5 57 13 102 12 76
12 86 -5 124 -11 22 -16 46 -12 52 4 6 0 8 -10 4 -16 -6 -21 2 -18 30 1 6 -3
14 -9 18 -5 3 -9 21 -9 38 1 29 2 30 8 7 8 -32 31 -37 31 -7 0 18 -2 19 -11 7
-8 -12 -9 -9 -5 12 3 14 9 33 12 42 3 9 1 16 -5 16 -6 0 -12 -10 -12 -22 -1
-16 -3 -18 -6 -6 -3 13 7 44 35 102 3 5 0 6 -5 3 -19 -12 -8 32 12 47 33 25
36 19 15 -34z m-323 -1402 c2 -27 -15 -60 -27 -53 -6 3 -7 0 -4 -8 3 -8 -12
-32 -33 -55 -21 -23 -44 -50 -52 -61 -12 -17 -16 -18 -25 -6 -9 12 -16 8 -36
-20 -14 -18 -35 -36 -46 -39 -12 -3 -48 -31 -80 -61 -36 -34 -65 -53 -74 -50
-8 4 -11 3 -8 -1 10 -10 -11 -46 -22 -39 -6 3 -7 -1 -4 -9 3 -9 1 -17 -5 -17
-6 -1 -15 -2 -21 -3 -5 0 -10 -5 -9 -9 0 -4 -11 -22 -25 -38 -15 -17 -26 -35
-26 -40 0 -6 -5 -7 -10 -4 -6 4 -9 3 -8 -2 2 -5 -13 -42 -33 -83 -48 -99 -64
-149 -51 -162 11 -11 4 -174 -8 -198 -17 -31 -32 73 -27 185 7 153 44 254 129
354 34 39 67 71 75 71 7 0 32 18 55 40 40 37 67 53 53 31 -3 -5 -1 -12 4 -15
5 -4 8 2 6 11 -3 21 43 66 58 56 5 -3 7 -2 4 4 -3 5 20 35 52 66 56 55 80 71
65 45 -4 -8 -3 -10 2 -5 5 5 9 12 9 17 0 9 107 120 115 120 3 0 6 -10 7 -22z
m716 -7631 c-1 -46 -8 -64 -31 -94 -32 -41 -49 -79 -31 -67 8 4 9 -1 4 -17 -4
-13 -8 -28 -9 -34 -1 -12 -24 -23 -48 -24 -12 -1 -18 6 -18 21 0 31 51 129 63
121 6 -4 7 -1 2 6 -4 7 0 29 8 49 8 21 21 52 27 70 19 49 35 34 33 -31z"/>
</g>
</svg>
