<?xml version="1.0" standalone="no"?>
<!DOCTYPE svg PUBLIC "-//W3C//DTD SVG 20010904//EN"
 "http://www.w3.org/TR/2001/REC-SVG-20010904/DTD/svg10.dtd">
<svg version="1.0" xmlns="http://www.w3.org/2000/svg"
 width="717.000000pt" height="429.000000pt" viewBox="0 0 717.000000 429.000000"
 preserveAspectRatio="xMidYMid meet">
<metadata>
Created by potrace 1.16, written by Peter Selinger 2001-2019
</metadata>
<g transform="translate(0.000000,429.000000) scale(0.100000,-0.100000)"
fill="#000000" stroke="none">
<path d="M2920 3735 c-10 -12 -9 -40 4 -136 9 -67 17 -124 18 -128 2 -19 -4
-20 -26 -5 -36 23 -75 2 -103 -56 -51 -100 -9 -260 67 -260 17 0 80 62 80 78
0 4 4 14 10 22 7 12 13 9 30 -13 12 -15 30 -27 40 -27 24 0 62 51 85 113 10
26 19 47 20 47 2 0 12 -16 24 -35 39 -67 113 -70 183 -7 43 39 100 120 113
162 7 22 6 23 -8 12 -9 -8 -27 -33 -41 -56 -61 -104 -154 -148 -192 -90 -17
25 -17 26 33 77 59 60 73 85 73 125 0 39 -21 56 -59 47 -52 -11 -106 -91 -147
-217 -24 -73 -58 -128 -80 -128 -27 0 -36 54 -38 225 -1 152 -3 175 -23 218
-22 48 -41 58 -63 32z m12 -330 c36 -44 40 -63 23 -115 -30 -91 -78 -111 -109
-45 -37 78 0 226 50 197 6 -4 23 -20 36 -37z"/>
<path d="M4395 3666 c-97 -31 -194 -103 -271 -201 -69 -88 -94 -147 -94 -223
0 -100 40 -152 117 -152 55 0 155 51 214 110 27 27 58 50 68 50 23 0 48 28 35
39 -15 14 -144 62 -181 68 -30 5 -35 3 -32 -12 2 -10 23 -25 46 -34 71 -27 72
-34 15 -89 -55 -54 -106 -82 -162 -89 -31 -4 -40 -1 -54 18 -23 34 -20 76 13
144 92 193 316 381 400 335 34 -17 27 -63 -15 -110 -20 -22 -42 -40 -50 -40
-19 0 -27 -18 -20 -46 14 -54 92 -14 134 69 39 79 27 136 -35 162 -42 18 -74
18 -128 1z"/>
<path d="M3618 3602 c-16 -9 -28 -20 -28 -24 0 -5 -4 -8 -10 -8 -5 0 -10 9
-10 21 0 16 -5 20 -27 17 -27 -3 -29 -8 -60 -128 -39 -150 -39 -152 -11 -148
23 3 36 30 58 114 11 44 78 124 104 124 23 0 27 -32 11 -90 -36 -128 -30 -160
28 -160 38 0 86 36 136 103 65 89 55 96 -21 14 -106 -112 -129 -105 -91 27 38
131 4 190 -79 138z"/>
<path d="M2540 3542 l-23 -19 30 -74 c49 -120 68 -182 54 -187 -6 -2 -11 -14
-11 -26 0 -25 -29 -116 -37 -116 -3 0 -18 11 -35 25 -68 57 -158 21 -158 -64
0 -91 68 -193 138 -207 27 -5 36 -2 61 25 35 37 41 74 25 138 -7 26 -8 55 -4
63 4 8 14 43 20 78 7 34 16 62 19 62 4 0 22 -43 41 -95 33 -92 52 -117 74 -95
8 8 -12 79 -68 245 -43 129 -84 242 -90 251 -11 14 -14 14 -36 -4z"/>
<path d="M4615 3280 c-3 -6 -40 -35 -80 -65 -41 -30 -79 -63 -84 -74 -16 -30
-13 -66 8 -92 16 -20 28 -24 71 -22 l51 1 -133 -99 c-95 -72 -134 -107 -136
-123 -7 -50 26 -35 155 71 70 57 161 128 202 156 111 78 135 101 128 121 -12
31 -35 29 -73 -8 -64 -62 -203 -101 -227 -64 -15 22 6 45 94 103 81 53 86 61
63 86 -19 21 -30 24 -39 9z"/>
<path d="M1955 3056 c-53 -53 -48 -177 14 -301 78 -158 231 -285 342 -285 43
0 95 24 114 54 38 57 8 191 -62 283 -19 25 -36 59 -37 74 -2 33 -10 44 -25 34
-20 -12 -101 -159 -101 -182 0 -37 24 -26 50 22 13 24 30 47 37 49 7 3 26 -12
43 -34 67 -85 96 -206 56 -236 -51 -37 -133 2 -246 116 -130 132 -204 273
-180 346 10 29 16 34 42 34 38 0 95 -55 104 -100 6 -28 10 -31 38 -28 98 10
-29 178 -134 178 -19 0 -40 -9 -55 -24z"/>
<path d="M4788 2968 c-65 -28 -118 -56 -118 -62 0 -6 9 -17 20 -24 16 -10 28
-8 70 8 91 36 240 21 214 -21 -7 -12 -92 -50 -152 -69 -51 -16 -60 -27 -39
-47 13 -13 21 -13 74 6 137 49 280 2 156 -50 -114 -48 -133 -62 -133 -94 0
-50 93 -95 196 -95 56 0 84 7 84 21 0 5 -33 9 -72 10 -88 1 -143 18 -143 45 0
13 19 26 73 49 80 33 122 66 122 96 0 24 -52 57 -102 65 l-38 7 25 29 c13 15
22 35 19 43 -9 22 -49 44 -95 51 l-42 7 24 18 c20 15 22 21 13 36 -6 10 -17
19 -25 20 -8 1 -67 -21 -131 -49z"/>
<path d="M3295 2764 c-83 -9 -193 -37 -275 -71 -259 -109 -445 -313 -540 -593
-29 -84 -33 -111 -38 -236 -8 -248 39 -413 174 -605 135 -192 332 -319 594
-380 79 -19 289 -17 375 4 224 53 425 176 540 330 21 28 40 41 81 53 84 24
142 62 228 146 43 43 81 78 84 78 3 0 45 -25 94 -56 81 -51 92 -55 115 -45
l25 12 -38 27 c-22 15 -67 45 -101 67 -64 40 -72 52 -52 72 8 8 36 -5 102 -48
86 -55 117 -69 117 -51 -1 17 -19 32 -91 76 -103 62 -104 63 -79 120 49 115
66 266 39 356 -27 95 -109 160 -202 160 -22 0 -67 -7 -99 -16 -32 -9 -60 -15
-62 -13 -1 2 -26 49 -55 103 -50 95 -162 246 -182 246 -5 0 -6 -11 -2 -27 12
-43 7 -151 -11 -227 -21 -88 -9 -122 45 -136 37 -10 69 -45 69 -76 0 -13 3
-14 14 -5 11 10 20 6 40 -16 14 -15 26 -31 26 -35 0 -5 7 -8 16 -8 23 0 53
-41 54 -73 0 -32 -28 -90 -64 -130 -21 -24 -28 -27 -45 -18 -11 7 -25 20 -31
31 -6 11 -17 20 -24 20 -7 0 -23 11 -36 26 -14 14 -43 33 -66 44 -23 10 -45
27 -49 39 -3 12 -12 21 -19 21 -8 0 -19 7 -26 15 -19 23 -24 19 -68 -38 l-40
-53 29 -16 c40 -24 56 -83 41 -155 -6 -31 -19 -64 -27 -74 -9 -9 -58 -28 -108
-41 -82 -21 -88 -23 -52 -26 60 -4 85 -11 85 -25 0 -6 -33 -43 -73 -82 -40
-38 -90 -92 -112 -119 -21 -27 -110 -120 -198 -208 -138 -137 -163 -158 -190
-158 -38 0 -107 18 -107 28 0 4 37 27 82 52 82 45 238 182 238 208 0 7 -26 -7
-57 -31 -96 -74 -204 -120 -353 -151 l-75 -15 -55 36 c-83 56 -220 199 -268
279 -81 136 -122 273 -125 424 -2 86 1 100 26 151 15 31 41 74 57 94 37 47 37
54 0 62 -22 4 -30 11 -30 27 0 25 69 163 107 216 32 43 95 110 103 110 21 0
61 -166 53 -217 -3 -15 -14 -59 -25 -96 l-21 -68 25 -27 c29 -31 50 -70 75
-139 19 -54 24 -226 7 -255 -5 -9 -30 -32 -56 -50 -48 -35 -102 -98 -131 -155
-26 -49 -21 -56 22 -29 57 36 199 68 317 71 84 3 113 8 180 34 77 30 208 102
229 126 6 6 30 17 55 24 114 32 266 152 356 281 37 52 124 222 124 242 0 7 7
31 15 53 9 24 14 79 14 140 1 85 -3 108 -23 151 -28 61 -83 108 -142 123 -23
6 -46 16 -50 22 -31 51 -340 108 -499 93z m-134 -266 c1 -7 1 -16 0 -20 -1 -8
88 -68 301 -200 129 -80 150 -100 130 -120 -12 -12 -2 -17 -277 157 -141 89
-172 105 -187 96 -10 -6 -25 -11 -33 -11 -22 0 -19 52 6 84 21 27 58 35 60 14z
m575 -143 c23 -31 26 -42 22 -93 -5 -65 -50 -170 -95 -218 -81 -87 -154 -113
-219 -79 l-29 15 41 0 c23 0 56 6 74 13 50 22 116 93 148 160 44 92 48 143 17
220 -12 30 13 19 41 -18z m174 -91 c0 -36 -27 -129 -55 -189 -62 -133 -190
-264 -309 -315 -50 -21 -116 -27 -116 -10 0 6 7 10 17 10 23 0 130 62 185 108
122 102 223 259 252 395 8 34 26 35 26 1z m694 -381 c-25 -190 -146 -392 -304
-511 -60 -45 -200 -92 -235 -78 -25 9 -17 14 50 31 148 39 330 211 408 385 43
96 57 134 57 151 0 16 20 59 27 59 1 0 0 -17 -3 -37z"/>
<path d="M4014 696 c-35 -15 -72 -58 -80 -93 -9 -36 2 -66 52 -132 57 -76 66
-124 35 -174 -39 -64 -101 -50 -101 23 0 33 -3 37 -20 33 -28 -7 -36 -48 -17
-88 21 -43 63 -54 114 -28 49 24 73 72 73 145 0 50 -4 62 -35 100 -44 55 -68
104 -60 128 9 28 63 70 90 70 34 0 50 -32 36 -72 -17 -47 -15 -49 39 -42 28 4
50 3 50 -2 -1 -5 -7 -38 -15 -74 -21 -96 -20 -157 4 -170 28 -15 36 -13 72 17
22 19 34 24 37 15 13 -39 68 -56 92 -27 26 31 27 2 2 -100 -20 -81 -24 -107
-14 -117 6 -6 14 -9 17 -6 3 3 21 72 39 154 19 82 40 170 47 196 10 35 10 51
2 59 -16 16 -33 2 -33 -28 0 -32 -48 -121 -72 -134 -40 -22 -49 16 -22 92 10
26 14 54 11 63 -10 27 -35 7 -42 -34 -8 -46 -55 -115 -85 -125 -29 -9 -53 13
-47 44 3 14 19 62 35 106 l30 80 51 3 c28 2 51 7 51 11 0 10 -35 21 -67 21
-20 0 -23 5 -23 35 0 47 -25 46 -47 -2 -21 -44 -63 -60 -63 -24 0 33 -20 68
-47 80 -31 14 -51 13 -89 -3z"/>
<path d="M2566 670 c-14 -17 -33 -56 -42 -86 l-15 -54 -51 0 c-60 0 -62 -22
-2 -30 36 -5 39 -7 38 -35 -1 -16 -12 -56 -24 -87 -20 -54 -24 -58 -53 -58
-43 0 -79 -26 -75 -53 4 -27 30 -33 77 -18 31 10 41 9 76 -8 47 -25 88 -27
109 -5 26 26 18 34 -28 28 -32 -5 -52 -2 -74 11 l-30 18 24 51 c13 28 29 75
35 104 10 43 20 59 56 88 52 43 75 84 71 127 -3 28 -7 32 -34 35 -25 2 -37 -3
-58 -28z"/>
<path d="M3050 481 c-54 -55 -98 -70 -85 -28 17 55 17 67 3 67 -21 0 -48 -33
-48 -59 0 -28 -22 -71 -50 -96 -18 -16 -23 -17 -30 -5 -12 19 -12 64 -1 113 5
20 5 39 1 42 -14 9 -40 -25 -40 -51 0 -34 -24 -78 -54 -98 -58 -38 -70 -10
-37 87 20 57 14 80 -14 57 -31 -26 -47 -154 -23 -178 20 -20 53 -13 83 18 31
33 45 38 45 16 0 -8 8 -24 18 -36 23 -29 47 -18 86 38 22 33 34 41 66 44 37 3
38 2 44 -34 13 -80 89 -88 170 -17 62 55 59 69 -5 19 -59 -46 -101 -53 -120
-19 -9 18 -8 24 7 32 11 6 36 27 57 48 47 46 48 82 4 87 -23 3 -38 -6 -77 -47z"/>
<path d="M4676 496 c-45 -46 -60 -97 -41 -141 25 -62 88 -58 165 12 27 25 50
50 50 55 0 6 -20 -8 -44 -30 -48 -45 -76 -57 -112 -48 -35 9 -30 39 14 72 51
39 62 55 59 84 -4 41 -47 39 -91 -4z"/>
<path d="M3406 507 c-22 -16 -45 -140 -30 -165 17 -27 51 -26 89 4 l35 26 0
-26 c0 -40 27 -32 39 12 6 20 11 42 11 49 0 20 51 73 71 73 22 0 23 -15 5 -85
-26 -98 20 -114 96 -34 26 28 48 56 48 62 0 5 -20 -12 -44 -38 -25 -26 -50
-45 -58 -43 -15 6 -15 11 3 91 12 51 11 59 -4 74 -16 16 -19 16 -52 0 -19 -9
-35 -12 -35 -7 0 6 -9 10 -20 10 -14 0 -22 -11 -31 -42 -13 -49 -76 -118 -108
-118 -27 0 -27 20 -1 95 21 61 16 84 -14 62z"/>
</g>
</svg>
