<?xml version="1.0" standalone="no"?>
<!DOCTYPE svg PUBLIC "-//W3C//DTD SVG 20010904//EN"
 "http://www.w3.org/TR/2001/REC-SVG-20010904/DTD/svg10.dtd">
<svg version="1.0" xmlns="http://www.w3.org/2000/svg"
 width="800.000000pt" height="800.000000pt" viewBox="0 0 800.000000 800.000000"
 preserveAspectRatio="xMidYMid meet">
<metadata>
Created by potrace 1.16, written by Peter Selinger 2001-2019
</metadata>
<g transform="translate(0.000000,800.000000) scale(0.100000,-0.100000)"
fill="#000000" stroke="none">
<path d="M2605 6980 c-217 -47 -394 -214 -450 -426 -20 -76 -20 -222 0 -298
43 -161 160 -304 306 -374 98 -47 162 -62 262 -62 253 1 472 162 558 410 33
95 33 248 0 349 -59 179 -189 312 -370 379 -73 27 -233 38 -306 22z"/>
<path d="M1306 6754 c-9 -8 -18 -26 -21 -40 -3 -13 -7 -34 -10 -47 -6 -32 12
-182 36 -302 67 -323 277 -868 449 -1160 56 -96 56 -95 46 -140 l-6 -30 15 30
16 30 -4 -27 c-4 -28 7 -39 16 -15 3 7 6 5 6 -5 1 -10 4 -18 9 -18 4 0 18 -17
32 -38 14 -20 43 -57 65 -80 22 -24 43 -49 47 -56 6 -11 -12 -79 -67 -256 -5
-17 -4 -22 3 -15 6 6 25 60 42 120 18 61 36 113 39 118 4 4 24 -8 43 -27 55
-54 95 -190 74 -256 -5 -19 -5 -21 3 -10 6 8 11 12 12 8 1 -5 3 -12 4 -18 1
-5 4 -101 5 -212 1 -112 6 -187 10 -168 4 22 9 30 13 20 6 -16 37 -397 36
-445 -1 -29 -1 -29 -15 10 -12 36 -13 37 -9 8 2 -18 0 -35 -5 -38 -6 -4 -11 8
-11 27 l-2 33 -7 -35 c-6 -35 -12 -31 -24 15 -3 11 -4 5 -2 -12 3 -43 -12 -43
-17 0 l-4 32 -1 -32 c-3 -56 -22 -36 -24 25 l-1 57 -7 -65 c-4 -36 -7 -50 -8
-32 -1 17 -5 32 -10 32 -4 0 -6 -17 -4 -37 2 -21 -8 -85 -22 -143 -36 -143
-35 -140 -27 -140 5 0 15 30 24 68 9 37 14 49 12 27 -57 -486 -79 -715 -107
-1100 -7 -99 -13 -364 -13 -635 0 -411 2 -477 19 -565 27 -149 55 -205 102
-205 77 0 145 215 274 864 126 638 177 841 255 1002 45 93 98 154 135 154 29
0 85 -54 118 -113 84 -149 138 -357 278 -1057 111 -558 166 -754 230 -821 34
-36 57 -37 83 -3 63 80 82 236 88 714 5 401 -8 769 -42 1152 -9 102 -11 167
-5 181 8 19 110 441 110 456 0 3 -4 1 -8 -5 -5 -5 -31 -104 -57 -221 -27 -117
-50 -211 -52 -209 -2 2 -9 54 -16 115 -10 91 -10 114 0 123 19 15 16 41 -7 61
-24 20 -24 34 -5 107 13 50 13 86 -1 44 -16 -51 -24 -58 -19 -16 3 24 2 41 -3
38 -5 -3 -16 41 -25 97 -9 56 -21 120 -26 142 l-9 40 -2 -40 c-3 -38 -3 -38
-7 -7 -2 17 -8 32 -12 32 -4 0 -6 -13 -3 -30 3 -18 0 -30 -7 -30 -6 0 -12 15
-12 33 l-2 32 -7 -35 c-4 -19 -8 -26 -9 -15 -1 11 -6 27 -12 35 -8 11 -9 7 -4
-17 4 -18 3 -33 -2 -33 -5 0 -17 98 -26 218 -18 230 -20 277 -7 227 l8 -30 1
28 c1 38 21 34 22 -5 2 -32 2 -32 9 7 5 30 8 33 9 13 0 -15 4 -29 9 -31 4 -3
6 58 4 134 -2 77 1 167 7 202 6 34 15 86 20 115 13 71 43 119 108 172 372 305
752 1044 839 1631 29 198 7 300 -65 307 -52 5 -89 -47 -231 -328 -175 -346
-281 -504 -431 -645 -155 -146 -361 -247 -579 -286 -122 -21 -368 -17 -474 9
-209 52 -403 180 -555 366 -127 156 -177 235 -346 546 -64 118 -132 236 -151
261 -55 75 -104 97 -138 63z m1893 -2534 c0 20 5 30 10 25 9 -11 46 -454 37
-462 -2 -3 -9 10 -15 28 l-10 34 0 -30 c2 -47 -3 -53 -11 -15 l-7 35 -2 -30
c-1 -24 -6 -31 -21 -31 -15 0 -20 7 -20 28 0 15 -4 28 -8 28 -5 0 -7 -13 -4
-30 3 -18 0 -30 -7 -30 -7 0 -11 21 -11 55 0 30 -4 55 -8 55 -5 0 -8 -26 -6
-57 1 -32 0 -46 -2 -30 -3 15 -10 27 -15 27 -5 0 -7 -11 -3 -25 4 -15 2 -25
-4 -25 -6 0 -13 15 -15 33 -4 30 -4 30 -6 -8 l-3 -40 -14 35 c-11 30 -13 31
-13 10 2 -42 -3 -47 -11 -10 l-7 35 -2 -33 c-2 -58 -21 -24 -23 41 l-2 62 -6
-70 c-4 -38 -7 -58 -8 -42 -1 15 -6 27 -11 27 -4 0 -6 -11 -3 -25 2 -15 0 -25
-7 -25 -6 0 -12 12 -12 28 -2 24 -2 23 -9 -8 -6 -31 -8 -32 -9 -8 0 15 -6 30
-12 34 -8 4 -9 -3 -4 -25 4 -20 3 -31 -4 -31 -6 0 -12 15 -12 33 l-2 32 -7
-35 -6 -35 -7 35 c-4 19 -9 46 -11 60 -2 14 -4 -1 -3 -33 2 -56 -12 -84 -14
-29 -1 24 -2 23 -9 -8 -6 -35 -13 -30 -23 15 -3 12 -6 6 -7 -15 l-2 -35 -8 30
-8 30 -1 -27 c-1 -39 -21 -35 -22 5 l-2 32 -7 -35 c-9 -41 -8 -45 -25 135
l-14 140 5 -130 c3 -71 8 -140 11 -152 3 -14 1 -23 -6 -23 -6 0 -12 15 -12 33
-2 31 -2 31 -9 -8 -4 -22 -8 -31 -9 -20 -1 11 -6 27 -12 35 -8 12 -10 10 -8
-10 2 -42 -3 -47 -11 -10 l-7 35 -2 -32 c-1 -26 -5 -33 -21 -33 -15 0 -20 7
-20 26 0 14 -4 23 -9 20 -4 -3 -6 -18 -3 -32 3 -19 1 -25 -7 -20 -6 4 -12 19
-12 34 -1 24 -3 23 -9 -8 -6 -31 -8 -32 -9 -8 0 15 -6 30 -13 34 -8 5 -9 -2
-5 -24 4 -19 2 -32 -3 -32 -6 0 -11 15 -11 33 l-2 32 -7 -35 -6 -35 -12 35
-12 35 3 -32 c2 -18 0 -33 -5 -33 -4 0 -8 12 -8 28 0 15 -4 33 -9 41 -5 8 -7
-5 -3 -34 3 -35 2 -46 -7 -41 -6 4 -12 22 -12 39 -2 30 -2 30 -9 -8 -7 -39 -7
-39 -9 -7 0 17 -5 32 -11 32 -5 0 -7 -13 -3 -30 3 -19 1 -30 -6 -30 -6 0 -12
15 -12 33 l-2 32 -7 -35 c-4 -19 -9 -27 -10 -17 -1 9 -3 21 -4 26 0 5 -5 13
-10 18 -5 5 -6 -6 -3 -24 4 -19 2 -33 -3 -33 -6 0 -10 17 -11 38 0 20 -4 46
-9 57 -5 12 -7 -5 -3 -45 6 -67 -3 -76 -18 -18 l-8 33 1 -30 c0 -47 -4 -53
-12 -15 l-7 35 -2 -32 c0 -18 -5 -33 -11 -33 -5 0 -11 15 -11 33 l-2 32 -7
-35 c-6 -31 -8 -32 -9 -8 0 15 -5 30 -11 33 -6 4 -7 -6 -4 -25 4 -19 2 -30 -5
-30 -6 0 -11 13 -11 29 0 16 -7 115 -16 221 -8 106 -13 200 -11 209 3 9 5 4 6
-11 0 -15 5 -30 11 -33 6 -4 7 6 4 25 -4 19 -2 30 5 30 6 0 12 -15 13 -32 l1
-33 5 35 4 35 14 -35 14 -35 -6 33 c-3 19 -1 32 5 32 5 0 12 -15 14 -32 4 -31
4 -31 5 6 3 55 16 36 23 -32 l6 -57 3 65 c2 56 4 60 10 30 l7 -35 2 33 c0 17
6 32 11 32 6 0 11 -15 11 -32 l2 -33 7 35 c7 31 7 32 9 8 0 -16 5 -28 10 -28
4 0 6 11 3 25 -2 15 0 25 7 25 6 0 12 -12 12 -27 1 -25 2 -24 8 7 l7 35 7 -40
c4 -22 12 -105 18 -185 11 -143 19 -191 19 -113 0 35 -12 187 -24 296 -2 20 0
37 5 37 5 0 10 -15 10 -32 l2 -33 7 35 6 35 11 -35 11 -35 2 35 3 35 7 -35 7
-35 2 33 c0 17 6 32 11 32 6 0 11 -15 11 -32 2 -31 2 -31 8 7 l7 40 12 -65 11
-65 -4 63 c-3 37 -1 62 5 62 6 0 11 -15 11 -32 l2 -33 7 35 c4 19 8 26 9 15 1
-11 6 -27 12 -35 8 -11 9 -7 5 18 -3 18 -1 32 4 32 6 0 11 -15 11 -32 2 -31 2
-31 9 7 l6 40 9 -40 9 -40 6 40 c5 36 7 31 17 -45 l12 -85 -4 83 c-3 49 0 82
5 82 6 0 11 -15 11 -32 l2 -33 7 35 c6 31 8 32 9 8 0 -15 6 -30 12 -34 8 -4 9
3 4 25 -4 20 -3 31 4 31 6 0 12 -15 12 -32 2 -32 2 -32 9 7 4 22 8 31 9 20 1
-11 6 -27 12 -35 8 -11 9 -7 5 18 -3 18 -1 32 4 32 6 0 10 -19 10 -42 0 -24 5
-50 10 -58 7 -10 8 3 4 43 -7 63 0 75 16 25 l10 -33 -3 33 c-2 17 0 32 5 32 4
0 9 -15 10 -32 l1 -33 4 33 c2 17 8 32 14 32 5 0 10 -15 10 -32 2 -32 2 -32 9
7 5 30 8 33 9 13 0 -15 5 -30 11 -33 6 -4 7 6 4 25 -4 18 -2 30 4 30 5 0 13
-44 17 -102 4 -57 11 -132 16 -168 6 -51 7 -40 3 50 -2 63 -7 140 -9 170 l-5
55 15 -35 15 -35 -3 33 c-2 17 0 32 5 32 4 0 9 -15 9 -32 2 -32 2 -31 9 7 l6
40 8 -30 c13 -51 14 -51 17 -10 l2 40 7 -35 7 -35 2 33 c2 53 21 27 21 -29 0
-27 3 -49 8 -49 4 0 6 26 5 57 -1 32 1 47 4 33 2 -14 9 -29 14 -35 6 -6 7 3 3
23 -4 21 -3 32 5 32 6 0 12 -15 13 -32 l1 -33 5 35 4 35 14 -35 14 -35 -1 30
c-2 47 3 53 11 15 l7 -35 2 35z"/>
<path d="M5330 3724 c-71 -9 -204 -47 -269 -76 -36 -16 -120 -49 -186 -73
-342 -123 -482 -197 -625 -331 -270 -255 -417 -756 -335 -1144 86 -409 421
-755 889 -919 49 -17 146 -44 215 -59 118 -25 142 -27 381 -27 226 0 268 3
368 23 297 60 536 179 707 352 l69 70 -1059 0 c-657 0 -1086 4 -1130 10 -134
20 -226 92 -277 217 -23 58 -23 60 -23 503 0 415 1 448 19 495 41 107 146 181
298 210 95 18 117 18 1221 10 787 -6 937 -5 937 6 0 22 -122 196 -200 286
-186 215 -433 364 -702 422 -96 20 -237 32 -298 25z"/>
<path d="M6598 2822 c-16 -3 -18 -18 -18 -148 l0 -144 -25 0 -25 0 0 145 0
145 -25 0 -25 0 0 -145 0 -145 -25 0 -25 0 0 145 c0 138 -1 145 -20 145 -19 0
-20 -7 -20 -145 l0 -145 -30 0 c-19 0 -30 5 -29 13 1 6 1 72 0 145 -1 125 -2
132 -21 132 -19 0 -20 -7 -20 -145 l0 -145 -25 0 -25 0 0 145 0 145 -25 0 -25
0 0 -280 0 -280 -30 0 -30 0 0 280 c0 273 0 280 -20 280 -19 0 -20 -7 -20
-145 l0 -145 -25 0 -25 0 0 145 c0 138 -1 145 -20 145 -19 0 -20 -7 -20 -145
l0 -145 -27 0 -28 0 3 145 3 145 -25 0 -26 0 0 -145 0 -145 -25 0 -25 0 0 145
c0 138 -1 145 -20 145 -19 0 -20 -7 -20 -145 l0 -145 -30 0 -30 0 0 145 c0
138 -1 145 -20 145 -19 0 -20 -7 -20 -145 l0 -145 -25 0 -25 0 0 145 0 145
-30 0 -30 0 0 -280 0 -280 -25 0 -25 0 0 280 c0 273 0 280 -20 280 -19 0 -20
-7 -20 -145 l0 -145 -25 0 -25 0 0 145 c0 138 -1 145 -20 145 -19 0 -20 -7
-20 -145 l0 -145 -30 0 -30 0 0 145 c0 138 -1 145 -20 145 -19 0 -20 -7 -20
-145 l0 -145 -25 0 -25 0 0 145 0 145 -25 0 -25 0 0 -145 0 -145 -25 0 -25 0
0 145 c0 138 -1 145 -20 145 -19 0 -20 -7 -20 -145 l0 -145 -30 0 -30 0 0 145
0 145 -25 0 -25 0 0 -280 0 -280 -25 0 -25 0 0 280 0 280 -311 0 c-295 0 -313
-1 -344 -20 -66 -41 -66 -42 -63 -515 l3 -426 42 -40 42 -39 1199 0 1199 0 34
23 c69 46 69 47 69 487 0 231 -4 410 -10 431 -6 19 -21 46 -35 59 l-25 23 0
-271 0 -272 -30 0 -30 0 0 280 c0 242 -2 280 -15 280 -13 0 -15 -23 -15 -145
l0 -145 -30 0 -29 0 -3 148 c-3 134 -5 147 -20 144z m-1908 -165 l0 -133 49
-13 c86 -22 159 -102 176 -194 20 -103 -59 -223 -166 -255 l-59 -17 0 -112 0
-113 -147 0 c-129 0 -152 3 -180 20 -65 39 -65 41 -63 467 1 425 1 426 63 463
28 17 51 20 180 20 l147 0 0 -133z"/>
</g>
</svg>
