<?xml version="1.0" standalone="no"?>
<!DOCTYPE svg PUBLIC "-//W3C//DTD SVG 20010904//EN"
 "http://www.w3.org/TR/2001/REC-SVG-20010904/DTD/svg10.dtd">
<svg version="1.0" xmlns="http://www.w3.org/2000/svg"
 width="800.000000pt" height="800.000000pt" viewBox="0 0 800.000000 800.000000"
 preserveAspectRatio="xMidYMid meet">
<metadata>
Created by potrace 1.16, written by Peter Selinger 2001-2019
</metadata>
<g transform="translate(0.000000,800.000000) scale(0.100000,-0.100000)"
fill="#000000" stroke="none">
<path d="M3440 7360 c0 -6 44 -60 98 -118 403 -441 636 -812 692 -1102 18 -93
14 -230 -10 -301 -75 -222 -288 -367 -681 -464 -255 -63 -272 -68 -330 -107
-95 -64 -194 -178 -244 -282 -63 -132 -76 -188 -82 -361 -4 -112 -1 -173 11
-240 l16 -90 -23 -17 c-27 -20 -31 -58 -9 -75 9 -7 12 -13 8 -13 -5 0 -3 -6 4
-14 6 -8 19 -12 28 -9 15 6 16 5 2 -13 -11 -14 -8 -14 11 4 35 31 48 28 18 -5
-13 -14 -18 -23 -11 -19 7 4 12 2 12 -5 0 -7 13 0 30 16 16 15 27 32 24 36 -3
5 2 6 11 3 14 -6 11 -12 -16 -40 l-33 -34 18 -53 c11 -28 41 -98 67 -155 l48
-103 -20 -46 c-11 -25 -17 -48 -14 -51 7 -7 9 -3 27 43 9 22 23 41 31 43 13 3
13 -4 -4 -47 -10 -28 -15 -51 -10 -51 5 0 17 22 26 49 11 33 21 48 29 45 11
-4 10 -15 -5 -55 -10 -27 -15 -49 -10 -49 5 0 17 22 26 49 11 34 21 48 30 45
10 -4 9 -16 -6 -59 -23 -65 -36 -147 -20 -125 6 8 11 21 11 28 0 8 9 45 21 82
15 49 25 67 34 64 10 -4 11 -12 6 -27 -16 -43 -21 -77 -12 -77 5 0 14 23 21
50 8 33 17 50 27 50 11 0 14 -7 9 -26 -23 -90 -17 -116 7 -33 8 27 20 45 30
47 14 3 16 -1 8 -20 -15 -43 -21 -78 -13 -78 5 0 15 19 22 43 7 23 17 45 23
49 7 4 6 41 -4 120 l-14 113 28 43 c16 24 27 46 24 48 -3 3 -18 -13 -33 -35
-23 -36 -44 -52 -44 -36 0 17 123 185 176 240 22 23 59 58 84 79 25 21 34 33
20 26 -45 -23 -184 -173 -245 -262 -63 -94 -94 -119 -50 -40 l26 47 -25 -27
c-14 -16 -29 -36 -35 -45 -5 -10 -13 -15 -16 -11 -4 4 2 19 12 35 30 43 35 53
26 53 -5 0 -19 -18 -33 -40 -14 -22 -31 -40 -39 -40 -9 0 -5 11 13 34 38 50
32 58 -8 11 -19 -22 -37 -37 -40 -34 -3 3 8 22 25 42 17 20 26 37 21 37 -6 0
-24 -17 -40 -38 -17 -20 -33 -34 -36 -31 -3 3 24 41 60 85 l66 79 -76 -79
c-77 -80 -111 -100 -55 -33 17 20 27 37 22 37 -4 0 -21 -16 -36 -35 -40 -50
-55 -43 -16 8 l33 42 -41 -39 c-31 -28 -45 -36 -57 -29 -14 7 -11 14 16 48
l31 40 -39 -37 c-59 -56 -66 -46 -9 13 64 66 213 177 290 217 33 17 56 31 52
32 -29 1 -179 -94 -281 -178 -43 -35 -52 -39 -72 -30 -13 6 -24 15 -24 20 0 5
-4 7 -9 4 -5 -4 -11 -1 -13 6 -5 13 56 68 73 68 5 0 9 5 9 11 0 12 -95 -55
-95 -68 0 -4 -4 -14 -8 -20 -5 -8 -3 -13 4 -13 8 0 8 -4 -1 -15 -7 -8 -17 -15
-22 -15 -6 0 -5 7 2 15 7 8 9 15 5 15 -4 0 -2 7 5 15 12 15 0 22 -14 8 -13
-13 -44 -12 -56 2 -6 7 -17 13 -23 11 -7 -1 -8 -1 -4 2 4 2 2 10 -4 18 -9 12
-9 18 0 27 10 9 11 8 6 -5 -7 -17 -3 -17 43 -3 15 5 21 13 18 22 -3 8 -6 17
-6 19 0 3 -4 2 -10 -1 -5 -3 -10 -1 -10 4 0 25 203 129 310 160 l65 18 7 62
c9 83 16 101 39 101 20 0 61 -55 80 -107 6 -18 16 -33 23 -33 6 0 17 -13 24
-28 22 -50 174 -106 325 -119 37 -3 66 -9 65 -12 -2 -3 -18 -34 -35 -68 -18
-34 -51 -121 -72 -194 -22 -72 -43 -134 -46 -137 -13 -13 -17 11 -8 43 6 19 8
35 4 35 -4 0 -13 -18 -20 -40 -7 -23 -18 -40 -26 -40 -18 0 -18 0 0 43 17 42
18 47 6 47 -4 0 -14 -20 -21 -44 -8 -31 -16 -43 -26 -39 -11 4 -11 11 1 40 18
42 18 43 5 43 -5 0 -15 -18 -21 -40 -7 -22 -18 -40 -26 -40 -16 0 -16 0 3 45
8 20 13 40 10 42 -3 3 -15 -15 -26 -41 -11 -26 -24 -45 -30 -41 -11 7 -3 29
40 114 16 34 26 61 22 61 -5 0 -27 -39 -50 -88 -41 -86 -42 -89 -42 -198 0
-60 -4 -114 -9 -119 -15 -15 -27 -100 -13 -91 7 4 12 17 12 29 0 38 12 67 27
67 12 0 13 -11 8 -57 -5 -42 -3 -54 4 -43 6 8 11 25 11 37 0 32 10 53 26 53
16 0 17 -10 5 -62 -5 -22 -5 -38 0 -38 5 0 11 10 13 23 15 72 17 76 31 71 10
-4 13 -18 8 -57 -4 -37 -2 -49 5 -42 6 6 12 28 14 50 2 30 8 41 22 43 15 3 18
0 13 -20 -13 -52 -19 -168 -10 -168 6 0 14 37 18 81 8 95 12 109 32 109 12 0
13 -10 7 -56 -5 -41 -4 -55 5 -50 6 4 11 22 11 41 0 46 9 65 27 58 11 -4 13
-16 8 -54 -5 -33 -3 -49 4 -49 6 0 11 12 11 28 0 43 11 72 27 72 13 0 15 -10
11 -50 -3 -27 -2 -50 3 -50 4 0 10 23 14 50 5 33 12 50 21 50 10 0 14 -14 14
-50 0 -27 5 -50 10 -50 6 0 10 23 10 50 0 40 3 50 17 50 15 0 16 -19 10 -217
-4 -120 -7 -302 -7 -405 0 -160 -2 -188 -15 -188 -11 0 -15 12 -15 49 0 28 -4
53 -10 56 -6 4 -10 -15 -10 -49 0 -49 -2 -56 -20 -56 -18 0 -20 7 -20 55 0 30
-4 55 -10 55 -5 0 -10 -25 -10 -55 0 -40 -4 -55 -14 -55 -13 0 -26 41 -26 86
0 13 -5 24 -11 24 -7 0 -8 -18 -4 -55 7 -51 6 -55 -14 -55 -19 0 -21 6 -21 55
0 30 -4 55 -10 55 -5 0 -10 -22 -10 -50 0 -43 -3 -50 -20 -50 -19 0 -20 7 -20
100 0 66 -4 100 -11 100 -7 0 -10 -32 -7 -100 3 -90 1 -100 -14 -100 -15 0
-18 9 -18 49 0 28 -4 53 -10 56 -6 4 -10 -15 -10 -49 0 -41 -4 -56 -14 -56
-16 0 -26 30 -26 83 0 25 -4 36 -11 32 -7 -5 -8 -25 -4 -56 6 -45 5 -49 -14
-49 -19 0 -21 6 -21 55 0 30 -4 55 -10 55 -5 0 -10 -25 -10 -55 0 -44 -3 -53
-15 -49 -10 4 -15 20 -15 48 0 22 -5 48 -10 56 -7 11 -10 -2 -10 -42 0 -44 -4
-58 -14 -58 -24 0 -29 74 -23 308 5 202 15 293 53 481 5 23 4 32 -3 28 -13 -8
-48 -192 -64 -327 -5 -52 -9 -185 -8 -295 l2 -200 -33 -112 -34 -112 19 -58
c10 -32 20 -52 22 -46 3 7 -1 29 -7 49 -7 19 -10 38 -7 41 11 11 25 -8 37 -52
7 -25 16 -45 21 -45 4 0 2 21 -6 46 -12 41 -12 45 3 42 9 -2 20 -20 27 -45 12
-49 31 -73 22 -28 -4 17 -9 40 -13 53 -5 18 -3 21 10 16 9 -3 21 -26 27 -50 6
-25 16 -47 22 -51 6 -4 8 4 3 21 -3 14 -9 37 -12 51 -4 16 -2 25 5 25 14 0 10
9 54 -156 20 -72 49 -166 66 -210 29 -76 99 -200 107 -191 3 2 -11 30 -30 61
-42 70 -88 193 -127 341 -33 125 -35 145 -15 145 10 0 17 -16 22 -45 3 -25 11
-48 16 -51 7 -4 8 11 3 45 -6 42 -4 51 8 51 11 0 17 -15 22 -50 4 -27 11 -50
17 -50 5 0 7 18 2 45 -5 36 -3 45 9 45 10 0 17 -15 21 -45 9 -59 25 -59 18 0
-4 36 -1 45 10 45 11 0 17 -15 22 -50 4 -27 11 -50 16 -50 5 0 6 22 3 50 -5
41 -3 50 9 50 12 0 18 -16 22 -57 11 -94 18 -123 28 -123 5 0 7 8 4 18 -3 9
-8 50 -12 90 -6 64 -5 72 9 66 10 -3 19 -24 23 -50 8 -58 23 -57 16 1 -4 36
-1 45 11 45 16 0 27 -29 27 -73 0 -16 4 -26 9 -23 5 3 7 23 4 44 -5 35 -1 41
64 108 72 76 123 109 152 99 52 -16 136 -151 129 -209 -5 -48 9 -46 17 2 9 53
13 62 26 62 9 0 10 -21 5 -75 -4 -42 -9 -82 -13 -90 -3 -8 -1 -15 5 -15 10 0
32 104 32 149 0 19 24 40 35 30 2 -2 0 -23 -5 -47 -4 -23 -4 -45 1 -48 8 -4
11 5 25 74 2 12 11 22 19 22 17 0 18 -2 6 -52 -5 -23 -5 -38 0 -38 11 0 15 11
24 63 4 23 11 37 20 37 17 0 18 -10 6 -62 -5 -21 -5 -38 0 -38 8 0 29 63 29
88 0 6 7 12 16 12 13 0 14 -8 8 -46 -8 -59 11 -53 21 6 7 39 20 58 32 46 8 -8
-33 -161 -72 -272 -37 -102 -74 -178 -118 -244 -30 -44 -30 -45 -4 -21 16 15
27 19 27 12 0 -11 3 -11 15 -1 8 7 15 9 15 5 0 -4 7 -2 15 5 12 10 15 10 15 0
0 -9 4 -9 13 -3 6 6 20 9 30 8 9 -2 15 0 12 4 -2 5 7 6 21 3 33 -6 26 -11 -22
-16 -21 -3 -39 -5 -39 -6 0 -2 -13 -4 -30 -5 -16 -2 -31 -4 -32 -5 -2 -1 -7
-3 -12 -4 -19 -2 -19 -13 -6 -91 8 -44 35 -222 60 -395 82 -565 117 -752 166
-881 53 -138 109 -155 161 -49 47 94 85 313 108 630 13 166 25 990 15 990 -3
0 -32 -17 -63 -39 -88 -59 -116 -76 -126 -73 -5 2 -13 -3 -17 -10 -7 -11 -9
-11 -9 0 0 7 23 37 51 65 88 91 258 369 283 467 4 14 -24 -36 -61 -110 -82
-161 -147 -262 -224 -345 -31 -33 -61 -70 -67 -81 -14 -26 -92 -50 -104 -31
-4 6 0 23 9 37 12 19 7 17 -21 -10 -21 -19 -39 -34 -42 -32 -2 1 -5 1 -6 1 -2
-1 -16 -3 -33 -4 -16 -2 -30 -4 -30 -5 0 -1 -10 -3 -23 -4 -12 -2 -21 0 -19 3
65 115 141 312 178 459 7 29 18 52 26 52 15 0 16 -14 4 -58 -6 -19 -6 -32 -1
-32 5 0 16 21 23 48 8 28 21 48 30 50 15 3 15 0 2 -39 -18 -49 -19 -67 -5 -53
6 6 16 30 23 54 14 48 45 72 33 26 -3 -14 -9 -38 -12 -52 -12 -46 12 -18 26
30 7 25 18 47 26 50 18 7 18 -6 -1 -51 -18 -42 -18 -43 -5 -43 5 0 14 17 20
38 12 46 27 69 36 59 4 -4 -6 -43 -23 -87 -17 -44 -27 -80 -22 -80 7 0 69 150
69 169 0 5 7 11 15 15 18 7 18 8 0 -44 -19 -55 -10 -66 10 -14 9 21 21 49 27
61 7 14 8 52 3 110 -4 48 -7 125 -7 171 0 48 -3 80 -9 77 -5 -4 -9 -21 -9 -38
0 -47 -10 -77 -26 -77 -11 0 -13 10 -9 38 12 101 15 162 7 162 -10 0 -22 -70
-22 -129 0 -51 -10 -81 -26 -81 -11 0 -13 12 -8 55 5 38 3 55 -5 55 -6 0 -11
-15 -11 -32 0 -47 -10 -76 -27 -83 -14 -5 -15 3 -10 50 3 30 2 55 -2 55 -9 0
-21 -49 -21 -86 0 -16 -6 -24 -17 -24 -15 0 -17 8 -15 50 3 32 0 50 -7 50 -6
0 -11 -17 -11 -39 0 -50 -8 -71 -27 -71 -13 0 -15 9 -10 50 3 27 2 52 -3 55
-8 5 -16 -22 -22 -85 -2 -14 -10 -26 -18 -28 -13 -2 -15 32 -15 260 -1 249 -9
358 -42 521 -5 24 -3 28 13 25 13 -2 21 -18 29 -53 6 -28 13 -45 17 -39 4 5 3
28 -2 50 -13 52 -12 54 5 54 13 0 35 -55 35 -87 0 -7 5 -13 11 -13 11 0 6 49
-7 84 -3 8 2 16 10 19 11 5 18 -4 26 -31 5 -20 10 -43 10 -49 0 -7 5 -13 11
-13 10 0 7 31 -7 83 -4 11 0 17 10 17 9 0 20 -16 27 -42 25 -89 36 -66 13 26
-5 20 -2 26 10 26 9 0 16 -2 16 -5 0 -18 44 -172 51 -180 14 -15 11 14 -12 95
-11 41 -18 83 -15 93 9 34 -39 252 -63 286 -30 42 -38 39 -12 -5 12 -19 21
-39 21 -45 0 -20 -16 -7 -38 32 -13 22 -26 38 -29 35 -3 -3 4 -21 15 -41 15
-25 18 -35 8 -35 -7 0 -37 39 -66 88 -70 115 -154 217 -213 260 l-49 35 73 18
c79 21 153 59 163 85 4 9 4 32 0 50 -6 34 -6 34 30 34 36 0 37 1 31 33 -24
143 -32 405 -15 468 6 20 32 73 60 119 156 260 185 553 84 860 -133 403 -542
878 -1049 1217 -131 88 -235 138 -235 113z m886 -3028 c50 -37 108 -100 166
-182 54 -77 102 -169 92 -178 -4 -4 -8 -2 -10 3 -9 24 -46 77 -50 72 -3 -3 2
-19 10 -36 18 -33 20 -51 8 -51 -4 0 -18 21 -30 46 -13 26 -25 44 -28 41 -3
-3 2 -19 10 -36 18 -35 20 -51 6 -51 -6 0 -18 17 -27 38 -21 46 -22 46 -28 40
-3 -3 2 -21 10 -41 18 -44 18 -47 2 -47 -8 0 -19 18 -26 40 -6 21 -16 42 -21
45 -14 9 -12 -7 5 -50 15 -34 15 -36 -1 -33 -11 2 -27 31 -45 81 -28 79 -35
94 -43 86 -2 -2 6 -30 19 -61 32 -79 41 -122 24 -116 -8 3 -18 21 -24 40 -13
46 -30 63 -22 23 3 -16 9 -38 12 -47 5 -13 2 -18 -9 -18 -9 0 -19 15 -26 40
-6 22 -15 40 -20 40 -6 0 -6 -10 0 -26 13 -33 13 -64 0 -64 -6 0 -15 20 -22
45 -7 25 -16 45 -21 45 -4 0 -6 -8 -3 -17 17 -60 18 -73 3 -73 -11 0 -18 14
-23 45 -3 25 -10 45 -15 45 -8 0 -4 -43 7 -77 2 -7 -5 -13 -15 -13 -15 0 -20
11 -25 58 -8 73 -51 277 -65 316 -7 16 -10 30 -8 33 4 3 127 19 173 22 12 0
39 -12 60 -27z m-236 -32 c24 -92 29 -120 44 -215 9 -55 18 -112 21 -127 8
-50 -21 -32 -33 20 l-10 47 1 -47 c2 -40 -1 -48 -15 -48 -10 0 -17 3 -17 8 4
23 -2 72 -9 72 -4 0 -6 -18 -4 -40 3 -32 1 -40 -12 -40 -12 0 -16 10 -16 40 0
22 -4 40 -10 40 -5 0 -10 -21 -10 -46 0 -27 -4 -43 -10 -39 -5 3 -10 24 -10
46 0 21 -4 39 -10 39 -5 0 -10 -18 -10 -39 0 -27 -5 -41 -16 -45 -15 -6 -16 3
-10 84 5 60 4 90 -3 90 -6 0 -11 -34 -13 -82 -2 -54 -7 -83 -15 -86 -9 -2 -13
11 -14 45 l-2 48 -10 -47 c-6 -28 -16 -48 -23 -48 -10 0 -12 12 -8 48 4 35 3
43 -5 32 -6 -8 -11 -30 -11 -47 0 -24 -5 -33 -16 -33 -14 0 -16 8 -10 46 7 55
-9 50 -18 -6 -4 -27 -11 -40 -22 -40 -10 0 -14 6 -10 18 15 50 17 72 8 72 -5
0 -13 -20 -16 -45 -5 -29 -12 -45 -22 -45 -8 0 -14 6 -14 14 0 24 69 256 91
305 41 94 37 91 154 91 l104 0 11 -40z m364 -607 c22 -98 38 -278 43 -469 6
-239 1 -314 -23 -314 -10 0 -14 14 -14 57 0 70 -17 60 -22 -12 -2 -40 -7 -51
-22 -53 -17 -4 -18 1 -12 52 4 35 2 56 -4 56 -5 0 -11 -4 -11 -10 -1 -5 -3
-14 -4 -20 -1 -5 -3 -26 -4 -45 -1 -27 -5 -35 -20 -35 -16 0 -17 6 -13 50 3
33 1 50 -7 50 -6 0 -11 -15 -11 -32 0 -48 -10 -78 -26 -78 -10 0 -14 15 -14
55 0 30 -4 55 -10 55 -5 0 -10 -25 -10 -55 0 -49 -2 -55 -21 -55 -20 0 -21 4
-17 98 2 58 -1 99 -7 102 -6 3 -11 -33 -13 -97 -3 -96 -4 -103 -23 -103 -18 0
-20 5 -17 50 2 28 -1 49 -7 50 -5 0 -11 -13 -11 -30 -3 -64 -4 -70 -19 -70
-11 0 -15 12 -15 49 0 28 -4 53 -10 56 -6 4 -10 -15 -10 -49 0 -49 -2 -56 -20
-56 -17 0 -20 7 -20 50 0 28 -4 50 -10 50 -5 0 -10 -22 -10 -50 0 -43 -3 -50
-20 -50 -17 0 -20 7 -20 50 0 28 -4 50 -10 50 -5 0 -10 -22 -10 -50 0 -43 -3
-50 -20 -50 -19 0 -20 7 -20 233 0 127 3 310 7 405 5 149 8 172 22 170 12 -2
15 -14 12 -51 -1 -29 2 -47 8 -47 6 0 11 21 11 50 0 43 3 50 20 50 17 0 20 -7
20 -50 0 -27 5 -50 10 -50 6 0 10 23 10 50 0 38 4 50 15 50 11 0 15 -12 15
-50 0 -27 5 -50 10 -50 6 0 10 23 10 50 0 38 4 50 15 50 10 0 15 -11 16 -32 0
-18 4 -42 9 -53 6 -15 9 -6 9 33 1 39 5 52 16 52 18 0 24 -25 27 -114 2 -42 8
-71 15 -73 7 -3 10 3 8 14 -2 10 -6 53 -9 96 -4 71 -3 77 15 77 16 0 19 -7 19
-44 0 -25 5 -48 11 -51 7 -5 10 9 8 44 -2 28 0 51 4 51 4 0 12 0 17 0 6 0 10
-10 10 -22 0 -32 11 -68 20 -68 4 0 5 23 2 50 -4 40 -2 50 11 50 11 0 17 -15
22 -50 4 -27 11 -50 16 -50 6 0 7 21 3 50 -5 41 -4 50 9 50 15 0 27 -28 27
-67 0 -12 5 -25 11 -29 9 -5 10 9 5 50 -6 46 -5 56 7 56 9 0 18 -12 21 -27z"/>
<path d="M3294 6721 c-221 -63 -377 -225 -435 -449 -35 -139 -19 -287 47 -422
52 -106 170 -223 276 -274 339 -162 732 -3 856 347 33 96 42 253 18 347 -56
223 -230 399 -451 455 -80 20 -233 18 -311 -4z"/>
<path d="M5076 4255 c4 -8 2 -15 -4 -15 -6 0 -13 6 -15 13 -4 9 -6 9 -6 -1 -1
-7 -6 -10 -11 -7 -6 4 -9 3 -8 -2 2 -4 -9 -20 -23 -34 l-26 -26 -34 29 c-51
43 -80 54 -34 14 22 -20 39 -40 38 -44 -1 -5 16 -27 38 -48 26 -26 38 -32 33
-19 -7 18 -6 18 9 6 12 -9 17 -10 17 -2 0 7 5 9 13 5 6 -4 1 5 -12 19 -26 29
-19 37 9 12 15 -14 20 -14 41 4 13 11 20 20 16 21 -5 0 -1 7 8 16 22 22 13 39
-17 37 -21 -1 -25 2 -21 18 3 10 0 19 -6 19 -5 0 -8 -7 -5 -15z"/>
<path d="M2672 4009 c1 -36 -3 -72 -7 -79 -6 -9 -4 -11 5 -5 10 6 12 4 7 -8
-8 -22 2 -49 16 -40 6 4 8 1 4 -8 -84 -194 -115 -351 -103 -519 6 -83 -3 -127
-19 -100 -4 7 -3 15 3 19 6 4 3 15 -9 30 -10 13 -19 18 -19 13 0 -6 5 -14 11
-17 6 -4 8 -14 5 -22 -8 -21 12 -43 31 -36 12 5 14 20 8 92 -8 101 6 244 35
353 21 82 86 235 96 225 3 -3 1 -14 -5 -25 -14 -26 -14 -35 -1 -27 6 3 10 -2
10 -12 0 -11 10 -1 26 25 14 24 24 46 21 49 -3 3 -13 -9 -22 -27 -9 -18 -19
-30 -21 -27 -3 3 2 19 10 36 20 38 20 50 0 25 -15 -18 -15 -18 -8 5 4 18 3 22
-7 16 -9 -6 -11 -3 -6 9 4 9 3 15 -2 12 -5 -3 -12 1 -15 9 -3 8 -11 14 -17 13
-6 -2 -14 3 -17 11 -3 9 0 11 8 6 9 -6 11 -4 5 4 -4 7 -11 25 -16 39 -6 20 -8
10 -7 -39z"/>
<path d="M3080 2018 c-365 -1069 -435 -1359 -334 -1384 51 -13 131 80 251 290
67 118 121 225 417 830 146 298 189 376 199 368 8 -7 18 -7 27 -2 9 6 20 4 29
-3 12 -10 12 -9 0 11 -8 12 -16 17 -17 12 -3 -7 -9 -7 -18 1 -12 10 -13 8 -8
-7 7 -19 7 -19 -14 0 -12 11 -22 16 -22 11 0 -4 -7 -2 -15 5 -12 10 -16 9 -21
-3 -6 -17 -27 -15 -110 8 -28 8 -57 22 -64 30 -7 9 -19 14 -27 11 -7 -3 -29 6
-49 19 -20 14 -41 25 -47 25 -6 0 -25 11 -43 25 -18 14 -35 25 -37 25 -2 0
-46 -123 -97 -272z"/>
</g>
</svg>
