<?xml version="1.0" standalone="no"?>
<!DOCTYPE svg PUBLIC "-//W3C//DTD SVG 20010904//EN"
 "http://www.w3.org/TR/2001/REC-SVG-20010904/DTD/svg10.dtd">
<svg version="1.0" xmlns="http://www.w3.org/2000/svg"
 width="746.000000pt" height="560.000000pt" viewBox="0 0 746.000000 560.000000"
 preserveAspectRatio="xMidYMid meet">
<metadata>
Created by potrace 1.16, written by Peter Selinger 2001-2019
</metadata>
<g transform="translate(0.000000,560.000000) scale(0.100000,-0.100000)"
fill="#000000" stroke="none">
<path d="M2967 3930 c9 -9 9 -17 3 -25 -11 -14 -3 -45 11 -45 5 0 2 -11 -7
-25 -13 -20 -25 -25 -55 -25 -22 0 -39 -4 -39 -10 0 -5 -18 -10 -40 -10 -22 0
-40 5 -40 11 0 7 -17 10 -45 7 -33 -2 -44 0 -40 9 2 7 0 13 -5 13 -6 0 -6 9
-1 23 6 15 4 26 -4 34 -10 10 -14 9 -19 -3 -9 -24 -7 -31 4 -14 8 12 10 11 10
-7 0 -23 -20 -43 -21 -21 0 7 -5 2 -10 -11 -5 -14 -7 -31 -4 -40 3 -8 1 -17
-5 -21 -18 -11 -24 -198 -10 -306 14 -111 51 -240 79 -275 17 -21 18 -27 5
-51 -8 -15 -19 -40 -24 -55 -10 -26 -9 -27 5 -8 8 10 21 34 27 52 7 18 18 33
25 33 9 0 13 20 13 73 1 147 45 279 108 322 57 39 113 32 171 -19 l24 -21 -7
87 c-8 109 -23 183 -47 228 -11 19 -19 31 -19 26 0 -5 -9 -1 -20 9 -26 24 -26
39 1 25 18 -10 19 -10 10 8 -5 10 -18 25 -28 32 -15 12 -16 12 -6 0z"/>
<path d="M1731 3901 c-1 -7 10 -68 23 -135 47 -229 50 -266 26 -321 -11 -26
-19 -50 -17 -52 3 -2 14 19 26 47 24 57 19 56 115 17 46 -19 53 -25 45 -40
-20 -35 -40 -89 -31 -83 5 3 17 26 26 51 17 44 29 52 53 37 9 -6 2 -32 -28
-101 -22 -51 -38 -95 -36 -98 2 -2 14 18 25 44 11 26 30 69 41 95 23 51 14 49
101 22 14 -5 13 17 -7 178 -12 101 -27 202 -33 225 -5 23 -10 54 -11 70 0 15
-3 22 -6 14 -4 -10 -9 -8 -18 9 -12 22 -12 22 -18 -9 -5 -23 -12 -31 -29 -31
-21 0 -21 0 -2 -14 17 -13 20 -12 27 10 7 20 12 23 23 13 8 -6 14 -26 14 -43
0 -25 -2 -28 -11 -16 -8 12 -10 9 -6 -12 2 -15 0 -25 -4 -22 -5 3 -9 14 -9 25
0 18 -4 20 -45 13 -30 -4 -45 -3 -45 5 0 6 -17 11 -40 11 -22 0 -40 -4 -40
-10 0 -5 -18 -10 -40 -10 -33 0 -40 4 -44 23 -13 59 -24 101 -25 88z"/>
<path d="M4355 3893 c6 -4 12 -17 14 -28 3 -19 2 -19 -16 -2 -24 21 -30 21
-30 3 0 -8 6 -12 13 -9 6 2 15 0 19 -6 3 -6 -4 -15 -17 -20 -13 -6 -17 -10 -9
-10 8 -1 23 7 33 16 17 16 20 16 35 0 16 -15 15 -18 -4 -39 -11 -13 -23 -30
-25 -38 -4 -11 -8 -9 -17 9 -9 16 -10 21 -1 16 6 -4 18 1 25 11 21 28 18 37
-6 21 -15 -11 -37 -13 -78 -10 -44 4 -61 2 -73 -11 -21 -20 -29 -21 -22 -1 4
9 0 15 -10 15 -9 0 -16 -4 -16 -10 0 -5 -7 -7 -15 -4 -23 9 -7 24 25 24 33 0
80 19 80 32 0 12 -10 10 -26 -7 -9 -8 -30 -15 -47 -15 -18 0 -39 -4 -47 -9 -8
-6 -18 -7 -24 -4 -5 4 -1 10 10 15 15 7 14 7 -6 3 -18 -3 -30 2 -43 18 l-18
22 10 -22 c6 -12 44 -41 84 -64 39 -23 89 -52 109 -65 22 -14 40 -20 43 -14 3
6 12 10 18 10 7 0 6 -4 -3 -10 -13 -8 -13 -11 1 -26 15 -15 19 -12 44 38 15
29 36 69 46 88 17 31 17 36 3 51 -9 10 -22 15 -30 12 -9 -3 -14 0 -12 7 2 7
-4 15 -12 17 -9 3 -11 1 -5 -4z"/>
<path d="M5260 3891 c-14 -4 46 -5 134 -3 114 3 157 1 152 -7 -4 -6 -17 -11
-29 -11 -16 0 -18 -3 -9 -9 10 -6 9 -10 -7 -14 -12 -3 -21 -1 -21 4 0 5 -10 9
-22 10 -22 0 -22 1 -3 9 29 12 9 11 -65 -5 -57 -13 -59 -14 -17 -10 58 6 106
-3 85 -16 -7 -5 -13 -14 -13 -21 0 -7 -8 -12 -18 -10 -9 2 -17 -2 -17 -8 0 -5
-5 -10 -11 -10 -6 0 -9 7 -6 15 8 19 -13 31 -24 14 -6 -10 -39 -14 -123 -15
-63 -1 -119 -5 -124 -8 -6 -3 -8 2 -5 12 2 10 13 18 26 17 12 0 23 4 24 10 1
5 10 12 20 16 12 5 4 8 -24 8 -41 1 -43 0 -53 -39 -6 -22 -8 -46 -4 -52 4 -7
3 -8 -4 -4 -7 4 -12 2 -12 -4 0 -8 45 -10 150 -9 120 2 155 6 170 18 11 9 36
27 55 41 67 46 95 72 89 81 -6 10 -257 10 -294 0z"/>
<path d="M4703 3860 c-3 -11 -9 -20 -14 -20 -5 0 -9 -15 -10 -32 l-1 -33 -13
35 c-9 24 -14 29 -14 15 -1 -18 -6 -20 -42 -17 -27 3 -45 0 -51 -9 -8 -11 -11
-12 -15 -1 -4 10 -9 9 -24 -4 -21 -19 -26 -5 -9 27 8 13 7 19 0 19 -6 0 -8 5
-4 12 4 7 3 8 -5 4 -6 -4 -9 -12 -5 -17 3 -5 1 -15 -4 -22 -9 -12 -15 -45 -32
-200 -9 -72 -7 -86 16 -155 25 -73 26 -85 21 -227 -5 -152 -4 -149 -64 -339
-5 -15 -2 -17 14 -12 16 5 24 -3 43 -45 29 -62 40 -48 12 15 l-20 45 30 10
c29 10 30 9 50 -39 11 -28 25 -50 29 -50 13 0 12 6 -16 59 l-24 49 29 11 c29
10 30 9 51 -40 12 -27 25 -49 30 -49 13 0 12 6 -17 63 -25 49 -26 56 -20 157
8 132 42 436 61 555 8 50 14 117 12 150 -1 44 1 59 11 58 7 -2 12 7 12 22 0
30 -10 33 -17 5z"/>
<path d="M3630 3780 c-4 -64 -10 -121 -20 -183 -23 -146 -7 -276 47 -367 15
-26 19 -28 29 -15 10 13 22 8 88 -36 86 -58 174 -89 247 -89 83 0 118 29 119
97 0 34 -47 81 -124 123 -121 67 -247 168 -286 231 -46 76 -74 142 -85 204
-10 54 -14 62 -15 35z"/>
<path d="M5408 3413 c-3 -4 64 -163 149 -352 84 -190 153 -348 153 -352 0 -5
-27 -31 -61 -59 -50 -41 -56 -50 -37 -50 45 0 51 -12 28 -65 -11 -26 -18 -50
-15 -53 7 -7 9 -4 32 53 11 28 27 51 36 53 16 3 15 -1 -3 -49 -11 -28 -18 -54
-16 -57 6 -5 46 82 46 99 0 5 7 9 16 9 17 0 13 -22 -13 -73 -8 -16 -12 -32 -8
-35 8 -9 22 15 37 65 7 24 18 43 26 43 15 0 10 -25 -14 -72 -16 -31 -17 -38
-6 -38 8 0 48 91 44 103 -1 4 5 7 13 7 13 0 14 -4 1 -32 -108 -257 -110 -260
-100 -210 8 37 -13 51 -50 34 -16 -7 -27 -7 -34 0 -24 24 -92 -45 -92 -93 0
-24 4 -29 24 -29 15 0 26 7 29 20 3 11 13 20 22 20 12 0 16 -6 12 -20 -7 -26
28 -28 55 -3 18 16 18 15 2 -23 -19 -45 -30 -60 -19 -25 9 29 -15 25 -30 -6
-11 -21 -11 -21 -32 3 -28 31 -54 30 -86 -1 -30 -31 -42 -72 -26 -91 17 -21
34 -17 47 11 15 33 15 33 -5 38 -13 3 -14 5 -3 6 20 1 32 -8 53 -42 11 -17 24
-26 33 -23 8 3 14 4 14 3 0 -1 -26 -63 -58 -137 l-58 -135 -175 1 c-205 1
-313 10 -305 27 2 7 74 173 159 370 86 196 152 357 147 357 -4 0 -42 -80 -83
-177 -131 -306 -223 -517 -235 -540 -10 -17 -18 -20 -49 -17 -127 16 -399 56
-463 68 -67 13 -77 13 -90 -1 -8 -9 -10 -13 -4 -10 8 5 19 -31 33 -111 12 -64
24 -129 27 -144 6 -28 6 -28 88 -28 l83 0 -13 78 c-22 141 -24 159 -15 132 5
-14 9 -22 10 -17 1 4 23 -4 51 -18 27 -14 71 -32 97 -41 26 -9 56 -23 66 -32
9 -8 31 -15 47 -15 18 0 30 -6 30 -14 0 -8 11 -13 28 -13 15 0 34 -5 42 -11
11 -7 7 -9 -18 -5 -20 3 -35 0 -38 -7 -2 -7 41 -162 96 -345 55 -185 97 -339
93 -349 -5 -12 -3 -14 7 -8 8 5 11 3 8 -6 -4 -11 -36 -14 -155 -14 -88 0 -149
-4 -145 -9 3 -5 0 -6 -6 -2 -5 3 -12 3 -15 -1 -2 -5 -3 -3 -1 3 1 6 -1 15 -5
20 -5 5 -21 61 -36 124 -15 63 -30 118 -34 122 -7 9 -191 23 -191 15 0 -3 11
-67 25 -143 14 -75 24 -142 21 -148 -2 -6 -5 0 -6 14 l-1 25 -14 -25 c-8 -14
-14 -19 -15 -12 0 11 -28 13 -131 11 -98 -2 -133 1 -139 11 -5 8 -10 2 -16
-21 -8 -37 -7 -43 -53 356 -28 244 -61 592 -61 638 0 30 5 40 23 47 15 6 17 9
5 9 -9 1 -24 4 -34 8 -14 5 -16 2 -12 -15 4 -14 1 -22 -11 -24 -13 -3 -19 -30
-32 -156 -9 -84 -19 -155 -22 -158 -3 -3 -30 11 -59 31 -63 41 -153 62 -214
50 l-39 -8 49 -13 c27 -7 71 -26 98 -43 33 -21 62 -31 89 -31 21 0 39 -4 39
-9 0 -4 27 -11 61 -14 33 -3 62 -7 64 -9 3 -3 49 -480 58 -607 3 -42 2 -51 -7
-40 -10 14 -51 15 -42 1 2 -4 -164 -7 -369 -7 -243 0 -372 3 -370 10 1 6 0 7
-2 2 -3 -4 -9 -5 -14 -2 -5 3 -1 -8 9 -24 9 -17 20 -31 25 -31 4 0 7 -6 7 -13
0 -9 -24 -12 -90 -12 -87 0 -91 1 -86 21 10 40 8 373 -3 391 -8 14 -11 -3 -12
-67 -1 -88 -15 -285 -17 -261 -2 10 -8 8 -21 -8 -10 -12 -21 -17 -23 -12 -2 6
-60 11 -145 12 -126 1 -143 3 -143 17 0 13 -5 11 -20 -8 -11 -14 -20 -20 -20
-15 0 7 -112 8 -324 5 -319 -5 -325 -5 -331 15 -5 19 -6 19 -25 -5 -13 -16
-19 -20 -19 -10 0 8 26 125 57 260 l58 245 209 1 c214 1 347 11 311 24 -20 7
-22 11 -32 70 -4 19 -13 43 -22 53 -8 9 -10 17 -5 17 6 0 13 -7 17 -15 8 -21
25 -19 22 3 -3 14 -12 17 -57 15 -30 -2 -55 -6 -56 -10 -2 -5 -22 -7 -45 -7
-24 1 -88 -5 -143 -12 -55 -7 -129 -14 -164 -16 l-63 -3 -109 245 c-172 386
-202 451 -206 446 -2 -2 64 -158 148 -345 83 -188 149 -345 145 -348 -14 -14
-550 -40 -608 -29 -31 6 -36 12 -82 118 -28 62 -93 210 -146 328 -53 118 -100
224 -104 234 -3 10 -9 17 -11 14 -4 -4 74 -185 237 -547 45 -99 57 -135 48
-141 -8 -5 -3 -10 16 -14 108 -22 478 -66 557 -66 32 0 57 -4 57 -10 0 -21
-76 -190 -179 -400 -68 -138 -81 -157 -81 -119 0 17 -3 20 -9 10 -5 -7 -13
-11 -18 -8 -5 3 -82 7 -171 8 -89 1 -162 4 -162 7 0 2 14 63 31 134 16 72 28
135 26 141 -2 6 -27 -31 -56 -83 -84 -151 -102 -180 -112 -180 -6 0 -7 -5 -3
-11 4 -7 -3 -6 -17 2 -28 15 -92 12 -98 -4 -2 -6 -24 11 -48 39 l-44 49 15
-38 15 -37 -35 -2 c-18 0 -40 -1 -46 -2 -7 -1 -18 -10 -25 -21 -7 -12 -12 -14
-13 -7 0 8 -6 12 -12 9 -7 -2 -23 0 -35 4 -16 6 -23 4 -26 -9 -3 -11 -5 -8 -6
8 -1 20 -3 22 -12 10 -8 -12 -9 -11 -5 5 31 123 37 153 32 176 -5 26 -3 25 40
-17 25 -24 55 -44 66 -44 21 0 21 0 2 22 -10 12 -41 44 -69 71 -49 48 -49 49
-10 22 22 -15 61 -50 87 -78 38 -41 55 -52 83 -54 23 -1 35 3 35 11 0 7 10 18
23 25 20 10 24 21 25 63 1 41 -4 57 -23 80 -52 61 -179 127 -218 112 -8 -3
-18 -1 -21 4 -9 15 -51 0 -85 -30 -29 -26 -30 -27 -36 -7 -5 15 -13 20 -30 17
-20 -4 -27 3 -49 46 -31 61 -33 100 -6 143 37 61 85 67 160 17 46 -31 55 -55
46 -125 l-7 -49 31 0 c16 0 30 2 30 4 0 2 12 48 26 102 25 93 25 98 7 108 -10
6 -20 11 -23 11 -100 15 -95 12 -125 75 -25 52 -33 61 -63 66 -19 4 -59 4 -89
1 l-54 -6 20 34 19 33 -21 6 c-42 11 -47 7 -47 -36 l0 -41 -22 20 c-13 11 -36
28 -53 37 -27 16 -19 15 25 -2 10 -3 7 3 -6 19 -12 13 -29 38 -38 56 -20 40
-49 56 -85 48 -30 -6 -103 -55 -83 -55 7 0 12 -8 12 -19 0 -11 20 -32 50 -52
27 -19 50 -37 50 -41 0 -5 -15 -8 -32 -8 -76 -1 -169 -75 -208 -166 -29 -66
-43 -167 -36 -242 7 -68 65 -260 97 -324 10 -20 35 -53 55 -72 l36 -35 -33
-14 -34 -15 25 -10 c14 -5 65 -13 113 -17 76 -6 87 -10 82 -24 -34 -81 -29
-155 12 -210 16 -20 27 -40 25 -45 -6 -19 25 -26 113 -26 86 0 128 10 112 26
-4 4 5 20 19 35 30 32 48 105 38 162 l-6 38 48 -3 c43 -3 48 -6 57 -33 5 -16
21 -42 34 -57 14 -14 22 -31 19 -37 -12 -19 33 -31 119 -31 89 0 140 14 114
31 -11 7 -10 13 8 27 24 18 43 69 43 113 0 24 15 39 39 39 4 0 6 -13 3 -29
l-4 -29 128 -5 c152 -5 165 -8 175 -33 7 -17 8 -17 8 -2 1 16 4 17 39 4 39
-15 196 -32 367 -41 55 -3 129 -8 165 -10 240 -16 864 -27 1255 -21 398 5 927
26 1055 41 91 11 149 14 313 14 153 1 167 2 167 19 0 10 -7 28 -16 40 -18 26
-20 26 43 4 28 -10 73 -38 103 -65 30 -27 74 -60 98 -75 27 -15 40 -27 31 -30
-43 -12 -45 -13 -24 -25 24 -15 391 -22 450 -10 46 10 51 26 12 33 -25 5 -24
8 48 71 l74 66 53 -9 c223 -33 379 -33 563 2 55 10 152 21 215 25 63 3 133 11
155 17 l40 11 -30 8 c-16 5 -61 11 -98 14 -38 4 -66 10 -62 13 3 3 55 12 115
18 120 13 150 26 171 73 15 34 25 34 89 0 46 -25 70 -24 70 1 0 14 -7 20 -23
20 -13 0 -44 7 -70 16 -42 14 -47 19 -47 45 0 33 0 33 -34 18 -15 -7 -26 -22
-28 -37 -2 -14 -12 -30 -23 -36 -10 -6 -25 -17 -33 -24 -7 -7 -17 -10 -22 -7
-4 3 -25 -2 -46 -11 -25 -10 -83 -18 -172 -21 l-133 -6 30 56 c28 52 29 57 11
57 -10 0 -22 5 -25 10 -4 6 -29 21 -56 34 -44 22 -49 23 -49 7 0 -10 9 -26 20
-36 24 -21 36 -95 21 -124 -52 -95 -337 -47 -470 79 -32 31 -37 44 -45 127 -7
72 -31 119 -91 178 -48 48 -75 61 -204 101 -10 3 -6 13 15 35 24 25 35 30 66
27 20 -2 34 0 32 4 -16 25 -115 -6 -142 -43 -8 -11 -25 -19 -42 -19 -27 0 -29
2 -23 30 4 23 -1 40 -22 70 -16 23 -24 44 -19 52 5 10 4 10 -5 2 -10 -9 -8
-22 8 -59 12 -26 21 -56 21 -66 0 -42 -43 -29 -61 19 -13 33 -32 17 -24 -19 6
-28 5 -30 -22 -25 -15 2 -34 5 -41 5 -7 1 -11 5 -8 9 3 5 -9 6 -27 4 -31 -5
-31 -5 -7 -15 24 -9 22 -10 -20 -18 -55 -11 -177 -69 -214 -104 l-27 -25 -18
43 c-23 55 -98 283 -105 322 -3 17 -3 24 0 17 3 -6 10 -10 15 -7 5 4 6 0 3 -8
-8 -22 38 -13 90 16 25 14 77 50 118 80 151 114 136 92 279 422 71 165 144
334 161 375 34 83 36 86 43 78 3 -3 -4 -26 -16 -52 -11 -26 -18 -50 -15 -54 3
-3 18 22 33 56 14 34 28 60 30 58 3 -2 -5 -26 -16 -51 -12 -26 -21 -50 -21
-53 0 -2 14 -2 30 2 22 4 29 2 24 -6 -4 -6 -19 -47 -35 -92 -23 -67 -24 -77
-9 -58 11 13 22 40 26 60 3 20 24 72 46 115 21 43 41 95 44 116 5 34 2 41 -33
72 -21 19 -63 47 -95 64 l-56 29 -34 -37 -33 -38 -34 78 c-19 43 -44 101 -57
128 -12 28 -66 149 -119 270 -109 244 -101 229 -107 218z m62 -2088 c13 -15
10 -31 -17 -105 -3 -8 9 2 27 23 35 42 46 45 52 19 4 -15 18 -20 63 -25 91 -9
111 -48 43 -83 -43 -22 -123 -22 -140 0 -4 6 -13 4 -22 -3 -14 -11 -16 -11
-16 4 0 13 -6 16 -26 11 -19 -5 -24 -3 -18 5 5 8 1 11 -12 7 -28 -6 -108 25
-112 44 -4 20 50 72 103 98 48 24 59 25 75 5z"/>
<path d="M2297 3269 c-8 -19 -38 -88 -67 -154 -28 -66 -92 -214 -142 -330 -49
-115 -93 -213 -96 -217 -4 -3 -88 23 -186 58 -161 57 -188 64 -255 64 l-75 0
189 -94 190 -93 175 -7 175 -6 -97 32 c-54 17 -98 36 -98 42 0 6 19 54 41 106
201 464 269 624 265 628 -3 2 -11 -11 -19 -29z"/>
<path d="M4992 3210 l-12 -89 90 -203 c49 -112 101 -225 114 -251 l24 -48 -20
-45 c-27 -62 -17 -66 11 -5 l23 48 -72 164 c-40 90 -90 203 -111 252 -21 48
-39 91 -39 97 0 5 8 14 18 19 16 8 22 3 41 -42 13 -29 25 -47 27 -41 3 6 -4
30 -15 54 -18 41 -18 45 -3 56 15 11 20 5 44 -44 30 -65 38 -47 9 19 -18 39
-18 44 -3 55 14 10 19 4 39 -39 30 -63 41 -56 13 8 -16 37 -18 50 -8 56 18 11
24 4 44 -46 9 -25 21 -45 25 -45 12 0 12 2 -11 55 -24 55 -24 61 -7 68 9 3 26
-23 52 -84 21 -49 41 -86 46 -83 4 2 -10 43 -32 90 -21 47 -37 89 -34 94 5 8
-101 20 -186 20 l-55 0 -12 -90z"/>
<path d="M1976 3154 c-38 -38 -33 -95 9 -108 17 -5 46 -17 66 -27 38 -20 76
-24 95 -11 17 11 34 48 34 75 0 33 -21 48 -75 55 -25 2 -50 11 -56 18 -15 19
-54 18 -73 -2z"/>
<path d="M3007 2975 c-25 -61 -96 -225 -157 -365 -61 -140 -111 -262 -112
-270 0 -8 57 -143 127 -300 70 -157 134 -300 142 -319 8 -18 17 -31 20 -28 3
3 -59 150 -137 326 l-142 319 55 129 c30 70 100 234 156 363 56 129 100 239
98 244 -2 6 -24 -39 -50 -99z"/>
<path d="M2655 2926 c-20 -20 -25 -34 -23 -59 4 -37 35 -57 105 -65 47 -5 73
9 73 40 0 15 5 18 23 13 33 -11 45 -25 19 -25 -22 0 -47 -33 -37 -50 16 -26
79 2 96 41 19 46 -5 71 -93 97 -125 37 -133 38 -163 8z"/>
<path d="M4990 2899 c-54 -22 -88 -76 -60 -94 16 -10 12 -22 -10 -28 -20 -5
-29 8 -9 15 13 4 -6 58 -20 58 -15 0 -41 -42 -41 -65 0 -30 36 -65 66 -65 13
0 55 16 93 34 78 40 90 61 63 116 -18 38 -41 46 -82 29z"/>
<path d="M2596 2802 c-8 -13 17 -92 30 -92 6 0 17 6 23 14 10 12 22 11 79 -5
115 -34 117 -34 130 -5 6 14 10 26 8 26 -1 0 -56 16 -122 35 -125 37 -140 40
-148 27z"/>
<path d="M3442 2707 c-27 -28 -29 -73 -4 -86 39 -21 187 -52 218 -46 36 6 50
19 59 55 10 41 -14 60 -100 80 -109 26 -146 25 -173 -3z"/>
<path d="M3403 2585 c-33 -14 -51 -50 -39 -80 3 -9 20 -22 38 -30 31 -12 34
-12 45 8 10 19 8 24 -14 35 -18 10 -22 17 -15 24 8 8 28 -2 67 -33 84 -66 117
-89 127 -89 8 0 61 110 56 115 -11 9 -48 15 -48 8 0 -5 -6 -17 -13 -27 -12
-17 -17 -15 -67 28 -30 25 -59 46 -66 46 -7 0 -18 2 -26 5 -7 2 -27 -2 -45
-10z"/>
<path d="M4257 2555 c-4 -8 0 -33 8 -55 14 -40 14 -40 -11 -40 -30 0 -74 -41
-74 -69 0 -20 24 -51 40 -51 5 0 15 -2 22 -5 9 -4 19 4 26 19 10 23 9 26 -13
32 -29 7 -33 24 -6 24 19 0 50 -21 114 -77 20 -18 44 -33 52 -33 14 0 45 50
59 98 6 19 4 22 -18 22 -19 0 -27 -7 -32 -25 -3 -14 -9 -25 -11 -25 -3 0 -25
18 -49 40 -24 22 -48 40 -54 40 -14 0 -13 25 3 38 8 7 38 5 100 -8 l88 -18 11
24 c6 13 9 26 7 29 -3 2 -54 14 -115 25 -60 12 -116 23 -125 26 -9 2 -19 -2
-22 -11z"/>
<path d="M4989 2411 c-31 -31 -37 -62 -16 -79 23 -20 49 -17 65 6 14 22 14 23
-6 29 -25 6 -30 23 -7 23 9 0 38 -20 64 -45 64 -60 80 -58 107 8 12 28 20 55
17 60 -9 15 -30 6 -41 -19 l-12 -25 -42 35 c-52 45 -88 47 -129 7z"/>
<path d="M4949 2295 c-15 -8 -32 -28 -38 -45 -9 -26 -7 -34 9 -50 25 -25 46
-25 60 -1 14 26 13 28 -11 34 -12 3 -18 10 -14 16 9 15 52 -9 94 -53 19 -20
41 -36 48 -36 12 0 44 53 57 98 11 33 -27 30 -43 -5 -12 -26 -12 -26 -26 -5
-18 24 -76 62 -96 62 -8 -1 -26 -7 -40 -15z"/>
<path d="M2685 2180 c-22 -3 -47 -10 -55 -15 -8 -5 -30 -8 -48 -6 -38 3 -72
-21 -72 -51 0 -32 45 -68 86 -68 29 0 35 3 30 16 -3 9 -6 20 -6 25 0 5 -13 9
-30 9 -16 0 -30 5 -30 10 0 6 13 10 29 10 17 0 33 -4 36 -10 9 -15 45 -12 45
4 0 17 22 26 58 25 l27 -1 -30 -10 c-39 -14 -38 -13 -25 -37 21 -39 100 -17
100 28 0 58 -39 82 -115 71z"/>
<path d="M1975 2080 c-3 -5 -4 -19 0 -30 6 -18 3 -18 -64 5 -79 28 -102 30
-119 13 -21 -21 -13 -55 19 -82 30 -25 79 -36 79 -17 0 25 -14 41 -36 41 -13
0 -24 5 -24 10 0 14 7 13 105 -20 128 -43 132 -41 92 39 -23 46 -40 60 -52 41z"/>
<path d="M5881 2031 c-13 -9 -11 -71 5 -136 4 -17 -3 -23 -43 -35 l-48 -14 42
-4 c23 -2 47 -10 53 -18 18 -20 36 -17 54 8 12 17 13 24 4 29 -27 17 6 22 60
11 83 -17 96 -16 156 18 45 26 106 80 106 94 0 13 -63 14 -114 2 -33 -8 -68
-11 -79 -7 -13 5 -35 0 -61 -12 -23 -11 -47 -20 -54 -20 -7 0 -11 -5 -9 -11 2
-6 15 -10 28 -8 21 2 20 0 -7 -12 -17 -7 -34 -21 -37 -30 -4 -9 -11 -16 -18
-16 -7 0 -10 24 -8 75 4 76 -5 101 -30 86z"/>
<path d="M2934 1672 c-12 -7 -40 -359 -30 -370 3 -3 12 0 20 7 9 8 17 54 25
144 6 72 14 153 17 180 5 47 -4 58 -32 39z"/>
<path d="M3670 1472 c0 -156 0 -159 25 -182 30 -29 33 -45 4 -30 -35 19 -32 4
7 -40 42 -46 90 -70 140 -70 34 0 34 1 34 45 l0 45 -70 0 -70 0 0 88 c0 49 -3
137 -7 195 l-6 107 -29 0 -28 0 0 -158z"/>
<path d="M2577 1284 c-3 -11 -8 -36 -12 -56 l-6 -38 186 0 185 0 0 23 c0 12 3
32 6 43 6 21 2 22 -108 28 -62 3 -143 8 -179 12 -60 6 -68 4 -72 -12z"/>
</g>
</svg>
