<?xml version="1.0" standalone="no"?>
<!DOCTYPE svg PUBLIC "-//W3C//DTD SVG 20010904//EN"
 "http://www.w3.org/TR/2001/REC-SVG-20010904/DTD/svg10.dtd">
<svg version="1.0" xmlns="http://www.w3.org/2000/svg"
 width="1500.000000pt" height="1500.000000pt" viewBox="0 0 1500.000000 1500.000000"
 preserveAspectRatio="xMidYMid meet">
<metadata>
Created by potrace 1.16, written by Peter Selinger 2001-2019
</metadata>
<g transform="translate(0.000000,1500.000000) scale(0.100000,-0.100000)"
fill="#000000" stroke="none">
<path d="M7291 10465 c-98 -22 -158 -43 -256 -93 -72 -37 -108 -64 -180 -137
-50 -50 -106 -118 -127 -153 -46 -80 -101 -249 -124 -377 -21 -122 -24 -415
-5 -555 58 -432 212 -813 437 -1080 55 -65 90 -98 189 -176 38 -30 -80 40
-133 79 -333 244 -606 730 -677 1203 -17 115 -15 114 -158 199 -307 183 -653
232 -975 139 -170 -49 -358 -147 -490 -254 -75 -61 -68 -42 25 63 69 78 172
173 251 230 23 17 39 34 35 38 -12 11 -349 94 -518 128 -276 55 -568 95 -900
123 -203 17 -997 17 -1210 0 -630 -51 -1198 -147 -1690 -285 -113 -31 -120
-35 -123 -60 -5 -45 36 -177 93 -293 151 -311 436 -564 820 -730 125 -53 253
-99 260 -92 3 2 -29 70 -70 151 -78 155 -130 300 -141 391 l-7 55 -56 16
c-195 56 -198 57 -171 67 36 14 533 2 715 -17 428 -45 898 -131 1360 -251 318
-82 290 -70 401 -169 309 -276 695 -502 1097 -644 49 -17 95 -31 102 -31 10 0
9 15 -6 73 -21 80 -69 329 -69 355 0 9 27 -48 59 -128 82 -204 141 -335 220
-485 71 -136 173 -306 194 -323 8 -7 61 1 162 24 253 57 379 75 556 81 200 7
315 -9 489 -67 208 -68 413 -177 686 -361 71 -49 133 -89 136 -89 4 0 69 42
145 94 380 258 659 388 922 432 205 33 502 8 837 -71 59 -14 108 -24 108 -23
1 2 13 19 27 38 96 131 314 540 424 797 27 62 50 112 51 110 5 -5 -37 -242
-61 -343 -14 -59 -23 -109 -21 -112 11 -11 266 86 437 166 269 126 581 334
781 521 89 83 69 76 473 177 664 166 1293 255 1780 253 253 -1 266 -6 134 -47
-57 -17 -116 -34 -130 -38 -24 -5 -27 -11 -32 -67 -10 -105 -81 -288 -176
-456 -23 -41 -39 -76 -37 -79 9 -9 218 68 331 122 346 165 612 409 754 694 36
72 86 217 96 279 l7 42 -73 21 c-315 94 -776 188 -1199 244 -394 52 -753 76
-1165 76 -534 0 -993 -43 -1470 -136 -189 -37 -535 -121 -548 -133 -4 -4 19
-25 50 -48 83 -59 198 -168 273 -259 36 -43 55 -72 44 -64 -12 8 -57 41 -100
72 -146 107 -348 195 -534 235 -116 24 -343 24 -460 -1 -164 -35 -319 -100
-471 -197 l-76 -49 -7 -63 c-21 -191 -91 -427 -181 -613 -144 -298 -382 -568
-620 -703 l-40 -23 29 23 c182 143 297 292 411 533 168 355 246 757 217 1119
-43 525 -275 820 -715 911 -95 20 -326 20 -416 1z"/>
</g>
</svg>
