<?xml version="1.0" standalone="no"?>
<!DOCTYPE svg PUBLIC "-//W3C//DTD SVG 20010904//EN"
 "http://www.w3.org/TR/2001/REC-SVG-20010904/DTD/svg10.dtd">
<svg version="1.0" xmlns="http://www.w3.org/2000/svg"
 width="474.000000pt" height="356.000000pt" viewBox="0 0 474.000000 356.000000"
 preserveAspectRatio="xMidYMid meet">
<metadata>
Created by potrace 1.16, written by Peter Selinger 2001-2019
</metadata>
<g transform="translate(0.000000,356.000000) scale(0.100000,-0.100000)"
fill="#000000" stroke="none">
<path d="M652 3439 c-23 -12 -47 -30 -52 -40 -9 -17 -6 -17 60 -12 49 4 70 3
70 -6 0 -6 -7 -11 -15 -11 -20 0 -57 -38 -49 -51 3 -6 20 -9 38 -8 17 1 84 1
148 0 l117 -1 54 -68 c30 -38 71 -93 90 -123 50 -77 92 -119 172 -172 70 -46
83 -62 139 -171 51 -99 139 -176 238 -209 9 -3 31 -33 49 -67 17 -33 63 -91
100 -129 40 -40 70 -80 74 -97 3 -16 15 -58 26 -93 20 -66 17 -80 -19 -81 -26
0 -118 -54 -175 -101 -68 -57 -86 -63 -168 -57 -50 4 -69 11 -117 45 -109 77
-138 88 -232 88 -103 0 -152 -19 -232 -92 -75 -68 -136 -96 -208 -95 -32 0
-75 8 -95 16 -47 20 -51 20 -34 -1 28 -34 111 -63 179 -63 70 0 123 21 240 95
44 28 64 35 106 35 73 0 110 -16 181 -75 97 -82 141 -100 248 -100 101 0 156
19 229 79 61 49 100 66 153 66 55 -1 87 -16 173 -82 74 -57 138 -78 239 -78
63 0 86 5 137 29 34 16 79 45 100 64 54 48 96 67 148 67 55 0 84 -12 159 -67
162 -118 327 -109 478 24 103 91 203 97 322 17 85 -56 134 -74 201 -74 65 0
109 13 159 46 48 32 42 42 -13 20 -22 -9 -67 -16 -101 -16 -72 0 -123 23 -190
85 -26 24 -71 56 -100 72 -47 24 -65 28 -139 28 -96 0 -149 -19 -223 -78 -59
-48 -97 -60 -166 -55 -61 4 -83 16 -178 92 -23 19 -63 42 -90 51 -26 9 -55 20
-65 23 -15 6 -13 17 16 105 29 87 40 105 88 155 58 60 111 133 122 168 4 13
27 29 64 44 80 33 170 125 216 220 44 90 55 102 133 152 74 47 107 83 196 210
73 105 116 148 150 149 12 0 76 1 142 2 99 2 120 5 123 17 2 10 -12 23 -35 35
l-38 19 33 4 c18 2 53 -1 78 -6 50 -11 54 -5 21 26 -56 53 -154 66 -242 33
-27 -10 -71 -22 -98 -25 -30 -5 -62 -19 -91 -41 -24 -18 -95 -67 -159 -109
-67 -44 -127 -92 -143 -113 -38 -53 -117 -114 -194 -150 -36 -17 -114 -63
-174 -102 -69 -46 -146 -87 -212 -112 -89 -35 -109 -47 -140 -85 -20 -24 -44
-44 -54 -44 -9 0 -38 27 -64 60 -53 70 -93 97 -152 106 -90 13 -122 0 -205
-87 -42 -43 -83 -79 -91 -79 -8 0 -29 18 -48 41 -30 38 -134 99 -168 99 -20 0
-67 26 -187 104 -60 40 -145 89 -187 109 -60 30 -97 57 -165 126 -56 55 -124
111 -188 151 -55 34 -111 73 -125 86 -32 28 -195 75 -280 80 -51 3 -74 -1
-108 -17z m1537 -1042 c25 -41 48 -57 83 -57 13 0 40 -8 60 -18 31 -16 39 -17
59 -6 13 7 42 16 64 19 22 4 48 12 57 19 24 18 67 103 74 148 4 21 10 41 14
43 14 9 -2 -90 -26 -167 -46 -141 -90 -178 -165 -139 l-41 22 -44 -21 c-59
-29 -91 -18 -121 41 -40 77 -60 142 -67 209 l-6 65 18 -61 c10 -33 28 -77 41
-97z"/>
<path d="M1880 1751 c-50 -15 -116 -54 -158 -93 -54 -49 -98 -68 -159 -68 -48
0 -94 22 -182 86 -54 38 -133 58 -214 51 -86 -7 -142 -34 -217 -103 -32 -30
-74 -61 -94 -69 -46 -19 -137 -19 -183 0 -45 19 -49 19 -32 -1 21 -26 87 -55
139 -61 70 -8 143 13 217 64 81 55 105 64 169 64 66 0 109 -18 173 -75 64 -57
110 -81 188 -97 101 -21 213 11 302 87 23 20 63 42 88 50 66 20 130 0 211 -65
147 -118 318 -123 462 -13 101 77 117 84 186 80 49 -3 71 -10 104 -33 149
-106 208 -125 325 -106 76 13 136 43 199 101 60 54 96 70 165 70 65 0 100 -11
145 -48 110 -89 244 -104 355 -41 63 36 60 47 -5 25 -102 -35 -191 -13 -284
70 -85 76 -130 96 -221 102 -97 6 -134 -6 -237 -76 -72 -49 -91 -56 -141 -60
-68 -5 -100 9 -178 75 -85 72 -131 88 -248 88 -89 -1 -106 -4 -152 -28 -29
-15 -67 -40 -85 -56 -45 -39 -111 -71 -146 -71 -43 0 -95 24 -160 75 -75 58
-152 85 -239 84 -38 0 -79 -4 -93 -8z"/>
<path d="M3925 1234 c-33 -7 -77 -16 -98 -19 -24 -4 -53 -19 -78 -42 -36 -33
-41 -35 -69 -23 -25 10 -47 8 -147 -13 -198 -42 -538 -88 -803 -107 -276 -20
-757 -2 -1120 40 -228 27 -633 110 -759 154 -98 35 -170 6 -218 -87 -22 -45
-27 -68 -31 -167 -5 -128 8 -196 58 -307 l29 -63 -35 -15 c-20 -8 -38 -25 -44
-40 -13 -34 -13 -366 0 -400 6 -15 24 -32 44 -40 32 -13 44 -13 128 6 123 28
164 52 212 122 l40 57 20 -42 c15 -30 29 -44 49 -49 33 -9 140 8 178 27 15 7
29 11 32 8 14 -14 149 19 176 42 25 21 33 23 56 14 20 -8 65 -6 159 4 287 32
425 38 748 33 320 -5 362 -8 833 -63 77 -9 162 -25 189 -36 27 -10 78 -22 113
-25 57 -5 66 -4 88 17 l24 23 56 -51 c74 -68 140 -86 216 -61 111 37 169 185
169 429 0 104 -2 120 -21 144 -11 14 -28 26 -38 26 -30 0 -31 11 -3 35 l27 23
0 207 0 207 -28 24 c-32 27 -61 29 -152 8z m85 -223 l0 -168 -31 -7 c-17 -3
-34 -4 -39 -1 -4 2 -10 31 -14 64 -4 35 -15 69 -26 83 -18 22 -20 22 -36 6
-39 -39 -43 -566 -5 -612 32 -38 54 -11 63 76 5 40 3 48 -13 53 -16 5 -19 17
-19 71 l0 64 82 0 81 0 -7 -123 c-7 -139 -26 -225 -61 -278 -32 -49 -65 -56
-124 -27 -109 54 -163 213 -162 478 1 202 37 349 104 418 36 38 71 41 104 10
l23 -21 0 27 c0 21 7 30 33 41 17 8 35 14 40 15 4 0 7 -76 7 -169z m-3170 123
c31 -28 40 -32 40 -19 0 12 5 15 16 11 9 -3 27 -9 40 -12 24 -6 24 -7 24 -135
l0 -129 -24 0 c-45 0 -56 10 -56 51 0 50 -24 109 -45 109 -21 0 -38 -47 -31
-88 3 -19 21 -64 40 -100 110 -207 118 -227 123 -320 10 -160 -53 -300 -130
-290 -17 3 -40 8 -49 12 -12 6 -17 2 -20 -16 -3 -22 -50 -49 -63 -36 -8 8 -8
305 0 318 3 5 19 10 35 10 27 0 29 -2 35 -57 3 -32 7 -64 8 -72 1 -8 10 -19
19 -25 32 -20 53 15 53 88 0 59 -5 73 -67 194 -82 158 -102 233 -95 353 8 122
39 189 89 189 10 0 36 -16 58 -36z m255 -65 c83 -20 88 -24 82 -76 -3 -25 -10
-49 -17 -53 -9 -6 -8 -33 5 -121 10 -63 21 -123 25 -134 7 -19 8 -18 14 5 3
14 13 68 21 122 13 85 13 100 0 125 -8 15 -15 43 -15 61 0 37 5 38 92 20 l58
-12 0 -38 c0 -21 -5 -47 -12 -57 -9 -15 -8 -43 7 -128 10 -59 22 -112 26 -117
5 -6 9 -8 9 -5 0 3 9 54 20 114 18 97 18 110 5 125 -8 9 -15 34 -15 55 l0 38
53 -7 c94 -13 97 -14 97 -54 0 -19 -6 -43 -13 -51 -15 -18 -20 -40 -73 -326
-20 -110 -37 -201 -39 -202 -1 -2 -22 -6 -47 -9 l-45 -6 -23 118 c-12 66 -25
123 -30 127 -4 5 -15 -45 -25 -110 -24 -161 -25 -166 -64 -176 -47 -12 -57 -5
-65 45 -20 118 -76 493 -82 546 -4 40 -13 67 -25 78 -13 12 -19 31 -19 64 0
52 6 63 29 56 9 -3 39 -10 66 -17z m2553 -54 c0 -26 -6 -51 -14 -59 -11 -12
-14 -72 -14 -336 0 -251 -3 -322 -13 -326 -7 -2 -30 2 -51 9 -43 15 -31 -17
-128 337 -17 63 -36 120 -41 125 -5 6 -7 -53 -4 -155 3 -110 8 -165 16 -168 6
-2 11 -25 11 -54 0 -39 -3 -49 -14 -45 -8 3 -32 9 -53 13 -61 11 -73 21 -73
60 0 22 6 37 15 40 21 8 23 425 1 443 -11 9 -14 34 -8 77 2 9 105 34 140 34
13 0 53 -120 87 -264 14 -54 27 -101 30 -104 3 -3 5 58 5 136 0 115 -3 143
-15 149 -17 10 -24 88 -9 103 10 10 116 38 126 33 3 -2 6 -23 6 -48z m-418
-83 c0 -33 -4 -39 -30 -49 l-30 -11 2 -198 3 -198 25 -6 c21 -5 25 -12 28 -49
l3 -42 -48 7 c-26 3 -79 12 -118 18 l-70 12 0 34 c0 29 4 36 23 38 22 3 22 4
22 187 0 183 0 184 -22 187 -18 2 -24 11 -26 36 -2 22 2 34 12 38 24 9 158 32
194 33 31 1 32 -1 32 -37z m-1520 13 c52 -8 98 -15 103 -15 4 0 7 -15 7 -34 0
-30 -3 -35 -27 -38 l-28 -3 -3 -177 -2 -177 27 -3 c23 -2 29 -8 31 -36 4 -39
5 -39 -125 -55 l-103 -13 0 43 c0 36 3 43 20 43 19 0 20 7 20 195 l0 195 -25
6 c-21 5 -25 12 -25 45 0 46 -5 45 130 24z m1230 -49 c0 -21 -6 -36 -15 -40
-13 -4 -15 -34 -15 -181 0 -149 2 -175 15 -175 11 0 15 -11 15 -40 0 -38 -1
-39 -27 -35 -16 2 -58 7 -95 10 -63 6 -68 8 -68 30 0 13 7 30 15 39 12 12 15
45 14 178 0 102 -4 155 -9 143 -5 -11 -26 -100 -46 -197 -35 -164 -39 -178
-59 -178 -23 0 -22 -1 -91 308 -8 39 -20 72 -25 72 -5 0 -9 -65 -9 -149 0
-120 3 -151 15 -161 8 -7 15 -26 15 -42 l0 -29 -67 3 c-65 3 -68 4 -71 30 -2
19 3 30 17 38 20 10 21 19 21 160 0 141 -1 149 -21 155 -15 5 -19 14 -17 33 3
27 5 27 102 35 72 6 101 5 106 -4 4 -6 13 -45 20 -85 7 -41 16 -77 20 -79 4
-2 14 35 23 82 10 48 19 88 20 90 5 4 136 20 180 22 36 1 37 0 37 -33z m-910
16 l45 -7 15 -82 c8 -45 18 -84 21 -88 3 -3 13 32 23 77 9 45 19 85 24 88 4 4
54 4 112 1 101 -6 105 -7 108 -29 2 -15 -5 -32 -17 -43 -19 -18 -21 -31 -21
-154 0 -123 2 -137 20 -152 11 -10 20 -28 20 -40 0 -22 -3 -23 -94 -23 -78 0
-95 3 -100 16 -4 9 0 24 9 34 12 13 15 47 15 170 0 84 -3 151 -6 148 -4 -5
-84 -359 -84 -374 0 -8 -39 -4 -44 4 -5 9 -86 362 -86 378 0 5 -5 2 -10 -6 -5
-8 -10 -81 -10 -161 0 -118 3 -149 15 -159 22 -19 20 -70 -4 -70 -10 0 -39 -3
-65 -6 l-46 -7 0 36 c0 22 6 37 15 41 12 4 15 33 15 171 0 138 -3 167 -15 171
-9 4 -15 19 -15 40 l0 34 58 -1 c31 0 77 -4 102 -7z"/>
</g>
</svg>
