<?xml version="1.0" standalone="no"?>
<!DOCTYPE svg PUBLIC "-//W3C//DTD SVG 20010904//EN"
 "http://www.w3.org/TR/2001/REC-SVG-20010904/DTD/svg10.dtd">
<svg version="1.0" xmlns="http://www.w3.org/2000/svg"
 width="800.000000pt" height="800.000000pt" viewBox="0 0 800.000000 800.000000"
 preserveAspectRatio="xMidYMid meet">
<metadata>
Created by potrace 1.16, written by Peter Selinger 2001-2019
</metadata>
<g transform="translate(0.000000,800.000000) scale(0.100000,-0.100000)"
fill="#000000" stroke="none">
<path d="M4045 6363 c-39 -21 -97 -65 -160 -122 -221 -202 -506 -671 -688
-1131 -65 -164 -167 -472 -167 -502 0 -12 19 -19 86 -28 78 -11 227 -10 239 2
3 2 27 85 55 184 113 398 245 788 341 1005 118 266 246 493 327 582 29 31 15
36 -33 10z"/>
<path d="M2893 6130 c-124 -64 -197 -215 -197 -410 0 -165 44 -282 137 -366
110 -98 243 -77 337 53 61 86 85 173 85 313 0 140 -24 227 -85 313 -73 102
-188 142 -277 97z"/>
<path d="M2262 5713 c-7 -2 -17 -13 -22 -24 -9 -15 -1 -33 44 -96 123 -177
242 -397 289 -533 30 -88 62 -229 72 -317 4 -35 8 -63 9 -63 0 0 33 -9 71 -20
39 -11 83 -23 99 -26 l28 -5 -7 58 c-30 252 -126 488 -302 743 -51 75 -248
291 -263 289 -3 0 -11 -3 -18 -6z"/>
<path d="M2637 4373 c-9 -65 -20 -128 -23 -141 -4 -13 -3 -22 2 -21 5 2 27 -3
49 -9 22 -7 70 -12 106 -12 l66 0 6 53 c13 112 20 207 14 207 -9 0 -171 31
-188 36 -13 3 -18 -16 -32 -113z"/>
<path d="M3301 4471 c-24 -15 -131 -31 -225 -34 l-90 -2 -16 -76 c-9 -42 -20
-94 -23 -116 l-7 -41 43 5 c60 7 290 63 301 73 9 9 45 153 46 183 0 19 -8 21
-29 8z"/>
<path d="M2585 4107 c-23 -61 -32 -107 -22 -107 8 0 7 -3 -1 -9 -20 -12 -83
-172 -77 -196 3 -11 2 -14 -1 -6 -4 8 -29 -30 -63 -95 -31 -60 -114 -195 -184
-301 -70 -106 -127 -195 -127 -198 0 -3 -12 -24 -26 -46 -29 -46 -84 -179 -84
-203 0 -10 9 -16 21 -16 61 0 163 86 302 254 167 201 263 345 350 527 52 107
117 282 117 313 0 11 -57 32 -66 23 -2 -1 -4 -52 -5 -112 -2 -119 -13 -157
-56 -189 -35 -26 -102 -32 -128 -12 -11 8 -15 16 -8 16 6 0 15 -4 18 -10 9
-15 62 -12 94 5 55 28 69 65 70 196 2 109 0 119 -19 129 -20 11 -20 8 -20
-109 0 -114 -1 -121 -26 -150 -14 -17 -33 -31 -42 -31 -11 0 -5 7 15 19 l32
20 3 98 c5 150 2 165 -33 185 -22 13 -31 14 -34 5z"/>
<path d="M3180 4030 c-30 -5 -103 -8 -162 -9 -99 -1 -108 -3 -108 -20 0 -11 6
-22 13 -24 9 -4 8 -8 -3 -16 -8 -6 -11 -11 -6 -11 5 0 2 -7 -5 -17 -11 -13
-14 -78 -14 -327 0 -275 3 -328 23 -456 61 -387 159 -710 279 -925 135 -241
250 -420 310 -481 60 -63 83 -77 83 -51 0 6 -32 59 -70 116 -144 210 -200 356
-254 658 -62 341 -71 447 -71 843 1 195 4 367 8 383 l7 27 -68 0 c-57 0 -74 4
-101 24 -37 28 -61 67 -61 101 0 35 12 85 20 85 4 0 3 -18 -3 -39 -15 -54 5
-110 47 -139 25 -17 47 -22 99 -22 48 0 67 4 67 13 0 19 29 249 35 275 3 12 2
21 -2 21 -5 -1 -33 -5 -63 -9z"/>
<path d="M5306 3782 c-66 -19 -82 -38 -39 -48 45 -10 50 -12 20 -13 -15 -1
-36 5 -47 11 -17 11 -25 8 -59 -26 -72 -70 -105 -161 -117 -318 -12 -151 32
-316 104 -391 62 -66 176 -92 295 -67 l57 11 0 215 0 214 -100 0 -100 0 0 -35
0 -35 55 0 55 0 0 -150 0 -150 -59 0 c-144 0 -218 137 -208 385 5 138 30 211
93 272 48 47 99 60 185 49 43 -6 49 -4 50 11 0 10 2 28 5 40 3 17 -2 23 -24
27 -71 13 -112 13 -166 -2z"/>
<path d="M3540 3768 c0 -12 -7 -30 -17 -40 -15 -17 -11 -43 58 -408 l74 -390
48 0 c26 0 47 4 47 8 0 5 25 130 54 278 30 148 58 300 62 337 4 37 10 69 13
72 4 2 13 -35 20 -83 6 -48 35 -205 63 -349 l51 -263 46 0 47 0 21 108 c12 59
45 226 73 372 28 146 55 284 60 307 17 70 15 73 -35 73 -25 0 -45 -3 -45 -7 0
-3 -20 -123 -44 -267 -25 -144 -50 -305 -57 -358 -7 -54 -15 -98 -19 -98 -3 0
-11 44 -17 98 -18 145 -103 555 -118 567 -18 14 -29 55 -15 55 6 0 9 -3 7 -7
-3 -5 -1 -17 4 -28 7 -16 8 -15 6 10 -2 28 -5 30 -43 33 l-41 3 -13 -78 c-7
-43 -32 -179 -56 -303 -25 -124 -47 -253 -51 -287 -3 -35 -9 -63 -12 -63 -4 0
-16 69 -28 153 -11 83 -38 248 -59 365 -37 203 -39 212 -61 212 -17 0 -23 -6
-23 -22z"/>
<path d="M4415 3781 c-22 -4 -30 -12 -30 -26 0 -16 7 -20 37 -20 20 0 34 -3
31 -7 -2 -5 -19 -8 -36 -8 l-32 0 2 -387 c2 -214 3 -391 3 -395 0 -5 77 -8
170 -8 l170 0 -3 38 -2 37 -123 3 -122 3 0 164 0 165 111 0 110 0 -3 37 -3 37
-105 1 -105 0 -3 148 -3 147 116 0 115 0 0 40 c0 32 -4 40 -18 40 -10 0 -23
-5 -30 -12 -9 -9 -12 -9 -12 0 0 13 -176 15 -235 3z"/>
<path d="M4840 3360 l0 -430 45 0 45 0 2 395 c3 368 2 395 -14 395 -20 0 -37
27 -33 53 2 12 -4 17 -21 17 l-24 0 0 -430z"/>
<path d="M5660 3360 l0 -430 45 0 45 0 0 200 0 200 125 0 125 0 0 -200 0 -200
45 0 c38 0 45 3 50 23 3 12 4 204 3 427 l-3 405 -47 3 -48 3 -2 -188 -3 -188
-120 0 -120 0 -3 188 -2 187 -45 0 -45 0 0 -430z"/>
<path d="M6200 3748 l0 -43 77 0 78 0 3 -387 2 -388 45 0 45 0 2 388 3 387 60
2 c33 1 68 2 78 2 13 1 17 10 17 41 l0 40 -205 0 -205 0 0 -42z"/>
<path d="M4744 2710 c-50 -11 -103 -49 -131 -93 -106 -168 -106 -533 1 -693
40 -61 87 -87 154 -88 113 -1 189 75 229 228 25 97 25 333 0 426 -29 107 -72
177 -127 205 -35 17 -89 24 -126 15z m82 -92 c58 -27 94 -161 94 -348 0 -240
-60 -374 -158 -354 -76 15 -121 123 -129 309 -10 226 39 390 122 407 22 5 39
1 71 -14z"/>
<path d="M4180 2273 l0 -433 170 0 170 0 0 40 0 40 -125 0 -125 0 0 393 0 392
-45 0 -45 0 0 -432z"/>
<path d="M5255 2698 c-82 -30 -135 -110 -135 -202 0 -100 28 -140 187 -273 60
-50 83 -94 83 -160 0 -60 -16 -91 -59 -120 -40 -27 -122 -31 -175 -9 -34 14
-34 14 -40 -16 -9 -46 -8 -48 29 -64 45 -19 156 -18 203 1 133 56 178 234 92
365 -16 25 -64 72 -107 105 -96 75 -123 113 -123 172 0 91 53 139 144 130 28
-2 58 -8 67 -11 25 -11 45 52 24 73 -19 19 -147 25 -190 9z"/>
<path d="M5702 2689 c-152 -75 -160 -278 -15 -394 81 -65 146 -132 159 -162
31 -74 3 -167 -60 -197 -42 -20 -115 -21 -161 -2 -31 13 -35 13 -39 -2 -2 -9
-7 -27 -11 -40 -5 -19 -1 -25 29 -37 42 -18 144 -20 197 -3 44 13 100 62 126
111 13 23 18 55 18 112 0 70 -4 86 -28 128 -17 28 -58 72 -100 105 -101 80
-125 108 -138 155 -14 51 0 103 36 137 29 27 107 38 156 21 18 -6 33 -10 35
-9 1 2 5 19 9 39 6 34 5 37 -26 48 -53 18 -139 14 -187 -10z"/>
</g>
</svg>
