<?xml version="1.0" standalone="no"?>
<!DOCTYPE svg PUBLIC "-//W3C//DTD SVG 20010904//EN"
 "http://www.w3.org/TR/2001/REC-SVG-20010904/DTD/svg10.dtd">
<svg version="1.0" xmlns="http://www.w3.org/2000/svg"
 width="474.000000pt" height="359.000000pt" viewBox="0 0 474.000000 359.000000"
 preserveAspectRatio="xMidYMid meet">
<metadata>
Created by potrace 1.16, written by Peter Selinger 2001-2019
</metadata>
<g transform="translate(0.000000,359.000000) scale(0.100000,-0.100000)"
fill="#000000" stroke="none">
<path d="M2318 3578 c-3 -7 -34 -15 -75 -18 -78 -7 -114 -27 -137 -75 -25 -52
-55 -199 -72 -355 -5 -47 0 -60 59 -134 37 -46 60 -132 60 -228 1 -63 -3 -81
-19 -99 -37 -42 -198 -100 -332 -119 -87 -12 -112 -24 -179 -84 -52 -47 -72
-82 -125 -216 -17 -41 -54 -107 -84 -146 -30 -39 -76 -119 -104 -177 -62 -132
-71 -139 -148 -96 -316 179 -454 271 -573 383 -53 50 -129 123 -170 161 -41
39 -82 80 -92 93 -32 41 -87 26 -87 -25 0 -8 -13 -45 -30 -83 -16 -38 -30 -84
-30 -104 0 -29 -4 -36 -19 -36 -27 0 -74 42 -111 100 -18 28 -36 50 -41 50 -5
0 -9 -20 -9 -45 0 -25 4 -45 8 -45 8 0 72 -100 72 -112 0 -3 -9 -8 -20 -11
-27 -7 -25 -23 6 -44 20 -13 44 -17 95 -14 50 2 75 -2 91 -13 17 -12 48 -16
128 -16 81 0 113 -4 137 -18 18 -9 101 -83 185 -163 292 -278 445 -414 480
-428 36 -14 122 1 157 26 15 12 49 32 76 46 57 29 79 51 199 197 63 77 95 126
119 184 19 44 38 81 43 83 17 6 43 -53 79 -177 45 -156 55 -245 38 -341 -7
-41 -20 -119 -29 -174 -16 -101 -45 -185 -63 -185 -14 0 -181 60 -213 76 -26
13 -113 39 -290 87 -104 27 -168 15 -225 -43 -56 -58 -73 -96 -73 -163 0 -95
36 -157 159 -275 112 -108 199 -166 390 -263 210 -106 211 -109 63 -129 -98
-14 -137 -33 -182 -90 -38 -48 -90 -169 -90 -211 0 -24 10 -41 40 -71 l41 -38
132 0 c76 0 137 4 143 10 6 6 56 14 112 20 140 13 360 77 540 157 87 39 110
45 146 40 45 -6 352 -102 446 -140 91 -35 177 -21 205 34 20 38 20 162 0 183
-8 8 -15 23 -15 34 0 11 -20 46 -45 77 -24 32 -42 62 -39 66 3 5 20 9 39 9 51
0 177 79 295 184 135 122 300 332 300 383 0 36 -48 135 -83 171 -41 43 -97 72
-139 72 -42 0 -220 -54 -262 -79 -114 -69 -288 -115 -307 -81 -4 8 -27 83 -50
165 -40 145 -41 155 -42 300 0 168 8 200 81 325 39 68 65 82 70 40 7 -49 97
-166 217 -285 175 -173 272 -225 345 -185 19 10 55 28 79 39 49 24 186 125
307 228 253 214 343 287 381 309 22 14 108 47 190 75 196 65 339 159 243 159
-16 0 -30 -4 -30 -10 0 -5 -7 -10 -15 -10 -11 0 -15 20 -17 97 -2 61 -7 98
-15 100 -12 4 -41 -73 -45 -126 -2 -24 -12 -40 -31 -55 -28 -21 -29 -21 -43
-2 -8 11 -14 33 -14 48 0 21 -13 42 -45 74 -24 25 -47 54 -50 65 -7 22 -47 41
-68 33 -8 -3 -24 -29 -36 -59 -12 -29 -49 -94 -82 -143 -32 -50 -59 -97 -59
-105 0 -19 -100 -112 -172 -159 -114 -76 -413 -228 -461 -234 -45 -6 -48 -5
-81 31 -19 21 -58 82 -86 136 -29 54 -72 124 -96 157 -24 32 -58 92 -75 133
-28 67 -93 157 -144 201 -30 26 -90 45 -178 56 -88 11 -224 73 -285 130 l-35
32 6 103 c6 111 16 149 59 216 33 52 35 85 13 216 -29 178 -54 230 -134 284
-32 22 -66 47 -74 56 -18 18 -94 20 -99 3z"/>
</g>
</svg>
