<?xml version="1.0" standalone="no"?>
<!DOCTYPE svg PUBLIC "-//W3C//DTD SVG 20010904//EN"
 "http://www.w3.org/TR/2001/REC-SVG-20010904/DTD/svg10.dtd">
<svg version="1.0" xmlns="http://www.w3.org/2000/svg"
 width="800.000000pt" height="614.000000pt" viewBox="0 0 800.000000 614.000000"
 preserveAspectRatio="xMidYMid meet">
<metadata>
Created by potrace 1.16, written by Peter Selinger 2001-2019
</metadata>
<g transform="translate(0.000000,614.000000) scale(0.100000,-0.100000)"
fill="#000000" stroke="none">
<path d="M3704 5388 c-87 -169 -143 -794 -144 -1598 0 -331 8 -464 55 -880 64
-574 123 -853 188 -894 32 -20 89 -28 123 -16 65 23 116 161 168 457 33 186
48 324 91 818 20 226 44 491 55 590 17 155 32 311 80 820 18 189 -35 355 -114
355 -26 0 -84 -57 -110 -109 -24 -46 -61 -389 -86 -796 -41 -665 -105 -1202
-140 -1180 -13 8 -37 124 -57 270 -21 161 -25 668 -5 880 30 333 65 582 107
765 66 289 51 452 -51 522 -30 21 -51 27 -91 28 -49 0 -54 -2 -69 -32z"/>
<path d="M6171 5370 c-174 -49 -363 -187 -418 -306 -40 -88 -45 -143 -28 -307
10 -93 19 -339 25 -655 6 -279 12 -532 15 -562 12 -129 46 -653 55 -870 7
-137 15 -239 22 -247 6 -7 24 -13 40 -13 32 0 105 36 111 54 2 6 0 72 -4 146
-14 265 -34 884 -30 925 1 6 19 -19 40 -55 21 -36 74 -119 118 -185 97 -145
152 -253 182 -359 45 -152 19 -233 -139 -429 -124 -156 -182 -209 -267 -248
-111 -51 -143 -91 -143 -184 0 -51 3 -60 30 -85 86 -81 267 -37 430 103 158
136 279 313 338 497 24 76 27 100 27 225 0 117 -4 154 -24 225 -30 107 -78
217 -136 312 -24 40 -58 96 -74 123 -17 28 -61 87 -98 133 -90 110 -142 184
-143 201 0 8 20 46 44 86 127 203 252 503 349 840 46 160 61 256 55 364 -11
180 -90 275 -241 286 -44 4 -84 -1 -136 -15z m106 -317 c44 -21 56 -52 50
-133 -6 -81 -42 -175 -182 -475 -59 -126 -118 -259 -131 -295 -13 -36 -32 -87
-42 -115 l-20 -49 -7 94 c-4 52 -5 267 -3 477 l3 381 25 27 c78 84 227 126
307 88z"/>
<path d="M7025 5271 c-51 -32 -82 -73 -123 -161 -58 -125 -99 -287 -152 -600
-45 -261 -91 -721 -111 -1107 -24 -458 10 -1249 57 -1324 13 -22 109 -5 149
26 36 27 37 29 31 79 -3 28 -9 191 -12 361 -6 259 -5 312 7 321 14 12 298 74
337 74 12 0 22 -3 22 -7 0 -5 7 -67 15 -140 27 -245 89 -481 165 -633 40 -79
114 -180 132 -180 25 0 -2 391 -72 1045 -26 240 -38 412 -50 700 -35 821 -83
1231 -165 1410 -60 131 -151 185 -230 136z m64 -584 c8 -41 91 -1180 91 -1248
0 -13 -17 -17 -87 -22 -49 -4 -117 -13 -151 -20 -56 -12 -65 -12 -70 1 -6 18
23 559 44 787 27 310 68 496 122 557 22 26 39 7 51 -55z"/>
<path d="M2855 5274 c-77 -13 -157 -39 -235 -76 -68 -33 -101 -57 -170 -127
-71 -70 -95 -103 -133 -180 -26 -51 -47 -105 -47 -120 0 -19 17 -44 63 -90 81
-81 117 -100 188 -101 76 0 143 25 308 115 213 116 290 137 346 93 31 -24 30
-50 -4 -148 -20 -59 -32 -87 -196 -460 -59 -135 -127 -292 -152 -350 -24 -58
-55 -130 -68 -160 -13 -30 -44 -109 -70 -175 -26 -66 -58 -149 -72 -185 -61
-154 -184 -547 -208 -661 -32 -151 -43 -345 -25 -427 15 -67 51 -147 82 -182
65 -73 159 -106 248 -89 315 60 831 422 899 630 52 159 -146 157 -491 -5 -212
-100 -368 -154 -368 -128 0 20 189 548 276 770 13 34 35 90 48 125 31 79 70
181 106 277 16 41 45 118 65 170 37 95 60 158 133 365 160 452 173 521 131
695 -47 198 -169 336 -356 401 -58 20 -231 33 -298 23z"/>
<path d="M4785 5168 c-45 -16 -113 -86 -146 -151 -124 -243 -211 -687 -284
-1452 -39 -408 -75 -1063 -75 -1377 0 -120 1 -128 22 -142 58 -41 142 -4 183
79 23 46 25 68 35 275 34 751 103 1389 197 1830 60 284 61 281 62 -190 2
-1021 50 -1700 131 -1873 27 -58 57 -74 96 -54 70 36 124 153 200 431 69 252
111 399 147 511 l31 100 7 -65 c4 -36 10 -238 13 -450 11 -627 27 -795 81
-849 24 -24 25 -25 59 -8 43 20 87 79 118 156 27 67 26 1 14 1316 -7 843 -9
917 -27 1010 -33 165 -76 231 -150 229 -117 -3 -198 -204 -347 -854 -17 -74
-43 -187 -59 -250 l-27 -115 -7 50 c-4 28 -10 331 -13 675 -5 638 -11 759 -47
935 -25 122 -60 191 -115 222 -43 25 -55 26 -99 11z"/>
<path d="M1531 4961 c-31 -58 -23 -195 25 -406 25 -107 38 -153 143 -495 55
-181 85 -300 77 -307 -6 -6 -7 -3 -56 117 -42 104 -64 138 -105 157 -34 16
-36 16 -62 -3 -55 -41 -57 -63 -59 -494 -1 -303 -5 -425 -18 -525 -25 -197
-34 -223 -166 -523 -42 -96 -57 -163 -47 -204 9 -34 65 -88 115 -110 113 -50
169 41 218 352 22 145 30 668 15 1010 -6 146 -14 277 -17 293 -3 15 -2 27 3
26 19 -1 149 -221 185 -314 42 -106 70 -147 89 -128 13 13 2 118 -42 398 -27
177 -44 268 -104 585 -14 69 -34 181 -45 250 -11 69 -30 160 -42 203 -29 111
-81 167 -107 118z"/>
<path d="M1203 4713 c-79 -144 -77 -395 5 -546 31 -58 65 -87 101 -87 35 0 65
28 98 93 23 45 26 64 26 147 1 108 -10 155 -59 257 -30 64 -121 173 -144 173
-3 0 -16 -17 -27 -37z"/>
<path d="M905 4111 c-60 -16 -173 -92 -211 -141 -61 -80 24 -290 188 -465 84
-91 221 -181 287 -190 79 -11 126 1 161 41 34 39 38 70 14 117 -38 74 -82 99
-206 116 -48 6 -104 19 -124 27 -48 20 -142 116 -174 177 l-25 49 28 22 c15
12 51 31 80 41 113 40 158 85 137 135 -26 62 -86 89 -155 71z"/>
<path d="M6803 1658 c-16 -36 -51 -172 -63 -248 -6 -36 -14 -137 -17 -225 -8
-180 -12 -173 -39 50 -17 149 -33 205 -59 205 -33 0 -38 -50 -42 -380 -4 -338
1 -413 29 -418 25 -5 38 49 39 162 l1 101 18 -80 c26 -121 51 -179 78 -183 16
-2 24 3 31 20 4 13 11 145 15 293 3 149 11 365 17 481 6 116 9 219 8 229 -4
16 -6 15 -16 -7z"/>
<path d="M6495 1618 c-40 -14 -73 -45 -95 -88 -22 -43 -34 -112 -25 -141 7
-21 9 -20 41 15 19 21 39 36 46 34 8 -3 10 -113 9 -401 -2 -341 0 -397 12
-397 8 0 20 6 26 14 13 15 23 185 37 588 4 136 11 211 18 217 6 6 34 14 61 18
44 8 50 12 47 32 -9 85 -96 139 -177 109z"/>
<path d="M6920 1601 c-66 -34 -105 -130 -81 -194 8 -20 6 -77 -5 -210 -23
-266 -13 -487 25 -546 13 -20 67 -18 90 3 19 17 38 52 61 111 l12 30 14 -55
c17 -62 47 -100 81 -100 34 0 60 32 79 97 21 72 15 150 -26 367 -33 172 -35
203 -20 257 10 35 18 45 88 108 39 36 44 89 12 121 -59 59 -149 -29 -181 -180
-15 -71 -6 -212 20 -320 29 -122 41 -218 32 -268 -5 -23 -11 -45 -14 -48 -3
-3 -20 3 -39 12 -18 10 -36 17 -40 16 -5 -1 -8 5 -8 14 0 12 -5 15 -22 9 -13
-4 -40 -9 -61 -12 l-38 -5 3 118 3 119 49 25 c53 27 86 74 86 122 0 25 -4 28
-34 28 -18 0 -48 3 -66 6 l-32 7 4 99 c3 92 5 101 28 118 14 11 46 22 73 26
54 8 57 16 26 84 -30 66 -56 75 -119 41z"/>
<path d="M7341 1572 c-89 -93 -110 -275 -57 -487 32 -131 44 -261 27 -294
l-12 -22 -35 20 c-29 17 -36 18 -40 6 -9 -21 23 -119 45 -139 26 -24 70 -17
92 14 47 63 48 208 3 445 -39 206 -27 295 43 330 44 23 53 37 53 85 0 86 -58
106 -119 42z"/>
<path d="M6247 1574 c-52 -28 -106 -164 -107 -268 0 -28 -8 -47 -30 -72 -32
-36 -53 -99 -48 -142 3 -27 16 -31 48 -18 14 6 17 -21 28 -196 15 -234 19
-268 38 -268 32 0 36 39 29 265 -4 123 -4 228 -1 234 5 8 22 1 51 -20 37 -27
47 -30 60 -19 8 7 15 19 15 27 0 25 -62 133 -87 153 -18 14 -23 28 -23 64 0
56 21 110 48 125 16 8 25 6 46 -10 l26 -20 10 26 c15 38 12 55 -13 99 -27 47
-53 59 -90 40z"/>
<path d="M6366 1333 c-18 -60 -28 -269 -22 -472 4 -124 9 -228 12 -233 3 -4
13 -4 23 2 17 8 18 35 23 342 3 183 2 343 -3 355 -10 27 -26 30 -33 6z"/>
</g>
</svg>
